<?xml version="1.0" encoding="utf-8"?>
<!-- Generator: Adobe Illustrator 28.1.0, SVG Export Plug-In . SVG Version: 6.00 Build 0)  -->
<svg version="1.1" id="Layer_1" xmlns="http://www.w3.org/2000/svg" xmlns:xlink="http://www.w3.org/1999/xlink" x="0px" y="0px"
	 viewBox="0 0 161.6 161.6" style="enable-background:new 0 0 161.6 161.6;" xml:space="preserve">
<style type="text/css">
	.st0{fill:#141414;}
</style>
<path class="st0" d="M82.5,90.6h4.8v-0.7h-4.8V90.6z M82.5,92.6h4.8v-0.7h-4.8V92.6z M82.5,88.6h4.8v-0.7h-4.8V88.6z M79,89.8h-4.8
	v0.7H79V89.8z M79,91.8h-4.8v0.7H79V91.8z M79,87.8h-4.8v0.7H79V87.8z M86.7,75c-2-0.1-4-0.2-5.9-0.2c-2,0-4,0.1-5.9,0.2v9.7H56.2
	c0.8,4.6,2.6,9,5.4,12.7c0.4-0.5,1-0.9,1.7-0.9h11.6v10.1c1.9,0.5,3.9,0.8,5.9,0.8v0.1h0v-0.1c2,0,4-0.3,5.9-0.8V96.6h11.6
	c0.7,0,1.3,0.3,1.7,0.8c2.8-3.7,4.7-8.1,5.4-12.7H86.7L86.7,75L86.7,75z M77.3,78.1l2.5,1.2l0.9-2.6l0.9,2.6l2.5-1.2L83,80.6
	l2.6,0.9L83,82.4l1.2,2.5l-2.5-1.2l-0.9,2.6l-0.9-2.6l-2.5,1.2l1.2-2.5l-2.6-0.9l2.6-0.9L77.3,78.1z M68.5,94.2L66,93l-0.9,2.6
	L64.2,93l-2.5,1.2l1.2-2.5l-2.6-0.9l2.6-0.9l-1.2-2.5l2.5,1.2l0.9-2.6l0.9,2.6l2.5-1.2l-1.2,2.5l2.6,0.9l-2.6,0.9L68.5,94.2z
	 M72.5,94h-1.1v-0.8h1.1L72.5,94L72.5,94z M72.5,91.8h-1.1V91h1.1L72.5,91.8L72.5,91.8z M72.5,89.7h-1.1v-0.8h1.1L72.5,89.7
	L72.5,89.7z M72.5,87.5h-1.1v-0.8h1.1L72.5,87.5L72.5,87.5z M73.1,94v-7.7H78c0.1,0,0.2,0,0.3,0c1.1,0,2,0.9,2,1.9v6.5
	c-0.4-0.4-0.9-0.7-1.5-0.7C78.7,94,74.6,94,73.1,94z M84.2,104.1l-2.5-1.2l-0.9,2.6l-0.9-2.6l-2.5,1.2l1.2-2.5l-2.6-0.9l2.6-0.9
	l-1.2-2.5l2.5,1.2l0.9-2.6l0.9,2.6l2.5-1.2L83,99.7l2.6,0.9l-2.6,0.9C83,101.6,84.2,104.1,84.2,104.1z M93,87.3l2.5,1.2l0.9-2.6
	l0.9,2.6l2.5-1.2l-1.2,2.5l2.6,0.9l-2.6,0.9l1.2,2.5L97.4,93l-0.9,2.6L95.5,93L93,94.2l1.2-2.5l-2.6-0.9l2.6-0.9L93,87.3L93,87.3z
	 M89,86.7h1.1v0.8H89V86.7z M89,88.9h1.1v0.8H89V88.9z M89,91h1.1v0.8H89V91z M89,93.2h1.1V94H89V93.2z M88.4,86.2V94h-5.6
	c-0.6,0-1.1,0.3-1.5,0.7v-6.5c0-1.1,0.9-1.9,2-1.9c0.1,0,0.2,0,0.3,0L88.4,86.2L88.4,86.2L88.4,86.2z M98.1,53.2
	c-4.8-1-11.2-2-17.3-2c-9.2,0-18.9,2.3-23.2,3.4c-0.8,0.2-1.5,0.4-1.9,0.5V76c2.8-0.4,14.2-2.2,25-2.2c10.8,0,22.2,1.7,25,2.2V55.1
	c-0.4-0.1-1-0.3-1.9-0.5C102,54.1,100,53.6,98.1,53.2z M72,55.4c0.4-0.1-0.4-0.7,0.1-0.7c0.3,0,1.5,0,2.4,0.4
	c0.2,0.1,0.3-0.2,0.6-0.5c0,0,0.1,0,0.2,0c0.3,0.2,0.5,0.5,0.6,0.4c0.9-0.4,2-0.4,2.3-0.4c0.6,0-0.3,0.6,0.1,0.7
	c2,0.5,3.4,2.1,3.4,4.1c0,0.6-0.1,1.1-0.3,1.6c-0.1,0.3-0.4-0.5-0.5,0c-0.2,0.8-0.4,1.5-0.8,2.2c-0.4,0.8-1.1-0.8-1.3-0.4
	c-0.4,0.8-1.3,1.1-1.9,1.2c-0.1,0-0.1,0,0-0.1c0,0,0.2-0.2,0.2-0.5c0,0,0-0.1,0-0.1c0.5-0.2,0.8-0.7,0.9-1.2
	c0.1-0.5,0.3-1.2,0.6-1.6c0.5-0.9-0.1-2.1,0-2.3c0.6-0.4,0.8-1.2,0.4-1.8c-0.2-0.4-0.7-0.6-1.1-0.6c-0.4,0-0.7,0.2-1,0.5l0,0
	c-0.1,0.1-0.2,0.3-0.3,0.4c-0.1,0.2-0.1,0.4,0.1,0.5c0.9,0.2,1.5,2.3,1.1,2.9c-0.2,0.3-0.7,1.4-0.7,1.7c0,0.4-0.3,0.7-0.7,0.7
	c-0.3,0-0.6-0.2-0.7-0.5l0,0c0.3-0.2,0.8-0.5,0.8-0.8l-0.1-1.1c0.5,0,0.7-0.3,0.7-0.7c0,0,0.1-0.1,0.1-0.1c0.2-0.1,0.3-0.5-0.1-0.5
	c-0.5,0.1-1,0.1-1.5,0.2c-0.1,0-0.1,0.1-0.1,0.1c0,0.1,0.3,1.4,0.3,1.7c0,0,0,0,0,0c-0.2,0-0.4,0-0.7,0c-0.1,0-0.4,0-0.7,0
	c0,0,0,0,0,0c0.1-0.3,0.4-1.7,0.4-1.7c0-0.1,0-0.1,0-0.2c-0.1-0.1-1.4-0.2-1.6-0.3c-0.1,0-0.2,0-0.2,0.1c-0.1,0.2,0.1,0.4,0.3,0.5
	c0.1,0.4,0.3,0.7,0.7,0.7l0,0c0,0.1-0.1,1.1-0.1,1.1c0,0.4,0.6,0.7,0.8,0.8c0,0,0,0,0,0.1c-0.1,0.3-0.4,0.4-0.7,0.4
	c-0.4,0-0.7-0.3-0.7-0.7c0,0,0,0,0,0c0-0.3-0.5-1.4-0.7-1.7c-0.4-0.7,0.2-2.7,1.1-2.9c0.2,0,0.3-0.3,0.2-0.5
	c-0.4-0.4-0.8-0.9-1.4-0.9c-0.7,0-1.3,0.6-1.3,1.3c0,0,0,0,0,0c0,0.8,0.6,1,0.6,1.2c-0.3,0.8-0.3,1.6,0.1,2.2
	c0.2,0.4,0.4,1.1,0.6,1.6c0.1,0.5,0.4,0.9,0.8,1.1c0.2,0.1,0.1,0.3,0.2,0.5c0,0.1,0.1,0.1,0.2,0.2c0.1,0.1,0,0.1,0,0.1
	c-0.6-0.1-1.6-0.3-2-1.2c-0.2-0.4-0.9,1.1-1.3,0.4c-0.4-0.7-0.6-1.4-0.8-2.2c-0.1-0.4-0.4,0.3-0.5,0c-0.2-0.5-0.3-1.1-0.3-1.6
	C68.6,57.5,70,55.9,72,55.4z M77.5,56.8c0,0,0-0.1,0-0.1c0.1-0.1,0.2-0.1,0.3-0.1c0.3,0,0.6,0.3,0.6,0.6c0,0.2-0.1,0.3-0.2,0.5
	c0,0-0.1,0-0.1,0C78,57.3,77.8,57,77.5,56.8L77.5,56.8z M76.2,63.5c-0.1,0.4-0.7,0.3-1,0.5c0,0-0.1,0-0.1,0c-0.3-0.2-0.8-0.1-1-0.5
	c0,0,0-0.1,0.1-0.1c0.4,0,0.7-0.2,0.9-0.5c0,0,0.1,0,0.1,0c0.2,0.3,0.5,0.4,0.9,0.5C76.1,63.3,76.2,63.4,76.2,63.5z M72.2,57.6
	c0,0-0.1,0-0.1,0c-0.1-0.1-0.2-0.3-0.2-0.5c0-0.3,0.3-0.6,0.6-0.6c0.2,0,0.3,0.1,0.4,0.2c0,0,0,0.1,0,0.1
	C72.6,57.1,72.3,57.3,72.2,57.6L72.2,57.6z M66.9,65.3c-0.4,0-0.6,0.1-0.9,0.3c-0.2,0.1-0.2-0.2,0-1c0.2-0.6-1-0.9-1.2-0.6
	c-0.4,0.3-1.4,0.9-2.3-0.1c-0.2-0.2,0.4-0.1,0.5-0.3c0.1-0.3,0.3-0.4,0.4-0.5c0.1-0.1,0.1-0.2,0-0.3c-0.3-0.2-0.7-0.5-0.6-1.1
	c0-0.1-0.5-0.1-0.3-0.3c0.9-0.8,1.9-0.3,2.3,0c0.1,0,0.2,0,0.2-0.1c0-0.3-0.1-0.5,0.4-0.9c0.1-0.1-0.3-0.5,0-0.4
	c1.9,0.5,1,2.4,1.4,2.8c0.7,0.6,2.5,1.1,4.1,1.5c0.1,0,0.6,0.2,0.8,0.3c1.3,0.7,2.1,0.6,2.8,0.3c0.2-0.1,0.2,0.2,0.1,0.3
	c-2.6,2.5-4.6,1.9-5.3,1.4c-0.5-0.3-1.5-0.3-1.9,0.3c-0.1,0.1-0.2,0.1-0.3-0.1c-0.1-0.5,0-0.8,0.2-1.1C67.2,65.3,67,65.2,66.9,65.3
	L66.9,65.3z M91.8,67.6c-0.3,0.3-1,0.6-2,0.6c-0.4,0-0.6,0.1-0.7,0.2c-0.1,0.1-0.1,0.2-0.1,0.2c-0.1,0.2,0,0.4,0.1,0.6
	c0.1,0.2,0.1,0.3-0.1,0.3c-0.2,0-0.4,0-0.8-0.2c-0.2-0.1-0.2,0-0.3,0.1c-0.1,0.2,0.1,0.5,0.3,0.6c0.1,0.1,0.1,0.3-0.1,0.3
	c-0.4,0.1-0.7,0-1.3-0.3c-0.3-0.2-0.6-0.2-0.8,0c-0.1,0.1-0.1,0.3,0,0.3c0.2,0.2,0.3,0.6-0.2,1.3c-0.2,0.2-0.4-0.4-0.5-0.3
	c-0.7,0.3-1.3-0.1-1.6-0.4c0-0.1-0.2-0.1-0.3,0c-0.4,0.3-1.2,0.6-1.4-0.1c0-0.1-0.5,0.2-0.5,0c0-1.2,1-1.4,1.5-1.4
	c0.1,0,0.2-0.1,0.1-0.2c-0.2-0.3-0.4-0.5-0.3-0.9c0.1-0.3-0.6-0.3-0.3-0.5c1.3-0.7,2.1,0.6,2.3,0.7c0.4,0.2,2.1-0.3,2.3-1.3
	c0-0.2-0.4-0.3-0.8-0.4c-0.1,0-0.1-0.1,0-0.2c1.1-0.8,1.9-1.8,3.8-2c0.2,0,0.3,0.1,0.3,0.2c0,0,0,0,0,0c0,0.3,0.1,0.6,0.2,0.8
	c0.3,0.6,0.6,0.9,0.9,1.2C92,67.3,91.9,67.5,91.8,67.6L91.8,67.6z M99.8,67c0.2,0.1,0.2,0.2,0,0.3c-0.1,0.1-0.3,0.2-0.8,0.2
	c-0.2,0-0.2,0.1-0.2,0.2c0,0.2,0.3,0.4,0.6,0.4c0.2,0,0.2,0.2,0,0.3c-0.3,0.3-0.6,0.3-1.3,0.3c-0.6,0-1.1,0.7-0.7,1
	c0.2,0.2,0.7,0.6,0.3,1.9c-0.1,0.4-0.4-0.3-0.6-0.2c-0.5,0.3-0.9-0.1-1.1-0.3c-0.1-0.1-0.2-0.1-0.3,0c-0.2,0.3-0.7,0.9-1.8,0.4
	c-0.2-0.1-0.7,0.3-0.7,0.2c-0.2-0.8,0.3-1.3,0.6-1.5c0,0,0.2-0.2-0.1-0.2c-0.3,0-0.8-0.1-0.8-0.6c0-0.1-0.5-0.1-0.4-0.2
	c0.1-0.6,1.4-1,2.3-0.4c0.8,0.5,1.7-1.2,1-2c-0.5-0.6-3.4,1.1-4.4-1.1c-0.4-0.8,0.1-1.6-0.3-1.6c-0.4-0.1-2.3-0.5-4.3,1.2
	c-3.4,2.8-7.2,1.3-8.1,0.6c-0.1,0-0.3,0.1-0.2,0.2c0.1,0.4,0.1,0.7-0.1,0.9C78.3,67.4,77,68,76.8,68c-1.4,0.4-1.3,1.5-1.1,2
	c0,0.2,0,0.2-0.2,0.2c-0.4-0.1-1.3-0.4-1.7-1.2c0-0.1-0.1-0.1-0.3,0c-0.5,0.4-0.3,0.9-0.2,1.2c0,0.1,0,0.2-0.1,0.2
	c-0.5,0.1-0.9-0.5-1.3-0.5c-0.3,0-0.6,0.2-0.8,0.4c-0.1,0-0.1,0.2,0,0.4c0.5,1.6-0.3,1.7-0.4,1.6c-0.1,0,0-0.3-0.3-0.3
	c-0.9,0-1.1-0.5-1.2-0.9c0-0.1-0.1-0.2-0.2-0.1c-0.3,0.2-1.1,0.7-1.7,0c-0.1-0.1-0.3,0-0.5,0.1c-0.1,0-0.1-0.1-0.1-0.2
	c0-0.7,0.4-1.2,1-1.5c0.1-0.1,0.1-0.1,0-0.2c-0.3-0.2-0.8-0.6-0.6-1.1c0-0.1-0.4-0.3-0.3-0.3c1-0.7,2.3,0.5,2.5,0.6
	c0.2,0.1,1.1,0.2,3.4-1.1c1.5-0.8,2.3-1.5,2.7-2c0-0.1,0.2-0.2,0.3-0.2c0.9,0,1.9-0.2,2.6-0.8c0.1-0.1,0.2,0,0.3,0
	c1.3,0.9,2-1.1,2.3-2.1c0-0.2,0.1-0.3,0.3-0.4c4.9,0.2,14.2,0.2,14.2,0.2s1.2,0.1,1.2-0.7c-0.1-1.2-5.2-1.2-9-0.7
	c-1.4,0.2-3.4,0.3-4.5-0.2c-0.5-0.2-0.9-0.5-1.1-0.9c-0.2-0.5-0.2-0.8-0.1-1.1c0.1-0.2,0.2-0.5,0.3-0.7c1-1.5,3.2-1.6,3.9-1.6
	c0.1,0,0.2-0.1,0.2-0.2c0.1-0.3,0.3-1.1,1.3-1.2c0.3,0,0.5-0.1,0.7-0.2c0.1,0,0.2,0,0.2,0.1c0,0.2-0.1,0.3-0.2,0.4
	c-0.7,0.6-0.6,0.8-0.5,0.9c0,0,0.1,0,0.2,0c2-1.7,3.2-0.6,3.5-0.2c0.1,0.1,0.1,0.2,0,0.2c-1.4,0.3-1.9,1.5-4.7,1.3
	c-0.3,0-2.6-0.1-3.3,0.9c-0.4,0.6-0.1,1.1,1.1,1.4c0.9,0.2,3.1-0.1,4.1-0.2c1-0.1,5.4-0.6,7.7,0c1,0.3,2.4,1.1,2.1,2.5
	c-0.2,0.9-1.1,1.3-1.1,1.3s-2.5,1.8,2,1.8c1.4,0,0,1.2,0,1.5C99.4,66.6,99.6,66.8,99.8,67z M91.5,57.2c-0.2,0-0.4,0.1-0.6,0.2
	c-0.4,0.3-2,0.9-2.5,0.1c0,0,1.1,0,1.9-0.7c0,0,0.8-0.3,1.3,0.2C91.7,57.1,91.7,57.2,91.5,57.2L91.5,57.2z M80.8,48.2
	c-15.4,0-30.6,4.1-30.6,4.1v20.4c0,18.4,13.2,37.4,30.6,40.7c18.1-3.5,30.7-22.4,30.7-40.7V52.3C111.4,52.3,98.6,48.2,80.8,48.2z
	 M106.9,80.1c0,15-11.4,28.5-26.1,28.5h0c-14.7,0-26.1-13.6-26.1-28.5V54.3l0.4-0.1c0,0,13.2-4.1,25.7-4.1s25.7,4.1,25.7,4.1
	l0.4,0.1C106.9,54.3,106.9,62.5,106.9,80.1L106.9,80.1z"/>
<path id="qr-path" d="M11.3,11.3h2.8v2.8h-2.8V11.3z M14.2,11.3H17v2.8h-2.8V11.3z M17,11.3h2.8v2.8H17V11.3z M19.8,11.3h2.8v2.8
	h-2.8V11.3z M22.7,11.3h2.8v2.8h-2.8V11.3z M25.5,11.3h2.8v2.8h-2.8V11.3z M28.3,11.3h2.8v2.8h-2.8V11.3z M34,11.3h2.8v2.8H34V11.3z
	 M36.9,11.3h2.8v2.8h-2.8V11.3z M39.7,11.3h2.8v2.8h-2.8V11.3z M51,11.3h2.8v2.8H51V11.3z M53.9,11.3h2.8v2.8h-2.8V11.3z M59.5,11.3
	h2.8v2.8h-2.8V11.3z M73.7,11.3h2.8v2.8h-2.8V11.3z M76.5,11.3h2.8v2.8h-2.8V11.3z M85,11.3h2.8v2.8H85V11.3z M93.5,11.3h2.8v2.8
	h-2.8V11.3z M96.4,11.3h2.8v2.8h-2.8V11.3z M110.6,11.3h2.8v2.8h-2.8V11.3z M124.7,11.3h2.8v2.8h-2.8V11.3z M130.4,11.3h2.8v2.8
	h-2.8V11.3z M133.2,11.3h2.8v2.8h-2.8V11.3z M136.1,11.3h2.8v2.8h-2.8V11.3z M138.9,11.3h2.8v2.8h-2.8V11.3z M141.7,11.3h2.8v2.8
	h-2.8V11.3z M144.6,11.3h2.8v2.8h-2.8V11.3z M147.4,11.3h2.8v2.8h-2.8V11.3z M11.3,14.2h2.8V17h-2.8V14.2z M28.3,14.2h2.8V17h-2.8
	V14.2z M34,14.2h2.8V17H34V14.2z M36.9,14.2h2.8V17h-2.8V14.2z M51,14.2h2.8V17H51V14.2z M56.7,14.2h2.8V17h-2.8V14.2z M65.2,14.2
	H68V17h-2.8V14.2z M68,14.2h2.8V17H68V14.2z M70.9,14.2h2.8V17h-2.8V14.2z M76.5,14.2h2.8V17h-2.8V14.2z M82.2,14.2H85V17h-2.8V14.2
	z M90.7,14.2h2.8V17h-2.8V14.2z M96.4,14.2h2.8V17h-2.8V14.2z M99.2,14.2h2.8V17h-2.8V14.2z M107.7,14.2h2.8V17h-2.8V14.2z
	 M113.4,14.2h2.8V17h-2.8V14.2z M116.2,14.2h2.8V17h-2.8V14.2z M119.1,14.2h2.8V17h-2.8V14.2z M121.9,14.2h2.8V17h-2.8V14.2z
	 M124.7,14.2h2.8V17h-2.8V14.2z M130.4,14.2h2.8V17h-2.8V14.2z M147.4,14.2h2.8V17h-2.8V14.2z M11.3,17h2.8v2.8h-2.8V17z M17,17h2.8
	v2.8H17V17z M19.8,17h2.8v2.8h-2.8V17z M22.7,17h2.8v2.8h-2.8V17z M28.3,17h2.8v2.8h-2.8V17z M34,17h2.8v2.8H34V17z M42.5,17h2.8
	v2.8h-2.8V17z M45.4,17h2.8v2.8h-2.8V17z M48.2,17H51v2.8h-2.8V17z M51,17h2.8v2.8H51V17z M59.5,17h2.8v2.8h-2.8V17z M68,17h2.8v2.8
	H68V17z M70.9,17h2.8v2.8h-2.8V17z M76.5,17h2.8v2.8h-2.8V17z M82.2,17H85v2.8h-2.8V17z M96.4,17h2.8v2.8h-2.8V17z M99.2,17h2.8v2.8
	h-2.8V17z M107.7,17h2.8v2.8h-2.8V17z M110.6,17h2.8v2.8h-2.8V17z M121.9,17h2.8v2.8h-2.8V17z M124.7,17h2.8v2.8h-2.8V17z M130.4,17
	h2.8v2.8h-2.8V17z M136.1,17h2.8v2.8h-2.8V17z M138.9,17h2.8v2.8h-2.8V17z M141.7,17h2.8v2.8h-2.8V17z M147.4,17h2.8v2.8h-2.8V17z
	 M11.3,19.8h2.8v2.8h-2.8V19.8z M17,19.8h2.8v2.8H17V19.8z M19.8,19.8h2.8v2.8h-2.8V19.8z M22.7,19.8h2.8v2.8h-2.8V19.8z M28.3,19.8
	h2.8v2.8h-2.8V19.8z M39.7,19.8h2.8v2.8h-2.8V19.8z M42.5,19.8h2.8v2.8h-2.8V19.8z M51,19.8h2.8v2.8H51V19.8z M56.7,19.8h2.8v2.8
	h-2.8V19.8z M70.9,19.8h2.8v2.8h-2.8V19.8z M73.7,19.8h2.8v2.8h-2.8V19.8z M76.5,19.8h2.8v2.8h-2.8V19.8z M82.2,19.8H85v2.8h-2.8
	V19.8z M85,19.8h2.8v2.8H85V19.8z M87.9,19.8h2.8v2.8h-2.8V19.8z M90.7,19.8h2.8v2.8h-2.8V19.8z M93.5,19.8h2.8v2.8h-2.8V19.8z
	 M96.4,19.8h2.8v2.8h-2.8V19.8z M102,19.8h2.8v2.8H102V19.8z M110.6,19.8h2.8v2.8h-2.8V19.8z M113.4,19.8h2.8v2.8h-2.8V19.8z
	 M116.2,19.8h2.8v2.8h-2.8V19.8z M121.9,19.8h2.8v2.8h-2.8V19.8z M130.4,19.8h2.8v2.8h-2.8V19.8z M136.1,19.8h2.8v2.8h-2.8V19.8z
	 M138.9,19.8h2.8v2.8h-2.8V19.8z M141.7,19.8h2.8v2.8h-2.8V19.8z M147.4,19.8h2.8v2.8h-2.8V19.8z M11.3,22.7h2.8v2.8h-2.8V22.7z
	 M17,22.7h2.8v2.8H17V22.7z M19.8,22.7h2.8v2.8h-2.8V22.7z M22.7,22.7h2.8v2.8h-2.8V22.7z M28.3,22.7h2.8v2.8h-2.8V22.7z M39.7,22.7
	h2.8v2.8h-2.8V22.7z M45.4,22.7h2.8v2.8h-2.8V22.7z M59.5,22.7h2.8v2.8h-2.8V22.7z M62.4,22.7h2.8v2.8h-2.8V22.7z M68,22.7h2.8v2.8
	H68V22.7z M70.9,22.7h2.8v2.8h-2.8V22.7z M73.7,22.7h2.8v2.8h-2.8V22.7z M76.5,22.7h2.8v2.8h-2.8V22.7z M79.4,22.7h2.8v2.8h-2.8
	V22.7z M82.2,22.7H85v2.8h-2.8V22.7z M85,22.7h2.8v2.8H85V22.7z M90.7,22.7h2.8v2.8h-2.8V22.7z M96.4,22.7h2.8v2.8h-2.8V22.7z
	 M99.2,22.7h2.8v2.8h-2.8V22.7z M102,22.7h2.8v2.8H102V22.7z M110.6,22.7h2.8v2.8h-2.8V22.7z M113.4,22.7h2.8v2.8h-2.8V22.7z
	 M116.2,22.7h2.8v2.8h-2.8V22.7z M130.4,22.7h2.8v2.8h-2.8V22.7z M136.1,22.7h2.8v2.8h-2.8V22.7z M138.9,22.7h2.8v2.8h-2.8V22.7z
	 M141.7,22.7h2.8v2.8h-2.8V22.7z M147.4,22.7h2.8v2.8h-2.8V22.7z M11.3,25.5h2.8v2.8h-2.8V25.5z M28.3,25.5h2.8v2.8h-2.8V25.5z
	 M34,25.5h2.8v2.8H34V25.5z M36.9,25.5h2.8v2.8h-2.8V25.5z M39.7,25.5h2.8v2.8h-2.8V25.5z M45.4,25.5h2.8v2.8h-2.8V25.5z M48.2,25.5
	H51v2.8h-2.8V25.5z M53.9,25.5h2.8v2.8h-2.8V25.5z M59.5,25.5h2.8v2.8h-2.8V25.5z M70.9,25.5h2.8v2.8h-2.8V25.5z M73.7,25.5h2.8v2.8
	h-2.8V25.5z M85,25.5h2.8v2.8H85V25.5z M87.9,25.5h2.8v2.8h-2.8V25.5z M90.7,25.5h2.8v2.8h-2.8V25.5z M93.5,25.5h2.8v2.8h-2.8V25.5z
	 M99.2,25.5h2.8v2.8h-2.8V25.5z M104.9,25.5h2.8v2.8h-2.8V25.5z M107.7,25.5h2.8v2.8h-2.8V25.5z M119.1,25.5h2.8v2.8h-2.8V25.5z
	 M130.4,25.5h2.8v2.8h-2.8V25.5z M147.4,25.5h2.8v2.8h-2.8V25.5z M11.3,28.3h2.8v2.8h-2.8V28.3z M14.2,28.3H17v2.8h-2.8V28.3z
	 M17,28.3h2.8v2.8H17V28.3z M19.8,28.3h2.8v2.8h-2.8V28.3z M22.7,28.3h2.8v2.8h-2.8V28.3z M25.5,28.3h2.8v2.8h-2.8V28.3z M28.3,28.3
	h2.8v2.8h-2.8V28.3z M34,28.3h2.8v2.8H34V28.3z M39.7,28.3h2.8v2.8h-2.8V28.3z M45.4,28.3h2.8v2.8h-2.8V28.3z M51,28.3h2.8v2.8H51
	V28.3z M56.7,28.3h2.8v2.8h-2.8V28.3z M62.4,28.3h2.8v2.8h-2.8V28.3z M68,28.3h2.8v2.8H68V28.3z M73.7,28.3h2.8v2.8h-2.8V28.3z
	 M79.4,28.3h2.8v2.8h-2.8V28.3z M85,28.3h2.8v2.8H85V28.3z M90.7,28.3h2.8v2.8h-2.8V28.3z M96.4,28.3h2.8v2.8h-2.8V28.3z M102,28.3
	h2.8v2.8H102V28.3z M107.7,28.3h2.8v2.8h-2.8V28.3z M113.4,28.3h2.8v2.8h-2.8V28.3z M119.1,28.3h2.8v2.8h-2.8V28.3z M124.7,28.3h2.8
	v2.8h-2.8V28.3z M130.4,28.3h2.8v2.8h-2.8V28.3z M133.2,28.3h2.8v2.8h-2.8V28.3z M136.1,28.3h2.8v2.8h-2.8V28.3z M138.9,28.3h2.8
	v2.8h-2.8V28.3z M141.7,28.3h2.8v2.8h-2.8V28.3z M144.6,28.3h2.8v2.8h-2.8V28.3z M147.4,28.3h2.8v2.8h-2.8V28.3z M34,31.2h2.8V34H34
	V31.2z M39.7,31.2h2.8V34h-2.8V31.2z M45.4,31.2h2.8V34h-2.8V31.2z M48.2,31.2H51V34h-2.8V31.2z M53.9,31.2h2.8V34h-2.8V31.2z
	 M56.7,31.2h2.8V34h-2.8V31.2z M59.5,31.2h2.8V34h-2.8V31.2z M62.4,31.2h2.8V34h-2.8V31.2z M65.2,31.2H68V34h-2.8V31.2z M68,31.2
	h2.8V34H68V31.2z M73.7,31.2h2.8V34h-2.8V31.2z M85,31.2h2.8V34H85V31.2z M87.9,31.2h2.8V34h-2.8V31.2z M96.4,31.2h2.8V34h-2.8V31.2
	z M99.2,31.2h2.8V34h-2.8V31.2z M102,31.2h2.8V34H102V31.2z M107.7,31.2h2.8V34h-2.8V31.2z M113.4,31.2h2.8V34h-2.8V31.2z
	 M116.2,31.2h2.8V34h-2.8V31.2z M119.1,31.2h2.8V34h-2.8V31.2z M124.7,31.2h2.8V34h-2.8V31.2z M17,34h2.8v2.8H17V34z M19.8,34h2.8
	v2.8h-2.8V34z M22.7,34h2.8v2.8h-2.8V34z M28.3,34h2.8v2.8h-2.8V34z M34,34h2.8v2.8H34V34z M36.9,34h2.8v2.8h-2.8V34z M42.5,34h2.8
	v2.8h-2.8V34z M48.2,34H51v2.8h-2.8V34z M51,34h2.8v2.8H51V34z M53.9,34h2.8v2.8h-2.8V34z M62.4,34h2.8v2.8h-2.8V34z M65.2,34H68
	v2.8h-2.8V34z M68,34h2.8v2.8H68V34z M73.7,34h2.8v2.8h-2.8V34z M76.5,34h2.8v2.8h-2.8V34z M79.4,34h2.8v2.8h-2.8V34z M82.2,34H85
	v2.8h-2.8V34z M85,34h2.8v2.8H85V34z M87.9,34h2.8v2.8h-2.8V34z M96.4,34h2.8v2.8h-2.8V34z M102,34h2.8v2.8H102V34z M104.9,34h2.8
	v2.8h-2.8V34z M107.7,34h2.8v2.8h-2.8V34z M110.6,34h2.8v2.8h-2.8V34z M119.1,34h2.8v2.8h-2.8V34z M124.7,34h2.8v2.8h-2.8V34z
	 M127.6,34h2.8v2.8h-2.8V34z M130.4,34h2.8v2.8h-2.8V34z M133.2,34h2.8v2.8h-2.8V34z M141.7,34h2.8v2.8h-2.8V34z M144.6,34h2.8v2.8
	h-2.8V34z M147.4,34h2.8v2.8h-2.8V34z M14.2,36.9H17v2.8h-2.8V36.9z M19.8,36.9h2.8v2.8h-2.8V36.9z M22.7,36.9h2.8v2.8h-2.8V36.9z
	 M34,36.9h2.8v2.8H34V36.9z M36.9,36.9h2.8v2.8h-2.8V36.9z M39.7,36.9h2.8v2.8h-2.8V36.9z M42.5,36.9h2.8v2.8h-2.8V36.9z M53.9,36.9
	h2.8v2.8h-2.8V36.9z M59.5,36.9h2.8v2.8h-2.8V36.9z M73.7,36.9h2.8v2.8h-2.8V36.9z M79.4,36.9h2.8v2.8h-2.8V36.9z M87.9,36.9h2.8
	v2.8h-2.8V36.9z M96.4,36.9h2.8v2.8h-2.8V36.9z M99.2,36.9h2.8v2.8h-2.8V36.9z M107.7,36.9h2.8v2.8h-2.8V36.9z M116.2,36.9h2.8v2.8
	h-2.8V36.9z M119.1,36.9h2.8v2.8h-2.8V36.9z M130.4,36.9h2.8v2.8h-2.8V36.9z M133.2,36.9h2.8v2.8h-2.8V36.9z M141.7,36.9h2.8v2.8
	h-2.8V36.9z M17,39.7h2.8v2.8H17V39.7z M22.7,39.7h2.8v2.8h-2.8V39.7z M25.5,39.7h2.8v2.8h-2.8V39.7z M28.3,39.7h2.8v2.8h-2.8V39.7z
	 M31.2,39.7H34v2.8h-2.8V39.7z M34,39.7h2.8v2.8H34V39.7z M36.9,39.7h2.8v2.8h-2.8V39.7z M51,39.7h2.8v2.8H51V39.7z M53.9,39.7h2.8
	v2.8h-2.8V39.7z M65.2,39.7H68v2.8h-2.8V39.7z M68,39.7h2.8v2.8H68V39.7z M76.5,39.7h2.8v2.8h-2.8V39.7z M79.4,39.7h2.8v2.8h-2.8
	V39.7z M90.7,39.7h2.8v2.8h-2.8V39.7z M93.5,39.7h2.8v2.8h-2.8V39.7z M104.9,39.7h2.8v2.8h-2.8V39.7z M110.6,39.7h2.8v2.8h-2.8V39.7
	z M121.9,39.7h2.8v2.8h-2.8V39.7z M127.6,39.7h2.8v2.8h-2.8V39.7z M130.4,39.7h2.8v2.8h-2.8V39.7z M138.9,39.7h2.8v2.8h-2.8V39.7z
	 M141.7,39.7h2.8v2.8h-2.8V39.7z M147.4,39.7h2.8v2.8h-2.8V39.7z M11.3,42.5h2.8v2.8h-2.8V42.5z M14.2,42.5H17v2.8h-2.8V42.5z
	 M17,42.5h2.8v2.8H17V42.5z M22.7,42.5h2.8v2.8h-2.8V42.5z M25.5,42.5h2.8v2.8h-2.8V42.5z M31.2,42.5H34v2.8h-2.8V42.5z M34,42.5
	h2.8v2.8H34V42.5z M42.5,42.5h2.8v2.8h-2.8V42.5z M45.4,42.5h2.8v2.8h-2.8V42.5z M48.2,42.5H51v2.8h-2.8V42.5z M51,42.5h2.8v2.8H51
	V42.5z M56.7,42.5h2.8v2.8h-2.8V42.5z M62.4,42.5h2.8v2.8h-2.8V42.5z M65.2,42.5H68v2.8h-2.8V42.5z M68,42.5h2.8v2.8H68V42.5z
	 M70.9,42.5h2.8v2.8h-2.8V42.5z M73.7,42.5h2.8v2.8h-2.8V42.5z M76.5,42.5h2.8v2.8h-2.8V42.5z M79.4,42.5h2.8v2.8h-2.8V42.5z
	 M82.2,42.5H85v2.8h-2.8V42.5z M85,42.5h2.8v2.8H85V42.5z M87.9,42.5h2.8v2.8h-2.8V42.5z M93.5,42.5h2.8v2.8h-2.8V42.5z M96.4,42.5
	h2.8v2.8h-2.8V42.5z M99.2,42.5h2.8v2.8h-2.8V42.5z M107.7,42.5h2.8v2.8h-2.8V42.5z M110.6,42.5h2.8v2.8h-2.8V42.5z M113.4,42.5h2.8
	v2.8h-2.8V42.5z M116.2,42.5h2.8v2.8h-2.8V42.5z M119.1,42.5h2.8v2.8h-2.8V42.5z M130.4,42.5h2.8v2.8h-2.8V42.5z M136.1,42.5h2.8
	v2.8h-2.8V42.5z M141.7,42.5h2.8v2.8h-2.8V42.5z M144.6,42.5h2.8v2.8h-2.8V42.5z M147.4,42.5h2.8v2.8h-2.8V42.5z M11.3,45.4h2.8v2.8
	h-2.8V45.4z M14.2,45.4H17v2.8h-2.8V45.4z M17,45.4h2.8v2.8H17V45.4z M22.7,45.4h2.8v2.8h-2.8V45.4z M28.3,45.4h2.8v2.8h-2.8V45.4z
	 M31.2,45.4H34v2.8h-2.8V45.4z M34,45.4h2.8v2.8H34V45.4z M36.9,45.4h2.8v2.8h-2.8V45.4z M45.4,45.4h2.8v2.8h-2.8V45.4z M48.2,45.4
	H51v2.8h-2.8V45.4z M51,45.4h2.8v2.8H51V45.4z M62.4,45.4h2.8v2.8h-2.8V45.4z M68,45.4h2.8v2.8H68V45.4z M93.5,45.4h2.8v2.8h-2.8
	V45.4z M99.2,45.4h2.8v2.8h-2.8V45.4z M104.9,45.4h2.8v2.8h-2.8V45.4z M107.7,45.4h2.8v2.8h-2.8V45.4z M113.4,45.4h2.8v2.8h-2.8
	V45.4z M119.1,45.4h2.8v2.8h-2.8V45.4z M121.9,45.4h2.8v2.8h-2.8V45.4z M124.7,45.4h2.8v2.8h-2.8V45.4z M127.6,45.4h2.8v2.8h-2.8
	V45.4z M130.4,45.4h2.8v2.8h-2.8V45.4z M138.9,45.4h2.8v2.8h-2.8V45.4z M11.3,48.2h2.8V51h-2.8V48.2z M25.5,48.2h2.8V51h-2.8V48.2z
	 M31.2,48.2H34V51h-2.8V48.2z M39.7,48.2h2.8V51h-2.8V48.2z M48.2,48.2H51V51h-2.8V48.2z M110.6,48.2h2.8V51h-2.8V48.2z M113.4,48.2
	h2.8V51h-2.8V48.2z M116.2,48.2h2.8V51h-2.8V48.2z M119.1,48.2h2.8V51h-2.8V48.2z M121.9,48.2h2.8V51h-2.8V48.2z M130.4,48.2h2.8V51
	h-2.8V48.2z M136.1,48.2h2.8V51h-2.8V48.2z M138.9,48.2h2.8V51h-2.8V48.2z M14.2,51H17v2.8h-2.8V51z M25.5,51h2.8v2.8h-2.8V51z
	 M28.3,51h2.8v2.8h-2.8V51z M31.2,51H34v2.8h-2.8V51z M34,51h2.8v2.8H34V51z M39.7,51h2.8v2.8h-2.8V51z M45.4,51h2.8v2.8h-2.8V51z
	 M113.4,51h2.8v2.8h-2.8V51z M121.9,51h2.8v2.8h-2.8V51z M124.7,51h2.8v2.8h-2.8V51z M127.6,51h2.8v2.8h-2.8V51z M130.4,51h2.8v2.8
	h-2.8V51z M144.6,51h2.8v2.8h-2.8V51z M147.4,51h2.8v2.8h-2.8V51z M14.2,53.9H17v2.8h-2.8V53.9z M17,53.9h2.8v2.8H17V53.9z
	 M22.7,53.9h2.8v2.8h-2.8V53.9z M36.9,53.9h2.8v2.8h-2.8V53.9z M39.7,53.9h2.8v2.8h-2.8V53.9z M113.4,53.9h2.8v2.8h-2.8V53.9z
	 M121.9,53.9h2.8v2.8h-2.8V53.9z M124.7,53.9h2.8v2.8h-2.8V53.9z M127.6,53.9h2.8v2.8h-2.8V53.9z M136.1,53.9h2.8v2.8h-2.8V53.9z
	 M138.9,53.9h2.8v2.8h-2.8V53.9z M147.4,53.9h2.8v2.8h-2.8V53.9z M11.3,56.7h2.8v2.8h-2.8V56.7z M14.2,56.7H17v2.8h-2.8V56.7z
	 M17,56.7h2.8v2.8H17V56.7z M19.8,56.7h2.8v2.8h-2.8V56.7z M25.5,56.7h2.8v2.8h-2.8V56.7z M28.3,56.7h2.8v2.8h-2.8V56.7z M31.2,56.7
	H34v2.8h-2.8V56.7z M34,56.7h2.8v2.8H34V56.7z M113.4,56.7h2.8v2.8h-2.8V56.7z M116.2,56.7h2.8v2.8h-2.8V56.7z M121.9,56.7h2.8v2.8
	h-2.8V56.7z M133.2,56.7h2.8v2.8h-2.8V56.7z M144.6,56.7h2.8v2.8h-2.8V56.7z M147.4,56.7h2.8v2.8h-2.8V56.7z M11.3,59.5h2.8v2.8
	h-2.8V59.5z M17,59.5h2.8v2.8H17V59.5z M19.8,59.5h2.8v2.8h-2.8V59.5z M34,59.5h2.8v2.8H34V59.5z M39.7,59.5h2.8v2.8h-2.8V59.5z
	 M42.5,59.5h2.8v2.8h-2.8V59.5z M45.4,59.5h2.8v2.8h-2.8V59.5z M113.4,59.5h2.8v2.8h-2.8V59.5z M124.7,59.5h2.8v2.8h-2.8V59.5z
	 M127.6,59.5h2.8v2.8h-2.8V59.5z M133.2,59.5h2.8v2.8h-2.8V59.5z M136.1,59.5h2.8v2.8h-2.8V59.5z M138.9,59.5h2.8v2.8h-2.8V59.5z
	 M141.7,59.5h2.8v2.8h-2.8V59.5z M14.2,62.4H17v2.8h-2.8V62.4z M19.8,62.4h2.8v2.8h-2.8V62.4z M22.7,62.4h2.8v2.8h-2.8V62.4z
	 M28.3,62.4h2.8v2.8h-2.8V62.4z M34,62.4h2.8v2.8H34V62.4z M36.9,62.4h2.8v2.8h-2.8V62.4z M39.7,62.4h2.8v2.8h-2.8V62.4z
	 M113.4,62.4h2.8v2.8h-2.8V62.4z M116.2,62.4h2.8v2.8h-2.8V62.4z M121.9,62.4h2.8v2.8h-2.8V62.4z M124.7,62.4h2.8v2.8h-2.8V62.4z
	 M130.4,62.4h2.8v2.8h-2.8V62.4z M133.2,62.4h2.8v2.8h-2.8V62.4z M136.1,62.4h2.8v2.8h-2.8V62.4z M138.9,62.4h2.8v2.8h-2.8V62.4z
	 M147.4,62.4h2.8v2.8h-2.8V62.4z M11.3,65.2h2.8V68h-2.8V65.2z M14.2,65.2H17V68h-2.8V65.2z M22.7,65.2h2.8V68h-2.8V65.2z
	 M25.5,65.2h2.8V68h-2.8V65.2z M42.5,65.2h2.8V68h-2.8V65.2z M116.2,65.2h2.8V68h-2.8V65.2z M119.1,65.2h2.8V68h-2.8V65.2z
	 M124.7,65.2h2.8V68h-2.8V65.2z M130.4,65.2h2.8V68h-2.8V65.2z M133.2,65.2h2.8V68h-2.8V65.2z M136.1,65.2h2.8V68h-2.8V65.2z
	 M11.3,68h2.8v2.8h-2.8V68z M14.2,68H17v2.8h-2.8V68z M22.7,68h2.8v2.8h-2.8V68z M28.3,68h2.8v2.8h-2.8V68z M31.2,68H34v2.8h-2.8V68
	z M34,68h2.8v2.8H34V68z M39.7,68h2.8v2.8h-2.8V68z M113.4,68h2.8v2.8h-2.8V68z M116.2,68h2.8v2.8h-2.8V68z M119.1,68h2.8v2.8h-2.8
	V68z M130.4,68h2.8v2.8h-2.8V68z M133.2,68h2.8v2.8h-2.8V68z M141.7,68h2.8v2.8h-2.8V68z M147.4,68h2.8v2.8h-2.8V68z M14.2,70.9H17
	v2.8h-2.8V70.9z M19.8,70.9h2.8v2.8h-2.8V70.9z M22.7,70.9h2.8v2.8h-2.8V70.9z M25.5,70.9h2.8v2.8h-2.8V70.9z M34,70.9h2.8v2.8H34
	V70.9z M36.9,70.9h2.8v2.8h-2.8V70.9z M39.7,70.9h2.8v2.8h-2.8V70.9z M113.4,70.9h2.8v2.8h-2.8V70.9z M121.9,70.9h2.8v2.8h-2.8V70.9
	z M127.6,70.9h2.8v2.8h-2.8V70.9z M130.4,70.9h2.8v2.8h-2.8V70.9z M141.7,70.9h2.8v2.8h-2.8V70.9z M14.2,73.7H17v2.8h-2.8V73.7z
	 M22.7,73.7h2.8v2.8h-2.8V73.7z M25.5,73.7h2.8v2.8h-2.8V73.7z M28.3,73.7h2.8v2.8h-2.8V73.7z M31.2,73.7H34v2.8h-2.8V73.7z
	 M34,73.7h2.8v2.8H34V73.7z M36.9,73.7h2.8v2.8h-2.8V73.7z M113.4,73.7h2.8v2.8h-2.8V73.7z M119.1,73.7h2.8v2.8h-2.8V73.7z
	 M124.7,73.7h2.8v2.8h-2.8V73.7z M127.6,73.7h2.8v2.8h-2.8V73.7z M130.4,73.7h2.8v2.8h-2.8V73.7z M133.2,73.7h2.8v2.8h-2.8V73.7z
	 M136.1,73.7h2.8v2.8h-2.8V73.7z M138.9,73.7h2.8v2.8h-2.8V73.7z M141.7,73.7h2.8v2.8h-2.8V73.7z M144.6,73.7h2.8v2.8h-2.8V73.7z
	 M147.4,73.7h2.8v2.8h-2.8V73.7z M11.3,76.5h2.8v2.8h-2.8V76.5z M22.7,76.5h2.8v2.8h-2.8V76.5z M34,76.5h2.8v2.8H34V76.5z
	 M39.7,76.5h2.8v2.8h-2.8V76.5z M121.9,76.5h2.8v2.8h-2.8V76.5z M124.7,76.5h2.8v2.8h-2.8V76.5z M136.1,76.5h2.8v2.8h-2.8V76.5z
	 M144.6,76.5h2.8v2.8h-2.8V76.5z M19.8,79.4h2.8v2.8h-2.8V79.4z M22.7,79.4h2.8v2.8h-2.8V79.4z M28.3,79.4h2.8v2.8h-2.8V79.4z
	 M34,79.4h2.8v2.8H34V79.4z M39.7,79.4h2.8v2.8h-2.8V79.4z M113.4,79.4h2.8v2.8h-2.8V79.4z M119.1,79.4h2.8v2.8h-2.8V79.4z
	 M121.9,79.4h2.8v2.8h-2.8V79.4z M124.7,79.4h2.8v2.8h-2.8V79.4z M130.4,79.4h2.8v2.8h-2.8V79.4z M136.1,79.4h2.8v2.8h-2.8V79.4z
	 M138.9,79.4h2.8v2.8h-2.8V79.4z M141.7,79.4h2.8v2.8h-2.8V79.4z M14.2,82.2H17V85h-2.8V82.2z M17,82.2h2.8V85H17V82.2z M22.7,82.2
	h2.8V85h-2.8V82.2z M34,82.2h2.8V85H34V82.2z M36.9,82.2h2.8V85h-2.8V82.2z M116.2,82.2h2.8V85h-2.8V82.2z M121.9,82.2h2.8V85h-2.8
	V82.2z M124.7,82.2h2.8V85h-2.8V82.2z M136.1,82.2h2.8V85h-2.8V82.2z M141.7,82.2h2.8V85h-2.8V82.2z M147.4,82.2h2.8V85h-2.8V82.2z
	 M14.2,85H17v2.8h-2.8V85z M22.7,85h2.8v2.8h-2.8V85z M25.5,85h2.8v2.8h-2.8V85z M28.3,85h2.8v2.8h-2.8V85z M31.2,85H34v2.8h-2.8V85
	z M34,85h2.8v2.8H34V85z M39.7,85h2.8v2.8h-2.8V85z M45.4,85h2.8v2.8h-2.8V85z M48.2,85H51v2.8h-2.8V85z M110.6,85h2.8v2.8h-2.8V85z
	 M119.1,85h2.8v2.8h-2.8V85z M124.7,85h2.8v2.8h-2.8V85z M127.6,85h2.8v2.8h-2.8V85z M130.4,85h2.8v2.8h-2.8V85z M133.2,85h2.8v2.8
	h-2.8V85z M136.1,85h2.8v2.8h-2.8V85z M138.9,85h2.8v2.8h-2.8V85z M144.6,85h2.8v2.8h-2.8V85z M17,87.9h2.8v2.8H17V87.9z M25.5,87.9
	h2.8v2.8h-2.8V87.9z M31.2,87.9H34v2.8h-2.8V87.9z M36.9,87.9h2.8v2.8h-2.8V87.9z M39.7,87.9h2.8v2.8h-2.8V87.9z M45.4,87.9h2.8v2.8
	h-2.8V87.9z M121.9,87.9h2.8v2.8h-2.8V87.9z M127.6,87.9h2.8v2.8h-2.8V87.9z M133.2,87.9h2.8v2.8h-2.8V87.9z M11.3,90.7h2.8v2.8
	h-2.8V90.7z M22.7,90.7h2.8v2.8h-2.8V90.7z M25.5,90.7h2.8v2.8h-2.8V90.7z M28.3,90.7h2.8v2.8h-2.8V90.7z M31.2,90.7H34v2.8h-2.8
	V90.7z M39.7,90.7h2.8v2.8h-2.8V90.7z M45.4,90.7h2.8v2.8h-2.8V90.7z M51,90.7h2.8v2.8H51V90.7z M107.7,90.7h2.8v2.8h-2.8V90.7z
	 M110.6,90.7h2.8v2.8h-2.8V90.7z M113.4,90.7h2.8v2.8h-2.8V90.7z M116.2,90.7h2.8v2.8h-2.8V90.7z M121.9,90.7h2.8v2.8h-2.8V90.7z
	 M124.7,90.7h2.8v2.8h-2.8V90.7z M127.6,90.7h2.8v2.8h-2.8V90.7z M133.2,90.7h2.8v2.8h-2.8V90.7z M138.9,90.7h2.8v2.8h-2.8V90.7z
	 M141.7,90.7h2.8v2.8h-2.8V90.7z M144.6,90.7h2.8v2.8h-2.8V90.7z M25.5,93.5h2.8v2.8h-2.8V93.5z M31.2,93.5H34v2.8h-2.8V93.5z
	 M36.9,93.5h2.8v2.8h-2.8V93.5z M48.2,93.5H51v2.8h-2.8V93.5z M51,93.5h2.8v2.8H51V93.5z M110.6,93.5h2.8v2.8h-2.8V93.5z
	 M116.2,93.5h2.8v2.8h-2.8V93.5z M121.9,93.5h2.8v2.8h-2.8V93.5z M127.6,93.5h2.8v2.8h-2.8V93.5z M130.4,93.5h2.8v2.8h-2.8V93.5z
	 M141.7,93.5h2.8v2.8h-2.8V93.5z M144.6,93.5h2.8v2.8h-2.8V93.5z M147.4,93.5h2.8v2.8h-2.8V93.5z M22.7,96.4h2.8v2.8h-2.8V96.4z
	 M28.3,96.4h2.8v2.8h-2.8V96.4z M34,96.4h2.8v2.8H34V96.4z M42.5,96.4h2.8v2.8h-2.8V96.4z M51,96.4h2.8v2.8H51V96.4z M104.9,96.4
	h2.8v2.8h-2.8V96.4z M107.7,96.4h2.8v2.8h-2.8V96.4z M110.6,96.4h2.8v2.8h-2.8V96.4z M113.4,96.4h2.8v2.8h-2.8V96.4z M116.2,96.4
	h2.8v2.8h-2.8V96.4z M119.1,96.4h2.8v2.8h-2.8V96.4z M121.9,96.4h2.8v2.8h-2.8V96.4z M130.4,96.4h2.8v2.8h-2.8V96.4z M133.2,96.4
	h2.8v2.8h-2.8V96.4z M141.7,96.4h2.8v2.8h-2.8V96.4z M147.4,96.4h2.8v2.8h-2.8V96.4z M11.3,99.2h2.8v2.8h-2.8V99.2z M14.2,99.2H17
	v2.8h-2.8V99.2z M17,99.2h2.8v2.8H17V99.2z M34,99.2h2.8v2.8H34V99.2z M36.9,99.2h2.8v2.8h-2.8V99.2z M48.2,99.2H51v2.8h-2.8V99.2z
	 M51,99.2h2.8v2.8H51V99.2z M104.9,99.2h2.8v2.8h-2.8V99.2z M110.6,99.2h2.8v2.8h-2.8V99.2z M113.4,99.2h2.8v2.8h-2.8V99.2z
	 M124.7,99.2h2.8v2.8h-2.8V99.2z M138.9,99.2h2.8v2.8h-2.8V99.2z M144.6,99.2h2.8v2.8h-2.8V99.2z M147.4,99.2h2.8v2.8h-2.8V99.2z
	 M14.2,102H17v2.8h-2.8V102z M19.8,102h2.8v2.8h-2.8V102z M28.3,102h2.8v2.8h-2.8V102z M31.2,102H34v2.8h-2.8V102z M34,102h2.8v2.8
	H34V102z M39.7,102h2.8v2.8h-2.8V102z M45.4,102h2.8v2.8h-2.8V102z M51,102h2.8v2.8H51V102z M53.9,102h2.8v2.8h-2.8V102z M56.7,102
	h2.8v2.8h-2.8V102z M113.4,102h2.8v2.8h-2.8V102z M116.2,102h2.8v2.8h-2.8V102z M121.9,102h2.8v2.8h-2.8V102z M124.7,102h2.8v2.8
	h-2.8V102z M127.6,102h2.8v2.8h-2.8V102z M138.9,102h2.8v2.8h-2.8V102z M147.4,102h2.8v2.8h-2.8V102z M11.3,104.9h2.8v2.8h-2.8
	V104.9z M14.2,104.9H17v2.8h-2.8V104.9z M17,104.9h2.8v2.8H17V104.9z M19.8,104.9h2.8v2.8h-2.8V104.9z M25.5,104.9h2.8v2.8h-2.8
	V104.9z M34,104.9h2.8v2.8H34V104.9z M36.9,104.9h2.8v2.8h-2.8V104.9z M51,104.9h2.8v2.8H51V104.9z M53.9,104.9h2.8v2.8h-2.8V104.9z
	 M59.5,104.9h2.8v2.8h-2.8V104.9z M99.2,104.9h2.8v2.8h-2.8V104.9z M104.9,104.9h2.8v2.8h-2.8V104.9z M110.6,104.9h2.8v2.8h-2.8
	V104.9z M113.4,104.9h2.8v2.8h-2.8V104.9z M127.6,104.9h2.8v2.8h-2.8V104.9z M133.2,104.9h2.8v2.8h-2.8V104.9z M136.1,104.9h2.8v2.8
	h-2.8V104.9z M138.9,104.9h2.8v2.8h-2.8V104.9z M144.6,104.9h2.8v2.8h-2.8V104.9z M17,107.7h2.8v2.8H17V107.7z M22.7,107.7h2.8v2.8
	h-2.8V107.7z M25.5,107.7h2.8v2.8h-2.8V107.7z M28.3,107.7h2.8v2.8h-2.8V107.7z M31.2,107.7H34v2.8h-2.8V107.7z M36.9,107.7h2.8v2.8
	h-2.8V107.7z M39.7,107.7h2.8v2.8h-2.8V107.7z M42.5,107.7h2.8v2.8h-2.8V107.7z M48.2,107.7H51v2.8h-2.8V107.7z M51,107.7h2.8v2.8
	H51V107.7z M59.5,107.7h2.8v2.8h-2.8V107.7z M113.4,107.7h2.8v2.8h-2.8V107.7z M116.2,107.7h2.8v2.8h-2.8V107.7z M121.9,107.7h2.8
	v2.8h-2.8V107.7z M124.7,107.7h2.8v2.8h-2.8V107.7z M127.6,107.7h2.8v2.8h-2.8V107.7z M130.4,107.7h2.8v2.8h-2.8V107.7z
	 M136.1,107.7h2.8v2.8h-2.8V107.7z M144.6,107.7h2.8v2.8h-2.8V107.7z M147.4,107.7h2.8v2.8h-2.8V107.7z M11.3,110.6h2.8v2.8h-2.8
	V110.6z M19.8,110.6h2.8v2.8h-2.8V110.6z M22.7,110.6h2.8v2.8h-2.8V110.6z M34,110.6h2.8v2.8H34V110.6z M36.9,110.6h2.8v2.8h-2.8
	V110.6z M45.4,110.6h2.8v2.8h-2.8V110.6z M48.2,110.6H51v2.8h-2.8V110.6z M53.9,110.6h2.8v2.8h-2.8V110.6z M56.7,110.6h2.8v2.8h-2.8
	V110.6z M59.5,110.6h2.8v2.8h-2.8V110.6z M68,110.6h2.8v2.8H68V110.6z M90.7,110.6h2.8v2.8h-2.8V110.6z M93.5,110.6h2.8v2.8h-2.8
	V110.6z M104.9,110.6h2.8v2.8h-2.8V110.6z M113.4,110.6h2.8v2.8h-2.8V110.6z M124.7,110.6h2.8v2.8h-2.8V110.6z M127.6,110.6h2.8v2.8
	h-2.8V110.6z M133.2,110.6h2.8v2.8h-2.8V110.6z M136.1,110.6h2.8v2.8h-2.8V110.6z M138.9,110.6h2.8v2.8h-2.8V110.6z M147.4,110.6
	h2.8v2.8h-2.8V110.6z M14.2,113.4H17v2.8h-2.8V113.4z M25.5,113.4h2.8v2.8h-2.8V113.4z M28.3,113.4h2.8v2.8h-2.8V113.4z M31.2,113.4
	H34v2.8h-2.8V113.4z M42.5,113.4h2.8v2.8h-2.8V113.4z M45.4,113.4h2.8v2.8h-2.8V113.4z M53.9,113.4h2.8v2.8h-2.8V113.4z M68,113.4
	h2.8v2.8H68V113.4z M73.7,113.4h2.8v2.8h-2.8V113.4z M76.5,113.4h2.8v2.8h-2.8V113.4z M85,113.4h2.8v2.8H85V113.4z M87.9,113.4h2.8
	v2.8h-2.8V113.4z M90.7,113.4h2.8v2.8h-2.8V113.4z M96.4,113.4h2.8v2.8h-2.8V113.4z M99.2,113.4h2.8v2.8h-2.8V113.4z M102,113.4h2.8
	v2.8H102V113.4z M110.6,113.4h2.8v2.8h-2.8V113.4z M116.2,113.4h2.8v2.8h-2.8V113.4z M121.9,113.4h2.8v2.8h-2.8V113.4z M124.7,113.4
	h2.8v2.8h-2.8V113.4z M127.6,113.4h2.8v2.8h-2.8V113.4z M144.6,113.4h2.8v2.8h-2.8V113.4z M147.4,113.4h2.8v2.8h-2.8V113.4z
	 M14.2,116.2H17v2.8h-2.8V116.2z M19.8,116.2h2.8v2.8h-2.8V116.2z M25.5,116.2h2.8v2.8h-2.8V116.2z M31.2,116.2H34v2.8h-2.8V116.2z
	 M36.9,116.2h2.8v2.8h-2.8V116.2z M39.7,116.2h2.8v2.8h-2.8V116.2z M42.5,116.2h2.8v2.8h-2.8V116.2z M45.4,116.2h2.8v2.8h-2.8V116.2
	z M48.2,116.2H51v2.8h-2.8V116.2z M51,116.2h2.8v2.8H51V116.2z M53.9,116.2h2.8v2.8h-2.8V116.2z M62.4,116.2h2.8v2.8h-2.8V116.2z
	 M73.7,116.2h2.8v2.8h-2.8V116.2z M79.4,116.2h2.8v2.8h-2.8V116.2z M82.2,116.2H85v2.8h-2.8V116.2z M90.7,116.2h2.8v2.8h-2.8V116.2z
	 M93.5,116.2h2.8v2.8h-2.8V116.2z M102,116.2h2.8v2.8H102V116.2z M104.9,116.2h2.8v2.8h-2.8V116.2z M124.7,116.2h2.8v2.8h-2.8V116.2
	z M133.2,116.2h2.8v2.8h-2.8V116.2z M136.1,116.2h2.8v2.8h-2.8V116.2z M141.7,116.2h2.8v2.8h-2.8V116.2z M144.6,116.2h2.8v2.8h-2.8
	V116.2z M14.2,119.1H17v2.8h-2.8V119.1z M25.5,119.1h2.8v2.8h-2.8V119.1z M28.3,119.1h2.8v2.8h-2.8V119.1z M31.2,119.1H34v2.8h-2.8
	V119.1z M36.9,119.1h2.8v2.8h-2.8V119.1z M45.4,119.1h2.8v2.8h-2.8V119.1z M53.9,119.1h2.8v2.8h-2.8V119.1z M56.7,119.1h2.8v2.8
	h-2.8V119.1z M62.4,119.1h2.8v2.8h-2.8V119.1z M68,119.1h2.8v2.8H68V119.1z M73.7,119.1h2.8v2.8h-2.8V119.1z M76.5,119.1h2.8v2.8
	h-2.8V119.1z M87.9,119.1h2.8v2.8h-2.8V119.1z M96.4,119.1h2.8v2.8h-2.8V119.1z M99.2,119.1h2.8v2.8h-2.8V119.1z M102,119.1h2.8v2.8
	H102V119.1z M110.6,119.1h2.8v2.8h-2.8V119.1z M116.2,119.1h2.8v2.8h-2.8V119.1z M124.7,119.1h2.8v2.8h-2.8V119.1z M127.6,119.1h2.8
	v2.8h-2.8V119.1z M136.1,119.1h2.8v2.8h-2.8V119.1z M138.9,119.1h2.8v2.8h-2.8V119.1z M141.7,119.1h2.8v2.8h-2.8V119.1z
	 M144.6,119.1h2.8v2.8h-2.8V119.1z M147.4,119.1h2.8v2.8h-2.8V119.1z M14.2,121.9H17v2.8h-2.8V121.9z M17,121.9h2.8v2.8H17V121.9z
	 M19.8,121.9h2.8v2.8h-2.8V121.9z M31.2,121.9H34v2.8h-2.8V121.9z M42.5,121.9h2.8v2.8h-2.8V121.9z M51,121.9h2.8v2.8H51V121.9z
	 M68,121.9h2.8v2.8H68V121.9z M70.9,121.9h2.8v2.8h-2.8V121.9z M73.7,121.9h2.8v2.8h-2.8V121.9z M79.4,121.9h2.8v2.8h-2.8V121.9z
	 M85,121.9h2.8v2.8H85V121.9z M87.9,121.9h2.8v2.8h-2.8V121.9z M90.7,121.9h2.8v2.8h-2.8V121.9z M93.5,121.9h2.8v2.8h-2.8V121.9z
	 M107.7,121.9h2.8v2.8h-2.8V121.9z M113.4,121.9h2.8v2.8h-2.8V121.9z M116.2,121.9h2.8v2.8h-2.8V121.9z M119.1,121.9h2.8v2.8h-2.8
	V121.9z M130.4,121.9h2.8v2.8h-2.8V121.9z M133.2,121.9h2.8v2.8h-2.8V121.9z M136.1,121.9h2.8v2.8h-2.8V121.9z M141.7,121.9h2.8v2.8
	h-2.8V121.9z M11.3,124.7h2.8v2.8h-2.8V124.7z M14.2,124.7H17v2.8h-2.8V124.7z M17,124.7h2.8v2.8H17V124.7z M28.3,124.7h2.8v2.8
	h-2.8V124.7z M31.2,124.7H34v2.8h-2.8V124.7z M39.7,124.7h2.8v2.8h-2.8V124.7z M42.5,124.7h2.8v2.8h-2.8V124.7z M51,124.7h2.8v2.8
	H51V124.7z M59.5,124.7h2.8v2.8h-2.8V124.7z M62.4,124.7h2.8v2.8h-2.8V124.7z M73.7,124.7h2.8v2.8h-2.8V124.7z M76.5,124.7h2.8v2.8
	h-2.8V124.7z M79.4,124.7h2.8v2.8h-2.8V124.7z M82.2,124.7H85v2.8h-2.8V124.7z M85,124.7h2.8v2.8H85V124.7z M87.9,124.7h2.8v2.8
	h-2.8V124.7z M90.7,124.7h2.8v2.8h-2.8V124.7z M93.5,124.7h2.8v2.8h-2.8V124.7z M99.2,124.7h2.8v2.8h-2.8V124.7z M102,124.7h2.8v2.8
	H102V124.7z M104.9,124.7h2.8v2.8h-2.8V124.7z M107.7,124.7h2.8v2.8h-2.8V124.7z M110.6,124.7h2.8v2.8h-2.8V124.7z M119.1,124.7h2.8
	v2.8h-2.8V124.7z M121.9,124.7h2.8v2.8h-2.8V124.7z M124.7,124.7h2.8v2.8h-2.8V124.7z M127.6,124.7h2.8v2.8h-2.8V124.7z
	 M130.4,124.7h2.8v2.8h-2.8V124.7z M133.2,124.7h2.8v2.8h-2.8V124.7z M136.1,124.7h2.8v2.8h-2.8V124.7z M138.9,124.7h2.8v2.8h-2.8
	V124.7z M147.4,124.7h2.8v2.8h-2.8V124.7z M34,127.6h2.8v2.8H34V127.6z M39.7,127.6h2.8v2.8h-2.8V127.6z M51,127.6h2.8v2.8H51V127.6
	z M53.9,127.6h2.8v2.8h-2.8V127.6z M56.7,127.6h2.8v2.8h-2.8V127.6z M59.5,127.6h2.8v2.8h-2.8V127.6z M62.4,127.6h2.8v2.8h-2.8
	V127.6z M73.7,127.6h2.8v2.8h-2.8V127.6z M85,127.6h2.8v2.8H85V127.6z M87.9,127.6h2.8v2.8h-2.8V127.6z M90.7,127.6h2.8v2.8h-2.8
	V127.6z M102,127.6h2.8v2.8H102V127.6z M107.7,127.6h2.8v2.8h-2.8V127.6z M116.2,127.6h2.8v2.8h-2.8V127.6z M119.1,127.6h2.8v2.8
	h-2.8V127.6z M124.7,127.6h2.8v2.8h-2.8V127.6z M136.1,127.6h2.8v2.8h-2.8V127.6z M11.3,130.4h2.8v2.8h-2.8V130.4z M14.2,130.4H17
	v2.8h-2.8V130.4z M17,130.4h2.8v2.8H17V130.4z M19.8,130.4h2.8v2.8h-2.8V130.4z M22.7,130.4h2.8v2.8h-2.8V130.4z M25.5,130.4h2.8
	v2.8h-2.8V130.4z M28.3,130.4h2.8v2.8h-2.8V130.4z M36.9,130.4h2.8v2.8h-2.8V130.4z M39.7,130.4h2.8v2.8h-2.8V130.4z M42.5,130.4
	h2.8v2.8h-2.8V130.4z M45.4,130.4h2.8v2.8h-2.8V130.4z M53.9,130.4h2.8v2.8h-2.8V130.4z M56.7,130.4h2.8v2.8h-2.8V130.4z
	 M59.5,130.4h2.8v2.8h-2.8V130.4z M68,130.4h2.8v2.8H68V130.4z M70.9,130.4h2.8v2.8h-2.8V130.4z M73.7,130.4h2.8v2.8h-2.8V130.4z
	 M79.4,130.4h2.8v2.8h-2.8V130.4z M85,130.4h2.8v2.8H85V130.4z M87.9,130.4h2.8v2.8h-2.8V130.4z M96.4,130.4h2.8v2.8h-2.8V130.4z
	 M99.2,130.4h2.8v2.8h-2.8V130.4z M102,130.4h2.8v2.8H102V130.4z M104.9,130.4h2.8v2.8h-2.8V130.4z M110.6,130.4h2.8v2.8h-2.8V130.4
	z M124.7,130.4h2.8v2.8h-2.8V130.4z M130.4,130.4h2.8v2.8h-2.8V130.4z M136.1,130.4h2.8v2.8h-2.8V130.4z M138.9,130.4h2.8v2.8h-2.8
	V130.4z M144.6,130.4h2.8v2.8h-2.8V130.4z M147.4,130.4h2.8v2.8h-2.8V130.4z M11.3,133.2h2.8v2.8h-2.8V133.2z M28.3,133.2h2.8v2.8
	h-2.8V133.2z M36.9,133.2h2.8v2.8h-2.8V133.2z M42.5,133.2h2.8v2.8h-2.8V133.2z M45.4,133.2h2.8v2.8h-2.8V133.2z M53.9,133.2h2.8
	v2.8h-2.8V133.2z M56.7,133.2h2.8v2.8h-2.8V133.2z M59.5,133.2h2.8v2.8h-2.8V133.2z M62.4,133.2h2.8v2.8h-2.8V133.2z M65.2,133.2H68
	v2.8h-2.8V133.2z M68,133.2h2.8v2.8H68V133.2z M70.9,133.2h2.8v2.8h-2.8V133.2z M73.7,133.2h2.8v2.8h-2.8V133.2z M85,133.2h2.8v2.8
	H85V133.2z M87.9,133.2h2.8v2.8h-2.8V133.2z M93.5,133.2h2.8v2.8h-2.8V133.2z M96.4,133.2h2.8v2.8h-2.8V133.2z M99.2,133.2h2.8v2.8
	h-2.8V133.2z M102,133.2h2.8v2.8H102V133.2z M104.9,133.2h2.8v2.8h-2.8V133.2z M107.7,133.2h2.8v2.8h-2.8V133.2z M110.6,133.2h2.8
	v2.8h-2.8V133.2z M116.2,133.2h2.8v2.8h-2.8V133.2z M119.1,133.2h2.8v2.8h-2.8V133.2z M121.9,133.2h2.8v2.8h-2.8V133.2z
	 M124.7,133.2h2.8v2.8h-2.8V133.2z M136.1,133.2h2.8v2.8h-2.8V133.2z M144.6,133.2h2.8v2.8h-2.8V133.2z M147.4,133.2h2.8v2.8h-2.8
	V133.2z M11.3,136.1h2.8v2.8h-2.8V136.1z M17,136.1h2.8v2.8H17V136.1z M19.8,136.1h2.8v2.8h-2.8V136.1z M22.7,136.1h2.8v2.8h-2.8
	V136.1z M28.3,136.1h2.8v2.8h-2.8V136.1z M34,136.1h2.8v2.8H34V136.1z M36.9,136.1h2.8v2.8h-2.8V136.1z M53.9,136.1h2.8v2.8h-2.8
	V136.1z M59.5,136.1h2.8v2.8h-2.8V136.1z M68,136.1h2.8v2.8H68V136.1z M70.9,136.1h2.8v2.8h-2.8V136.1z M73.7,136.1h2.8v2.8h-2.8
	V136.1z M76.5,136.1h2.8v2.8h-2.8V136.1z M79.4,136.1h2.8v2.8h-2.8V136.1z M82.2,136.1H85v2.8h-2.8V136.1z M85,136.1h2.8v2.8H85
	V136.1z M90.7,136.1h2.8v2.8h-2.8V136.1z M93.5,136.1h2.8v2.8h-2.8V136.1z M96.4,136.1h2.8v2.8h-2.8V136.1z M99.2,136.1h2.8v2.8
	h-2.8V136.1z M104.9,136.1h2.8v2.8h-2.8V136.1z M110.6,136.1h2.8v2.8h-2.8V136.1z M113.4,136.1h2.8v2.8h-2.8V136.1z M116.2,136.1
	h2.8v2.8h-2.8V136.1z M119.1,136.1h2.8v2.8h-2.8V136.1z M121.9,136.1h2.8v2.8h-2.8V136.1z M124.7,136.1h2.8v2.8h-2.8V136.1z
	 M127.6,136.1h2.8v2.8h-2.8V136.1z M130.4,136.1h2.8v2.8h-2.8V136.1z M133.2,136.1h2.8v2.8h-2.8V136.1z M136.1,136.1h2.8v2.8h-2.8
	V136.1z M141.7,136.1h2.8v2.8h-2.8V136.1z M144.6,136.1h2.8v2.8h-2.8V136.1z M147.4,136.1h2.8v2.8h-2.8V136.1z M11.3,138.9h2.8v2.8
	h-2.8V138.9z M17,138.9h2.8v2.8H17V138.9z M19.8,138.9h2.8v2.8h-2.8V138.9z M22.7,138.9h2.8v2.8h-2.8V138.9z M28.3,138.9h2.8v2.8
	h-2.8V138.9z M34,138.9h2.8v2.8H34V138.9z M36.9,138.9h2.8v2.8h-2.8V138.9z M39.7,138.9h2.8v2.8h-2.8V138.9z M42.5,138.9h2.8v2.8
	h-2.8V138.9z M45.4,138.9h2.8v2.8h-2.8V138.9z M48.2,138.9H51v2.8h-2.8V138.9z M53.9,138.9h2.8v2.8h-2.8V138.9z M56.7,138.9h2.8v2.8
	h-2.8V138.9z M59.5,138.9h2.8v2.8h-2.8V138.9z M62.4,138.9h2.8v2.8h-2.8V138.9z M70.9,138.9h2.8v2.8h-2.8V138.9z M79.4,138.9h2.8
	v2.8h-2.8V138.9z M85,138.9h2.8v2.8H85V138.9z M87.9,138.9h2.8v2.8h-2.8V138.9z M93.5,138.9h2.8v2.8h-2.8V138.9z M99.2,138.9h2.8
	v2.8h-2.8V138.9z M116.2,138.9h2.8v2.8h-2.8V138.9z M127.6,138.9h2.8v2.8h-2.8V138.9z M136.1,138.9h2.8v2.8h-2.8V138.9z
	 M138.9,138.9h2.8v2.8h-2.8V138.9z M11.3,141.7h2.8v2.8h-2.8V141.7z M17,141.7h2.8v2.8H17V141.7z M19.8,141.7h2.8v2.8h-2.8V141.7z
	 M22.7,141.7h2.8v2.8h-2.8V141.7z M28.3,141.7h2.8v2.8h-2.8V141.7z M34,141.7h2.8v2.8H34V141.7z M39.7,141.7h2.8v2.8h-2.8V141.7z
	 M45.4,141.7h2.8v2.8h-2.8V141.7z M48.2,141.7H51v2.8h-2.8V141.7z M53.9,141.7h2.8v2.8h-2.8V141.7z M56.7,141.7h2.8v2.8h-2.8V141.7z
	 M65.2,141.7H68v2.8h-2.8V141.7z M68,141.7h2.8v2.8H68V141.7z M70.9,141.7h2.8v2.8h-2.8V141.7z M73.7,141.7h2.8v2.8h-2.8V141.7z
	 M76.5,141.7h2.8v2.8h-2.8V141.7z M85,141.7h2.8v2.8H85V141.7z M87.9,141.7h2.8v2.8h-2.8V141.7z M90.7,141.7h2.8v2.8h-2.8V141.7z
	 M102,141.7h2.8v2.8H102V141.7z M107.7,141.7h2.8v2.8h-2.8V141.7z M113.4,141.7h2.8v2.8h-2.8V141.7z M119.1,141.7h2.8v2.8h-2.8
	V141.7z M121.9,141.7h2.8v2.8h-2.8V141.7z M133.2,141.7h2.8v2.8h-2.8V141.7z M141.7,141.7h2.8v2.8h-2.8V141.7z M147.4,141.7h2.8v2.8
	h-2.8V141.7z M11.3,144.6h2.8v2.8h-2.8V144.6z M28.3,144.6h2.8v2.8h-2.8V144.6z M36.9,144.6h2.8v2.8h-2.8V144.6z M39.7,144.6h2.8
	v2.8h-2.8V144.6z M53.9,144.6h2.8v2.8h-2.8V144.6z M99.2,144.6h2.8v2.8h-2.8V144.6z M102,144.6h2.8v2.8H102V144.6z M107.7,144.6h2.8
	v2.8h-2.8V144.6z M127.6,144.6h2.8v2.8h-2.8V144.6z M133.2,144.6h2.8v2.8h-2.8V144.6z M147.4,144.6h2.8v2.8h-2.8V144.6z M11.3,147.4
	h2.8v2.8h-2.8V147.4z M14.2,147.4H17v2.8h-2.8V147.4z M17,147.4h2.8v2.8H17V147.4z M19.8,147.4h2.8v2.8h-2.8V147.4z M22.7,147.4h2.8
	v2.8h-2.8V147.4z M25.5,147.4h2.8v2.8h-2.8V147.4z M28.3,147.4h2.8v2.8h-2.8V147.4z M36.9,147.4h2.8v2.8h-2.8V147.4z M51,147.4h2.8
	v2.8H51V147.4z M53.9,147.4h2.8v2.8h-2.8V147.4z M56.7,147.4h2.8v2.8h-2.8V147.4z M59.5,147.4h2.8v2.8h-2.8V147.4z M62.4,147.4h2.8
	v2.8h-2.8V147.4z M68,147.4h2.8v2.8H68V147.4z M70.9,147.4h2.8v2.8h-2.8V147.4z M73.7,147.4h2.8v2.8h-2.8V147.4z M76.5,147.4h2.8
	v2.8h-2.8V147.4z M79.4,147.4h2.8v2.8h-2.8V147.4z M99.2,147.4h2.8v2.8h-2.8V147.4z M107.7,147.4h2.8v2.8h-2.8V147.4z M110.6,147.4
	h2.8v2.8h-2.8V147.4z M113.4,147.4h2.8v2.8h-2.8V147.4z M116.2,147.4h2.8v2.8h-2.8V147.4z M121.9,147.4h2.8v2.8h-2.8V147.4z
	 M130.4,147.4h2.8v2.8h-2.8V147.4z M138.9,147.4h2.8v2.8h-2.8V147.4z M141.7,147.4h2.8v2.8h-2.8V147.4z M144.6,147.4h2.8v2.8h-2.8
	V147.4z M147.4,147.4h2.8v2.8h-2.8V147.4z"/>
</svg>
