<?xml version="1.0" encoding="utf-8"?>
<!-- Generator: Adobe Illustrator 28.1.0, SVG Export Plug-In . SVG Version: 6.00 Build 0)  -->
<svg version="1.1" id="Layer_1" xmlns="http://www.w3.org/2000/svg" xmlns:xlink="http://www.w3.org/1999/xlink" x="0px" y="0px"
	 viewBox="0 0 138.9 170.1" style="enable-background:new 0 0 138.9 170.1;" xml:space="preserve">
<style type="text/css">
	.st0{fill:#141414;}
	.st1{font-family:'Montserrat-Bold';}
	.st2{font-size:12px;}
</style>
<path class="st0" d="M71.2,79.3H76v-0.7h-4.8V79.3z M71.2,81.3H76v-0.7h-4.8V81.3z M71.2,77.3H76v-0.7h-4.8V77.3z M67.7,78.5h-4.8
	v0.7h4.8V78.5z M67.7,80.5h-4.8v0.7h4.8V80.5z M67.7,76.5h-4.8v0.7h4.8V76.5z M75.4,63.7c-2-0.1-4-0.2-5.9-0.2c-2,0-4,0.1-5.9,0.2
	v9.7H44.9c0.8,4.6,2.6,9,5.4,12.7c0.4-0.5,1-0.9,1.7-0.9h11.6v10.1c1.9,0.5,3.9,0.8,5.9,0.8v0.1l0,0v-0.1c2,0,4-0.3,5.9-0.8v-10H87
	c0.7,0,1.3,0.3,1.7,0.8c2.8-3.7,4.7-8.1,5.4-12.7H75.4V63.7L75.4,63.7z M66,66.8l2.5,1.2l0.9-2.6l0.9,2.6l2.5-1.2l-1.1,2.5l2.6,0.9
	l-2.6,0.9l1.2,2.5l-2.5-1.2L69.5,75l-0.9-2.6l-2.5,1.2l1.2-2.5l-2.6-0.9l2.6-0.9L66,66.8z M57.2,82.9l-2.5-1.2l-0.9,2.6l-0.9-2.6
	l-2.5,1.2l1.2-2.5L49,79.5l2.6-0.9l-1.2-2.5l2.5,1.2l0.9-2.6l0.9,2.6l2.5-1.2L56,78.6l2.6,0.9L56,80.4L57.2,82.9z M61.2,82.7h-1.1
	v-0.8h1.1V82.7L61.2,82.7z M61.2,80.5h-1.1v-0.8h1.1V80.5L61.2,80.5z M61.2,78.4h-1.1v-0.8h1.1V78.4L61.2,78.4z M61.2,76.2h-1.1
	v-0.8h1.1V76.2L61.2,76.2z M61.8,82.7V75h4.9c0.1,0,0.2,0,0.3,0c1.1,0,2,0.9,2,1.9v6.5c-0.4-0.4-0.9-0.7-1.5-0.7
	C67.4,82.7,63.3,82.7,61.8,82.7z M72.9,92.8l-2.5-1.2l-0.9,2.6l-0.9-2.6l-2.5,1.2l1.2-2.5l-2.6-0.9l2.6-0.9L66.1,86l2.5,1.2l0.9-2.6
	l0.9,2.6l2.5-1.2l-1.2,2.4l2.6,0.9l-2.6,0.9C71.7,90.3,72.9,92.8,72.9,92.8z M81.7,76l2.5,1.2l0.9-2.6l0.9,2.6l2.5-1.2l-1.2,2.5
	l2.6,0.9l-2.6,0.9l1.2,2.5l-2.4-1.1l-0.9,2.6l-1-2.6l-2.5,1.2l1.2-2.5l-2.6-0.9l2.6-0.9L81.7,76L81.7,76z M77.7,75.4h1.1v0.8h-1.1
	V75.4z M77.7,77.6h1.1v0.8h-1.1V77.6z M77.7,79.7h1.1v0.8h-1.1V79.7z M77.7,81.9h1.1v0.8h-1.1V81.9z M77.1,74.9v7.8h-5.6
	c-0.6,0-1.1,0.3-1.5,0.7v-6.5c0-1.1,0.9-1.9,2-1.9c0.1,0,0.2,0,0.3,0L77.1,74.9L77.1,74.9L77.1,74.9z M86.8,41.9
	c-4.8-1-11.2-2-17.3-2c-9.2,0-18.9,2.3-23.2,3.4c-0.8,0.2-1.5,0.4-1.9,0.5v20.9c2.8-0.4,14.2-2.2,25-2.2c10.8,0,22.2,1.7,25,2.2
	V43.8c-0.4-0.1-1-0.3-1.9-0.5C90.7,42.8,88.7,42.3,86.8,41.9z M60.7,44.1c0.4-0.1-0.4-0.7,0.1-0.7c0.3,0,1.5,0,2.4,0.4
	c0.2,0.1,0.3-0.2,0.6-0.5c0,0,0.1,0,0.2,0c0.3,0.2,0.5,0.5,0.6,0.4c0.9-0.4,2-0.4,2.3-0.4c0.6,0-0.3,0.6,0.1,0.7
	c2,0.5,3.4,2.1,3.4,4.1c0,0.6-0.1,1.1-0.3,1.6c-0.1,0.3-0.4-0.5-0.5,0c-0.2,0.8-0.4,1.5-0.8,2.2c-0.4,0.8-1.1-0.8-1.3-0.4
	c-0.4,0.8-1.3,1.1-1.9,1.2c-0.1,0-0.1,0,0-0.1c0,0,0.2-0.2,0.2-0.5V52c0.5-0.2,0.8-0.7,0.9-1.2s0.3-1.2,0.6-1.6
	c0.5-0.9-0.1-2.1,0-2.3c0.6-0.4,0.8-1.2,0.4-1.8c-0.2-0.4-0.7-0.6-1.1-0.6s-0.7,0.2-1,0.5l0,0c-0.1,0.1-0.2,0.3-0.3,0.4
	c-0.1,0.2-0.1,0.4,0.1,0.5c0.9,0.2,1.5,2.3,1.1,2.9c-0.2,0.3-0.7,1.4-0.7,1.7c0,0.4-0.3,0.7-0.7,0.7c-0.3,0-0.6-0.2-0.7-0.5l0,0
	c0.3-0.2,0.8-0.5,0.8-0.8l-0.1-1.1c0.5,0,0.7-0.3,0.7-0.7l0.1-0.1c0.2-0.1,0.3-0.5-0.1-0.5c-0.5,0.1-1,0.1-1.5,0.2
	c-0.1,0-0.1,0.1-0.1,0.1c0,0.1,0.3,1.4,0.3,1.7l0,0c-0.2,0-0.4,0-0.7,0c-0.1,0-0.4,0-0.7,0l0,0c0.1-0.3,0.4-1.7,0.4-1.7
	c0-0.1,0-0.1,0-0.2c-0.1-0.1-1.4-0.2-1.6-0.3c-0.1,0-0.2,0-0.2,0.1c-0.1,0.2,0.1,0.4,0.3,0.5c0.1,0.4,0.3,0.7,0.7,0.7l0,0
	c0,0.1-0.1,1.1-0.1,1.1c0,0.4,0.6,0.7,0.8,0.8c0,0,0,0,0,0.1C63.3,50.9,63,51,62.7,51c-0.4,0-0.7-0.3-0.7-0.7l0,0
	c0-0.3-0.5-1.4-0.7-1.7c-0.4-0.7,0.2-2.7,1.1-2.9c0.2,0,0.3-0.3,0.2-0.5c-0.4-0.4-0.8-0.9-1.4-0.9c-0.7,0-1.3,0.6-1.3,1.3l0,0
	c0,0.8,0.6,1,0.6,1.2c-0.3,0.8-0.3,1.6,0.1,2.2c0.2,0.4,0.4,1.1,0.6,1.6c0.1,0.5,0.4,0.9,0.8,1.1c0.2,0.1,0.1,0.3,0.2,0.5
	c0,0.1,0.1,0.1,0.2,0.2c0.1,0.1,0,0.1,0,0.1c-0.6-0.1-1.6-0.3-2-1.2c-0.2-0.4-0.9,1.1-1.3,0.4c-0.4-0.7-0.6-1.4-0.8-2.2
	c-0.1-0.4-0.4,0.3-0.5,0c-0.2-0.5-0.3-1.1-0.3-1.6C57.3,46.2,58.7,44.6,60.7,44.1z M66.2,45.5L66.2,45.5c0.1-0.2,0.2-0.2,0.3-0.2
	c0.3,0,0.6,0.3,0.6,0.6c0,0.2-0.1,0.3-0.2,0.5h-0.1C66.7,46,66.5,45.7,66.2,45.5L66.2,45.5z M64.9,52.2c-0.1,0.4-0.7,0.3-1,0.5h-0.1
	c-0.3-0.2-0.8-0.1-1-0.5c0,0,0-0.1,0.1-0.1c0.4,0,0.7-0.2,0.9-0.5h0.1C64.1,51.9,64.4,52,64.9,52.2C64.8,52,64.9,52.1,64.9,52.2z
	 M60.9,46.3L60.9,46.3c-0.2-0.1-0.3-0.3-0.3-0.5c0-0.3,0.3-0.6,0.6-0.6c0.2,0,0.3,0.1,0.4,0.2v0.1C61.3,45.8,61,46,60.9,46.3
	L60.9,46.3z M55.6,54c-0.4,0-0.6,0.1-0.9,0.3c-0.2,0.1-0.2-0.2,0-1c0.2-0.6-1-0.9-1.2-0.6c-0.4,0.3-1.4,0.9-2.3-0.1
	c-0.2-0.2,0.4-0.1,0.5-0.3c0.1-0.3,0.3-0.4,0.4-0.5c0.1-0.1,0.1-0.2,0-0.3c-0.3-0.2-0.7-0.5-0.6-1.1c0-0.1-0.5-0.1-0.3-0.3
	c0.9-0.8,1.9-0.3,2.3,0c0.1,0,0.2,0,0.2-0.1c0-0.3-0.1-0.5,0.4-0.9c0.1-0.1-0.3-0.5,0-0.4c1.9,0.5,1,2.4,1.4,2.8
	c0.7,0.6,2.5,1.1,4.1,1.5c0.1,0,0.6,0.2,0.8,0.3c1.3,0.7,2.1,0.6,2.8,0.3c0.2-0.1,0.2,0.2,0.1,0.3c-2.6,2.5-4.6,1.9-5.3,1.4
	c-0.5-0.3-1.5-0.3-1.9,0.3c-0.1,0.1-0.2,0.1-0.3-0.1c-0.1-0.5,0-0.8,0.2-1.1C55.9,54,55.7,53.9,55.6,54L55.6,54z M80.5,56.3
	c-0.3,0.3-1,0.6-2,0.6c-0.4,0-0.6,0.1-0.7,0.2s-0.1,0.2-0.1,0.2c-0.1,0.2,0,0.4,0.1,0.6s0.1,0.3-0.1,0.3s-0.4,0-0.8-0.2
	c-0.2-0.1-0.2,0-0.3,0.1c-0.1,0.2,0.1,0.5,0.3,0.6C77,58.8,77,59,76.8,59c-0.4,0.1-0.7,0-1.3-0.3c-0.3-0.2-0.6-0.2-0.8,0
	c-0.1,0.1-0.1,0.3,0,0.3c0.2,0.2,0.3,0.6-0.2,1.3c-0.2,0.2-0.4-0.4-0.5-0.3c-0.7,0.3-1.3-0.1-1.6-0.4c0-0.1-0.2-0.1-0.3,0
	c-0.4,0.3-1.2,0.6-1.4-0.1c0-0.1-0.5,0.2-0.5,0c0-1.2,1-1.4,1.5-1.4c0.1,0,0.2-0.1,0.1-0.2c-0.2-0.3-0.4-0.5-0.3-0.9
	c0.1-0.3-0.6-0.3-0.3-0.5c1.3-0.7,2.1,0.6,2.3,0.7c0.4,0.2,2.1-0.3,2.3-1.3c0-0.2-0.4-0.3-0.8-0.4c-0.1,0-0.1-0.1,0-0.2
	c1.1-0.8,1.9-1.8,3.8-2c0.2,0,0.3,0.1,0.3,0.2l0,0c0,0.3,0.1,0.6,0.2,0.8c0.3,0.6,0.6,0.9,0.9,1.2C80.7,56,80.6,56.2,80.5,56.3
	L80.5,56.3z M88.5,55.7c0.2,0.1,0.2,0.2,0,0.3c-0.1,0.1-0.3,0.2-0.8,0.2c-0.2,0-0.2,0.1-0.2,0.2c0,0.2,0.3,0.4,0.6,0.4
	c0.2,0,0.2,0.2,0,0.3c-0.3,0.3-0.6,0.3-1.3,0.3c-0.6,0-1.1,0.7-0.7,1c0.2,0.2,0.7,0.6,0.3,1.9c-0.1,0.4-0.4-0.3-0.6-0.2
	c-0.5,0.3-0.9-0.1-1.1-0.3c-0.1-0.1-0.2-0.1-0.3,0c-0.2,0.3-0.7,0.9-1.8,0.4c-0.2-0.1-0.7,0.3-0.7,0.2c-0.2-0.8,0.3-1.3,0.6-1.5
	c0,0,0.2-0.2-0.1-0.2c-0.3,0-0.8-0.1-0.8-0.6c0-0.1-0.5-0.1-0.4-0.2c0.1-0.6,1.4-1,2.3-0.4c0.8,0.5,1.7-1.2,1-2
	c-0.5-0.6-3.4,1.1-4.4-1.1c-0.4-0.8,0.1-1.6-0.3-1.6c-0.4-0.1-2.3-0.5-4.3,1.2c-3.4,2.8-7.2,1.3-8.1,0.6c-0.1,0-0.3,0.1-0.2,0.2
	c0.1,0.4,0.1,0.7-0.1,0.9c-0.1,0.4-1.4,1-1.6,1c-1.4,0.4-1.3,1.5-1.1,2c0,0.2,0,0.2-0.2,0.2c-0.4-0.1-1.3-0.4-1.7-1.2
	c0-0.1-0.1-0.1-0.3,0c-0.5,0.4-0.3,0.9-0.2,1.2c0,0.1,0,0.2-0.1,0.2c-0.5,0.1-0.9-0.5-1.3-0.5c-0.3,0-0.6,0.2-0.8,0.4
	c-0.1,0-0.1,0.2,0,0.4c0.5,1.6-0.3,1.7-0.4,1.6c-0.1,0,0-0.3-0.3-0.3c-0.9,0-1.1-0.5-1.2-0.9c0-0.1-0.1-0.2-0.2-0.1
	c-0.3,0.2-1.1,0.7-1.7,0c-0.1-0.1-0.3,0-0.5,0.1c-0.1,0-0.1-0.1-0.1-0.2c0-0.7,0.4-1.2,1-1.5c0.1-0.1,0.1-0.1,0-0.2
	c-0.3-0.2-0.8-0.6-0.6-1.1c0-0.1-0.4-0.3-0.3-0.3c1-0.7,2.3,0.5,2.5,0.6s1.1,0.2,3.4-1.1c1.5-0.8,2.3-1.5,2.7-2
	c0-0.1,0.2-0.2,0.3-0.2c0.9,0,1.9-0.2,2.6-0.8c0.1-0.1,0.2,0,0.3,0c1.3,0.9,2-1.1,2.3-2.1c0-0.2,0.1-0.3,0.3-0.4
	c4.9,0.2,14.2,0.2,14.2,0.2s1.2,0.1,1.2-0.7c-0.1-1.2-5.2-1.2-9-0.7c-1.4,0.2-3.4,0.3-4.5-0.2c-0.5-0.2-0.9-0.5-1.1-0.9
	c-0.2-0.5-0.2-0.8-0.1-1.1c0.1-0.2,0.2-0.5,0.3-0.7c1-1.5,3.2-1.6,3.9-1.6c0.1,0,0.2-0.1,0.2-0.2c0.1-0.3,0.3-1.1,1.3-1.2
	c0.3,0,0.5-0.1,0.7-0.2c0.1,0,0.2,0,0.2,0.1c0,0.2-0.1,0.3-0.2,0.4c-0.7,0.6-0.6,0.8-0.5,0.9c0,0,0.1,0,0.2,0c2-1.7,3.2-0.6,3.5-0.2
	c0.1,0.1,0.1,0.2,0,0.2c-1.4,0.3-1.9,1.5-4.7,1.3c-0.3,0-2.6-0.1-3.3,0.9c-0.4,0.6-0.1,1.1,1.1,1.4c0.9,0.2,3.1-0.1,4.1-0.2
	c1-0.1,5.4-0.6,7.7,0c1,0.3,2.4,1.1,2.1,2.5c-0.2,0.9-1.1,1.3-1.1,1.3s-2.5,1.8,2,1.8c1.4,0,0,1.2,0,1.5
	C88.1,55.3,88.3,55.5,88.5,55.7z M80.2,45.9c-0.2,0-0.4,0.1-0.6,0.2c-0.4,0.3-2,0.9-2.5,0.1c0,0,1.1,0,1.9-0.7c0,0,0.8-0.3,1.3,0.2
	C80.4,45.8,80.4,45.9,80.2,45.9L80.2,45.9z M69.5,36.9c-15.4,0-30.6,4.1-30.6,4.1v20.4c0,18.4,13.2,37.4,30.6,40.7
	c18.1-3.5,30.7-22.4,30.7-40.7V41C100.1,41,87.3,36.9,69.5,36.9z M95.6,68.8c0,15-11.4,28.5-26.1,28.5l0,0
	c-14.7,0-26.1-13.6-26.1-28.5V43l0.4-0.1c0,0,13.2-4.1,25.7-4.1s25.7,4.1,25.7,4.1l0.4,0.1C95.6,43,95.6,51.2,95.6,68.8L95.6,68.8z"
	/>
<path id="qr-path" d="M0,0h2.8v2.8H0V0z M2.9,0h2.8v2.8H2.9V0z M5.7,0h2.8v2.8H5.7V0z M8.5,0h2.8v2.8H8.5V0z M11.4,0h2.8v2.8h-2.8V0
	z M14.2,0H17v2.8h-2.8V0z M17,0h2.8v2.8H17V0z M22.7,0h2.8v2.8h-2.8V0z M25.6,0h2.8v2.8h-2.8V0z M28.4,0h2.8v2.8h-2.8V0z M39.7,0
	h2.8v2.8h-2.8V0z M42.6,0h2.8v2.8h-2.8V0z M48.2,0H51v2.8h-2.8V0z M62.4,0h2.8v2.8h-2.8V0z M65.2,0H68v2.8h-2.8V0z M73.7,0h2.8v2.8
	h-2.8V0z M82.2,0H85v2.8h-2.8V0z M85.1,0h2.8v2.8h-2.8V0z M99.3,0h2.8v2.8h-2.8V0z M113.4,0h2.8v2.8h-2.8V0z M119.1,0h2.8v2.8h-2.8
	V0z M121.9,0h2.8v2.8h-2.8V0z M124.8,0h2.8v2.8h-2.8V0z M127.6,0h2.8v2.8h-2.8V0z M130.4,0h2.8v2.8h-2.8V0z M133.3,0h2.8v2.8h-2.8V0
	z M136.1,0h2.8v2.8h-2.8V0z M0,2.9h2.8v2.8H0V2.9z M17,2.9h2.8v2.8H17V2.9z M22.7,2.9h2.8v2.8h-2.8V2.9z M25.6,2.9h2.8v2.8h-2.8V2.9
	z M39.7,2.9h2.8v2.8h-2.8V2.9z M45.4,2.9h2.8v2.8h-2.8V2.9z M53.9,2.9h2.8v2.8h-2.8V2.9z M56.7,2.9h2.8v2.8h-2.8V2.9z M59.6,2.9h2.8
	v2.8h-2.8V2.9z M65.2,2.9H68v2.8h-2.8V2.9z M70.9,2.9h2.8v2.8h-2.8V2.9z M79.4,2.9h2.8v2.8h-2.8V2.9z M85.1,2.9h2.8v2.8h-2.8V2.9z
	 M87.9,2.9h2.8v2.8h-2.8V2.9z M96.4,2.9h2.8v2.8h-2.8V2.9z M102.1,2.9h2.8v2.8h-2.8V2.9z M104.9,2.9h2.8v2.8h-2.8V2.9z M107.8,2.9
	h2.8v2.8h-2.8V2.9z M110.6,2.9h2.8v2.8h-2.8V2.9z M113.4,2.9h2.8v2.8h-2.8V2.9z M119.1,2.9h2.8v2.8h-2.8V2.9z M136.1,2.9h2.8v2.8
	h-2.8V2.9z M0,5.7h2.8v2.8H0V5.7z M5.7,5.7h2.8v2.8H5.7V5.7z M8.5,5.7h2.8v2.8H8.5V5.7z M11.4,5.7h2.8v2.8h-2.8V5.7z M17,5.7h2.8
	v2.8H17V5.7z M22.7,5.7h2.8v2.8h-2.8V5.7z M31.2,5.7H34v2.8h-2.8V5.7z M34.1,5.7h2.8v2.8h-2.8V5.7z M36.9,5.7h2.8v2.8h-2.8V5.7z
	 M39.7,5.7h2.8v2.8h-2.8V5.7z M48.2,5.7H51v2.8h-2.8V5.7z M56.7,5.7h2.8v2.8h-2.8V5.7z M59.6,5.7h2.8v2.8h-2.8V5.7z M65.2,5.7H68
	v2.8h-2.8V5.7z M70.9,5.7h2.8v2.8h-2.8V5.7z M85.1,5.7h2.8v2.8h-2.8V5.7z M87.9,5.7h2.8v2.8h-2.8V5.7z M96.4,5.7h2.8v2.8h-2.8V5.7z
	 M99.3,5.7h2.8v2.8h-2.8V5.7z M110.6,5.7h2.8v2.8h-2.8V5.7z M113.4,5.7h2.8v2.8h-2.8V5.7z M119.1,5.7h2.8v2.8h-2.8V5.7z M124.8,5.7
	h2.8v2.8h-2.8V5.7z M127.6,5.7h2.8v2.8h-2.8V5.7z M130.4,5.7h2.8v2.8h-2.8V5.7z M136.1,5.7h2.8v2.8h-2.8V5.7z M0,8.5h2.8v2.8H0V8.5z
	 M5.7,8.5h2.8v2.8H5.7V8.5z M8.5,8.5h2.8v2.8H8.5V8.5z M11.4,8.5h2.8v2.8h-2.8V8.5z M17,8.5h2.8v2.8H17V8.5z M28.4,8.5h2.8v2.8h-2.8
	V8.5z M31.2,8.5H34v2.8h-2.8V8.5z M39.7,8.5h2.8v2.8h-2.8V8.5z M45.4,8.5h2.8v2.8h-2.8V8.5z M59.6,8.5h2.8v2.8h-2.8V8.5z M62.4,8.5
	h2.8v2.8h-2.8V8.5z M65.2,8.5H68v2.8h-2.8V8.5z M70.9,8.5h2.8v2.8h-2.8V8.5z M73.7,8.5h2.8v2.8h-2.8V8.5z M76.6,8.5h2.8v2.8h-2.8
	V8.5z M79.4,8.5h2.8v2.8h-2.8V8.5z M82.2,8.5H85v2.8h-2.8V8.5z M85.1,8.5h2.8v2.8h-2.8V8.5z M90.7,8.5h2.8v2.8h-2.8V8.5z M99.3,8.5
	h2.8v2.8h-2.8V8.5z M102.1,8.5h2.8v2.8h-2.8V8.5z M104.9,8.5h2.8v2.8h-2.8V8.5z M110.6,8.5h2.8v2.8h-2.8V8.5z M119.1,8.5h2.8v2.8
	h-2.8V8.5z M124.8,8.5h2.8v2.8h-2.8V8.5z M127.6,8.5h2.8v2.8h-2.8V8.5z M130.4,8.5h2.8v2.8h-2.8V8.5z M136.1,8.5h2.8v2.8h-2.8V8.5z
	 M0,11.4h2.8v2.8H0V11.4z M5.7,11.4h2.8v2.8H5.7V11.4z M8.5,11.4h2.8v2.8H8.5V11.4z M11.4,11.4h2.8v2.8h-2.8V11.4z M17,11.4h2.8v2.8
	H17V11.4z M28.4,11.4h2.8v2.8h-2.8V11.4z M34.1,11.4h2.8v2.8h-2.8V11.4z M48.2,11.4H51v2.8h-2.8V11.4z M51.1,11.4h2.8v2.8h-2.8
	C51.1,14.2,51.1,11.4,51.1,11.4z M56.7,11.4h2.8v2.8h-2.8V11.4z M59.6,11.4h2.8v2.8h-2.8V11.4z M62.4,11.4h2.8v2.8h-2.8V11.4z
	 M65.2,11.4H68v2.8h-2.8V11.4z M68.1,11.4h2.8v2.8h-2.8V11.4z M70.9,11.4h2.8v2.8h-2.8V11.4z M73.7,11.4h2.8v2.8h-2.8V11.4z
	 M79.4,11.4h2.8v2.8h-2.8V11.4z M85.1,11.4h2.8v2.8h-2.8V11.4z M87.9,11.4h2.8v2.8h-2.8V11.4z M90.7,11.4h2.8v2.8h-2.8V11.4z
	 M99.3,11.4h2.8v2.8h-2.8V11.4z M102.1,11.4h2.8v2.8h-2.8V11.4z M104.9,11.4h2.8v2.8h-2.8V11.4z M119.1,11.4h2.8v2.8h-2.8V11.4z
	 M124.8,11.4h2.8v2.8h-2.8V11.4z M127.6,11.4h2.8v2.8h-2.8V11.4z M130.4,11.4h2.8v2.8h-2.8V11.4z M136.1,11.4h2.8v2.8h-2.8V11.4z
	 M0,14.2h2.8V17H0V14.2z M17,14.2h2.8V17H17V14.2z M22.7,14.2h2.8V17h-2.8V14.2z M25.6,14.2h2.8V17h-2.8V14.2z M28.4,14.2h2.8V17
	h-2.8V14.2z M34.1,14.2h2.8V17h-2.8V14.2z M36.9,14.2h2.8V17h-2.8V14.2z M42.6,14.2h2.8V17h-2.8V14.2z M48.2,14.2H51V17h-2.8V14.2z
	 M59.6,14.2h2.8V17h-2.8V14.2z M62.4,14.2h2.8V17h-2.8V14.2z M73.7,14.2h2.8V17h-2.8V14.2z M76.6,14.2h2.8V17h-2.8V14.2z M79.4,14.2
	h2.8V17h-2.8V14.2z M82.2,14.2H85V17h-2.8V14.2z M87.9,14.2h2.8V17h-2.8V14.2z M93.6,14.2h2.8V17h-2.8V14.2z M96.4,14.2h2.8V17h-2.8
	V14.2z M107.8,14.2h2.8V17h-2.8V14.2z M119.1,14.2h2.8V17h-2.8V14.2z M136.1,14.2h2.8V17h-2.8V14.2z M0,17h2.8v2.8H0V17z M2.9,17
	h2.8v2.8H2.9V17z M5.7,17h2.8v2.8H5.7V17z M8.5,17h2.8v2.8H8.5V17z M11.4,17h2.8v2.8h-2.8V17z M14.2,17H17v2.8h-2.8V17z M17,17h2.8
	v2.8H17V17z M22.7,17h2.8v2.8h-2.8V17z M28.4,17h2.8v2.8h-2.8V17z M34.1,17h2.8v2.8h-2.8V17z M39.7,17h2.8v2.8h-2.8V17z M45.4,17
	h2.8v2.8h-2.8V17z M51.1,17h2.8v2.8h-2.8C51.1,19.8,51.1,17,51.1,17z M56.7,17h2.8v2.8h-2.8V17z M62.4,17h2.8v2.8h-2.8V17z M68.1,17
	h2.8v2.8h-2.8V17z M73.7,17h2.8v2.8h-2.8V17z M79.4,17h2.8v2.8h-2.8V17z M85.1,17h2.8v2.8h-2.8V17z M90.7,17h2.8v2.8h-2.8V17z
	 M96.4,17h2.8v2.8h-2.8V17z M102.1,17h2.8v2.8h-2.8V17z M107.8,17h2.8v2.8h-2.8V17z M113.4,17h2.8v2.8h-2.8V17z M119.1,17h2.8v2.8
	h-2.8V17z M121.9,17h2.8v2.8h-2.8V17z M124.8,17h2.8v2.8h-2.8V17z M127.6,17h2.8v2.8h-2.8V17z M130.4,17h2.8v2.8h-2.8V17z M133.3,17
	h2.8v2.8h-2.8V17z M136.1,17h2.8v2.8h-2.8V17z M22.7,19.9h2.8v2.8h-2.8V19.9z M28.4,19.9h2.8v2.8h-2.8V19.9z M34.1,19.9h2.8v2.8
	h-2.8V19.9z M36.9,19.9h2.8v2.8h-2.8V19.9z M42.6,19.9h2.8v2.8h-2.8V19.9z M45.4,19.9h2.8v2.8h-2.8V19.9z M48.2,19.9H51v2.8h-2.8
	V19.9z M51.1,19.9h2.8v2.8h-2.8C51.1,22.7,51.1,19.9,51.1,19.9z M53.9,19.9h2.8v2.8h-2.8V19.9z M56.7,19.9h2.8v2.8h-2.8V19.9z
	 M62.4,19.9h2.8v2.8h-2.8V19.9z M73.7,19.9h2.8v2.8h-2.8V19.9z M76.6,19.9h2.8v2.8h-2.8V19.9z M85.1,19.9h2.8v2.8h-2.8V19.9z
	 M87.9,19.9h2.8v2.8h-2.8V19.9z M90.7,19.9h2.8v2.8h-2.8V19.9z M96.4,19.9h2.8v2.8h-2.8V19.9z M102.1,19.9h2.8v2.8h-2.8V19.9z
	 M104.9,19.9h2.8v2.8h-2.8V19.9z M107.8,19.9h2.8v2.8h-2.8V19.9z M113.4,19.9h2.8v2.8h-2.8V19.9z M5.7,22.7h2.8v2.8H5.7V22.7z
	 M8.5,22.7h2.8v2.8H8.5V22.7z M11.4,22.7h2.8v2.8h-2.8V22.7z M17,22.7h2.8v2.8H17V22.7z M22.7,22.7h2.8v2.8h-2.8V22.7z M25.6,22.7
	h2.8v2.8h-2.8V22.7z M31.2,22.7H34v2.8h-2.8V22.7z M36.9,22.7h2.8v2.8h-2.8V22.7z M39.7,22.7h2.8v2.8h-2.8V22.7z M42.6,22.7h2.8v2.8
	h-2.8V22.7z M51.1,22.7h2.8v2.8h-2.8C51.1,25.5,51.1,22.7,51.1,22.7z M53.9,22.7h2.8v2.8h-2.8V22.7z M56.7,22.7h2.8v2.8h-2.8V22.7z
	 M62.4,22.7h2.8v2.8h-2.8V22.7z M65.2,22.7H68v2.8h-2.8V22.7z M68.1,22.7h2.8v2.8h-2.8V22.7z M70.9,22.7h2.8v2.8h-2.8V22.7z
	 M73.7,22.7h2.8v2.8h-2.8V22.7z M76.6,22.7h2.8v2.8h-2.8V22.7z M85.1,22.7h2.8v2.8h-2.8V22.7z M90.7,22.7h2.8v2.8h-2.8V22.7z
	 M93.6,22.7h2.8v2.8h-2.8V22.7z M96.4,22.7h2.8v2.8h-2.8V22.7z M99.3,22.7h2.8v2.8h-2.8V22.7z M107.8,22.7h2.8v2.8h-2.8V22.7z
	 M113.4,22.7h2.8v2.8h-2.8V22.7z M116.3,22.7h2.8v2.8h-2.8C116.3,25.5,116.3,22.7,116.3,22.7z M119.1,22.7h2.8v2.8h-2.8V22.7z
	 M121.9,22.7h2.8v2.8h-2.8V22.7z M130.4,22.7h2.8v2.8h-2.8V22.7z M133.3,22.7h2.8v2.8h-2.8V22.7z M136.1,22.7h2.8v2.8h-2.8V22.7z
	 M2.9,25.6h2.8v2.8H2.9V25.6z M8.5,25.6h2.8v2.8H8.5V25.6z M11.4,25.6h2.8v2.8h-2.8V25.6z M22.7,25.6h2.8v2.8h-2.8V25.6z M25.6,25.6
	h2.8v2.8h-2.8V25.6z M28.4,25.6h2.8v2.8h-2.8V25.6z M31.2,25.6H34v2.8h-2.8V25.6z M42.6,25.6h2.8v2.8h-2.8V25.6z M48.2,25.6H51v2.8
	h-2.8V25.6z M62.4,25.6h2.8v2.8h-2.8V25.6z M68.1,25.6h2.8v2.8h-2.8V25.6z M76.6,25.6h2.8v2.8h-2.8V25.6z M85.1,25.6h2.8v2.8h-2.8
	V25.6z M87.9,25.6h2.8v2.8h-2.8V25.6z M96.4,25.6h2.8v2.8h-2.8V25.6z M104.9,25.6h2.8v2.8h-2.8V25.6z M107.8,25.6h2.8v2.8h-2.8V25.6
	z M119.1,25.6h2.8v2.8h-2.8V25.6z M121.9,25.6h2.8v2.8h-2.8V25.6z M130.4,25.6h2.8v2.8h-2.8V25.6z M5.7,28.4h2.8v2.8H5.7V28.4z
	 M11.4,28.4h2.8v2.8h-2.8V28.4z M14.2,28.4H17v2.8h-2.8V28.4z M17,28.4h2.8v2.8H17V28.4z M19.9,28.4h2.8v2.8h-2.8V28.4z M22.7,28.4
	h2.8v2.8h-2.8V28.4z M25.6,28.4h2.8v2.8h-2.8V28.4z M39.7,28.4h2.8v2.8h-2.8V28.4z M42.6,28.4h2.8v2.8h-2.8V28.4z M53.9,28.4h2.8
	v2.8h-2.8V28.4z M56.7,28.4h2.8v2.8h-2.8V28.4z M65.2,28.4H68v2.8h-2.8V28.4z M68.1,28.4h2.8v2.8h-2.8V28.4z M79.4,28.4h2.8v2.8
	h-2.8V28.4z M82.2,28.4H85v2.8h-2.8V28.4z M93.6,28.4h2.8v2.8h-2.8V28.4z M99.3,28.4h2.8v2.8h-2.8V28.4z M110.6,28.4h2.8v2.8h-2.8
	V28.4z M116.3,28.4h2.8v2.8h-2.8C116.3,31.2,116.3,28.4,116.3,28.4z M119.1,28.4h2.8v2.8h-2.8V28.4z M127.6,28.4h2.8v2.8h-2.8V28.4z
	 M130.4,28.4h2.8v2.8h-2.8V28.4z M136.1,28.4h2.8v2.8h-2.8V28.4z M0,31.2h2.8V34H0V31.2z M2.9,31.2h2.8V34H2.9V31.2z M5.7,31.2h2.8
	V34H5.7V31.2z M11.4,31.2h2.8V34h-2.8V31.2z M14.2,31.2H17V34h-2.8V31.2z M19.9,31.2h2.8V34h-2.8V31.2z M22.7,31.2h2.8V34h-2.8V31.2
	z M31.2,31.2H34V34h-2.8V31.2z M34.1,31.2h2.8V34h-2.8V31.2z M36.9,31.2h2.8V34h-2.8V31.2z M39.7,31.2h2.8V34h-2.8V31.2z M45.4,31.2
	h2.8V34h-2.8V31.2z M51.1,31.2h2.8V34h-2.8C51.1,34,51.1,31.2,51.1,31.2z M53.9,31.2h2.8V34h-2.8V31.2z M56.7,31.2h2.8V34h-2.8V31.2
	z M59.6,31.2h2.8V34h-2.8V31.2z M62.4,31.2h2.8V34h-2.8V31.2z M65.2,31.2H68V34h-2.8V31.2z M68.1,31.2h2.8V34h-2.8V31.2z M70.9,31.2
	h2.8V34h-2.8V31.2z M73.7,31.2h2.8V34h-2.8V31.2z M76.6,31.2h2.8V34h-2.8V31.2z M82.2,31.2H85V34h-2.8V31.2z M85.1,31.2h2.8V34h-2.8
	V31.2z M87.9,31.2h2.8V34h-2.8V31.2z M96.4,31.2h2.8V34h-2.8V31.2z M99.3,31.2h2.8V34h-2.8V31.2z M102.1,31.2h2.8V34h-2.8V31.2z
	 M104.9,31.2h2.8V34h-2.8V31.2z M107.8,31.2h2.8V34h-2.8V31.2z M119.1,31.2h2.8V34h-2.8V31.2z M124.8,31.2h2.8V34h-2.8V31.2z
	 M130.4,31.2h2.8V34h-2.8V31.2z M133.3,31.2h2.8V34h-2.8V31.2z M136.1,31.2h2.8V34h-2.8V31.2z M0,34.1h2.8v2.8H0V34.1z M2.9,34.1
	h2.8v2.8H2.9V34.1z M5.7,34.1h2.8v2.8H5.7V34.1z M11.4,34.1h2.8v2.8h-2.8V34.1z M17,34.1h2.8v2.8H17V34.1z M19.9,34.1h2.8v2.8h-2.8
	V34.1z M22.7,34.1h2.8v2.8h-2.8V34.1z M25.6,34.1h2.8v2.8h-2.8V34.1z M34.1,34.1h2.8v2.8h-2.8V34.1z M36.9,34.1h2.8v2.8h-2.8V34.1z
	 M39.7,34.1h2.8v2.8h-2.8V34.1z M51.1,34.1h2.8v2.8h-2.8C51.1,36.9,51.1,34.1,51.1,34.1z M56.7,34.1h2.8v2.8h-2.8V34.1z M82.2,34.1
	H85v2.8h-2.8V34.1z M87.9,34.1h2.8v2.8h-2.8V34.1z M93.6,34.1h2.8v2.8h-2.8V34.1z M96.4,34.1h2.8v2.8h-2.8V34.1z M102.1,34.1h2.8
	v2.8h-2.8V34.1z M107.8,34.1h2.8v2.8h-2.8V34.1z M110.6,34.1h2.8v2.8h-2.8V34.1z M113.4,34.1h2.8v2.8h-2.8V34.1z M116.3,34.1h2.8
	v2.8h-2.8C116.3,36.9,116.3,34.1,116.3,34.1z M119.1,34.1h2.8v2.8h-2.8V34.1z M127.6,34.1h2.8v2.8h-2.8V34.1z M0,36.9h2.8v2.8H0
	V36.9z M14.2,36.9H17v2.8h-2.8V36.9z M19.9,36.9h2.8v2.8h-2.8V36.9z M28.4,36.9h2.8v2.8h-2.8V36.9z M36.9,36.9h2.8v2.8h-2.8V36.9z
	 M99.3,36.9h2.8v2.8h-2.8V36.9z M102.1,36.9h2.8v2.8h-2.8V36.9z M104.9,36.9h2.8v2.8h-2.8V36.9z M107.8,36.9h2.8v2.8h-2.8V36.9z
	 M110.6,36.9h2.8v2.8h-2.8V36.9z M119.1,36.9h2.8v2.8h-2.8V36.9z M124.8,36.9h2.8v2.8h-2.8V36.9z M127.6,36.9h2.8v2.8h-2.8V36.9z
	 M2.9,39.7h2.8v2.8H2.9V39.7z M14.2,39.7H17v2.8h-2.8V39.7z M17,39.7h2.8v2.8H17V39.7z M19.9,39.7h2.8v2.8h-2.8V39.7z M22.7,39.7
	h2.8v2.8h-2.8V39.7z M28.4,39.7h2.8v2.8h-2.8V39.7z M34.1,39.7h2.8v2.8h-2.8V39.7z M102.1,39.7h2.8v2.8h-2.8V39.7z M110.6,39.7h2.8
	v2.8h-2.8V39.7z M113.4,39.7h2.8v2.8h-2.8V39.7z M116.3,39.7h2.8v2.8h-2.8C116.3,42.5,116.3,39.7,116.3,39.7z M119.1,39.7h2.8v2.8
	h-2.8V39.7z M133.3,39.7h2.8v2.8h-2.8V39.7z M136.1,39.7h2.8v2.8h-2.8V39.7z M2.9,42.6h2.8v2.8H2.9V42.6z M5.7,42.6h2.8v2.8H5.7
	V42.6z M11.4,42.6h2.8v2.8h-2.8V42.6z M25.6,42.6h2.8v2.8h-2.8V42.6z M28.4,42.6h2.8v2.8h-2.8V42.6z M102.1,42.6h2.8v2.8h-2.8V42.6z
	 M110.6,42.6h2.8v2.8h-2.8V42.6z M113.4,42.6h2.8v2.8h-2.8V42.6z M116.3,42.6h2.8v2.8h-2.8C116.3,45.4,116.3,42.6,116.3,42.6z
	 M124.8,42.6h2.8v2.8h-2.8V42.6z M127.6,42.6h2.8v2.8h-2.8V42.6z M136.1,42.6h2.8v2.8h-2.8V42.6z M0,45.4h2.8v2.8H0V45.4z M2.9,45.4
	h2.8v2.8H2.9V45.4z M5.7,45.4h2.8v2.8H5.7V45.4z M8.5,45.4h2.8v2.8H8.5V45.4z M14.2,45.4H17v2.8h-2.8V45.4z M17,45.4h2.8v2.8H17
	V45.4z M19.9,45.4h2.8v2.8h-2.8V45.4z M22.7,45.4h2.8v2.8h-2.8V45.4z M102.1,45.4h2.8v2.8h-2.8V45.4z M104.9,45.4h2.8v2.8h-2.8V45.4
	z M110.6,45.4h2.8v2.8h-2.8V45.4z M121.9,45.4h2.8v2.8h-2.8V45.4z M133.3,45.4h2.8v2.8h-2.8V45.4z M136.1,45.4h2.8v2.8h-2.8V45.4z
	 M0,48.2h2.8V51H0V48.2z M5.7,48.2h2.8V51H5.7V48.2z M8.5,48.2h2.8V51H8.5V48.2z M22.7,48.2h2.8V51h-2.8V48.2z M28.4,48.2h2.8V51
	h-2.8V48.2z M31.2,48.2H34V51h-2.8V48.2z M34.1,48.2h2.8V51h-2.8V48.2z M102.1,48.2h2.8V51h-2.8V48.2z M113.4,48.2h2.8V51h-2.8V48.2
	z M116.3,48.2h2.8V51h-2.8C116.3,51,116.3,48.2,116.3,48.2z M121.9,48.2h2.8V51h-2.8V48.2z M124.8,48.2h2.8V51h-2.8V48.2z
	 M127.6,48.2h2.8V51h-2.8V48.2z M130.4,48.2h2.8V51h-2.8V48.2z M2.9,51.1h2.8v2.8H2.9V51.1z M8.5,51.1h2.8v2.8H8.5V51.1z M11.4,51.1
	h2.8v2.8h-2.8V51.1z M17,51.1h2.8v2.8H17V51.1z M22.7,51.1h2.8v2.8h-2.8V51.1z M25.6,51.1h2.8v2.8h-2.8V51.1z M28.4,51.1h2.8v2.8
	h-2.8V51.1z M102.1,51.1h2.8v2.8h-2.8V51.1z M104.9,51.1h2.8v2.8h-2.8V51.1z M110.6,51.1h2.8v2.8h-2.8V51.1z M113.4,51.1h2.8v2.8
	h-2.8V51.1z M119.1,51.1h2.8v2.8h-2.8V51.1z M121.9,51.1h2.8v2.8h-2.8V51.1z M124.8,51.1h2.8v2.8h-2.8V51.1z M127.6,51.1h2.8v2.8
	h-2.8V51.1z M136.1,51.1h2.8v2.8h-2.8V51.1z M0,53.9h2.8v2.8H0V53.9z M2.9,53.9h2.8v2.8H2.9V53.9z M11.4,53.9h2.8v2.8h-2.8V53.9z
	 M14.2,53.9H17v2.8h-2.8V53.9z M31.2,53.9H34v2.8h-2.8V53.9z M104.9,53.9h2.8v2.8h-2.8V53.9z M107.8,53.9h2.8v2.8h-2.8V53.9z
	 M113.4,53.9h2.8v2.8h-2.8V53.9z M119.1,53.9h2.8v2.8h-2.8V53.9z M121.9,53.9h2.8v2.8h-2.8V53.9z M124.8,53.9h2.8v2.8h-2.8V53.9z
	 M0,56.7h2.8v2.8H0V56.7z M2.9,56.7h2.8v2.8H2.9V56.7z M11.4,56.7h2.8v2.8h-2.8V56.7z M17,56.7h2.8v2.8H17V56.7z M19.9,56.7h2.8v2.8
	h-2.8V56.7z M22.7,56.7h2.8v2.8h-2.8V56.7z M28.4,56.7h2.8v2.8h-2.8V56.7z M102.1,56.7h2.8v2.8h-2.8V56.7z M104.9,56.7h2.8v2.8h-2.8
	V56.7z M107.8,56.7h2.8v2.8h-2.8V56.7z M119.1,56.7h2.8v2.8h-2.8V56.7z M121.9,56.7h2.8v2.8h-2.8V56.7z M130.4,56.7h2.8v2.8h-2.8
	V56.7z M136.1,56.7h2.8v2.8h-2.8V56.7z M2.9,59.6h2.8v2.8H2.9V59.6z M8.5,59.6h2.8v2.8H8.5V59.6z M11.4,59.6h2.8v2.8h-2.8V59.6z
	 M14.2,59.6H17v2.8h-2.8V59.6z M22.7,59.6h2.8v2.8h-2.8V59.6z M25.6,59.6h2.8v2.8h-2.8V59.6z M28.4,59.6h2.8v2.8h-2.8V59.6z
	 M102.1,59.6h2.8v2.8h-2.8V59.6z M110.6,59.6h2.8v2.8h-2.8V59.6z M116.3,59.6h2.8v2.8h-2.8C116.3,62.4,116.3,59.6,116.3,59.6z
	 M119.1,59.6h2.8v2.8h-2.8V59.6z M130.4,59.6h2.8v2.8h-2.8V59.6z M2.9,62.4h2.8v2.8H2.9V62.4z M11.4,62.4h2.8v2.8h-2.8V62.4z
	 M14.2,62.4H17v2.8h-2.8V62.4z M17,62.4h2.8v2.8H17V62.4z M19.9,62.4h2.8v2.8h-2.8V62.4z M22.7,62.4h2.8v2.8h-2.8V62.4z M25.6,62.4
	h2.8v2.8h-2.8V62.4z M102.1,62.4h2.8v2.8h-2.8V62.4z M107.8,62.4h2.8v2.8h-2.8V62.4z M113.4,62.4h2.8v2.8h-2.8V62.4z M116.3,62.4
	h2.8v2.8h-2.8C116.3,65.2,116.3,62.4,116.3,62.4z M119.1,62.4h2.8v2.8h-2.8V62.4z M121.9,62.4h2.8v2.8h-2.8V62.4z M124.8,62.4h2.8
	v2.8h-2.8V62.4z M127.6,62.4h2.8v2.8h-2.8V62.4z M130.4,62.4h2.8v2.8h-2.8V62.4z M133.3,62.4h2.8v2.8h-2.8V62.4z M136.1,62.4h2.8
	v2.8h-2.8V62.4z M0,65.2h2.8V68H0V65.2z M11.4,65.2h2.8V68h-2.8V65.2z M22.7,65.2h2.8V68h-2.8V65.2z M28.4,65.2h2.8V68h-2.8V65.2z
	 M110.6,65.2h2.8V68h-2.8V65.2z M113.4,65.2h2.8V68h-2.8V65.2z M124.8,65.2h2.8V68h-2.8V65.2z M133.3,65.2h2.8V68h-2.8V65.2z
	 M8.5,68.1h2.8v2.8H8.5V68.1z M11.4,68.1h2.8v2.8h-2.8V68.1z M17,68.1h2.8v2.8H17V68.1z M22.7,68.1h2.8v2.8h-2.8V68.1z M28.4,68.1
	h2.8v2.8h-2.8V68.1z M102.1,68.1h2.8v2.8h-2.8V68.1z M107.8,68.1h2.8v2.8h-2.8V68.1z M110.6,68.1h2.8v2.8h-2.8V68.1z M113.4,68.1
	h2.8v2.8h-2.8V68.1z M119.1,68.1h2.8v2.8h-2.8V68.1z M124.8,68.1h2.8v2.8h-2.8V68.1z M127.6,68.1h2.8v2.8h-2.8V68.1z M130.4,68.1
	h2.8v2.8h-2.8V68.1z M2.9,70.9h2.8v2.8H2.9V70.9z M5.7,70.9h2.8v2.8H5.7V70.9z M11.4,70.9h2.8v2.8h-2.8V70.9z M22.7,70.9h2.8v2.8
	h-2.8V70.9z M25.6,70.9h2.8v2.8h-2.8V70.9z M104.9,70.9h2.8v2.8h-2.8V70.9z M110.6,70.9h2.8v2.8h-2.8V70.9z M113.4,70.9h2.8v2.8
	h-2.8V70.9z M124.8,70.9h2.8v2.8h-2.8V70.9z M130.4,70.9h2.8v2.8h-2.8V70.9z M136.1,70.9h2.8v2.8h-2.8V70.9z M2.9,73.7h2.8v2.8H2.9
	V73.7z M11.4,73.7h2.8v2.8h-2.8V73.7z M14.2,73.7H17v2.8h-2.8V73.7z M17,73.7h2.8v2.8H17V73.7z M19.9,73.7h2.8v2.8h-2.8V73.7z
	 M22.7,73.7h2.8v2.8h-2.8V73.7z M28.4,73.7h2.8v2.8h-2.8V73.7z M34.1,73.7h2.8v2.8h-2.8V73.7z M36.9,73.7h2.8v2.8h-2.8V73.7z
	 M99.3,73.7h2.8v2.8h-2.8V73.7z M107.8,73.7h2.8v2.8h-2.8V73.7z M113.4,73.7h2.8v2.8h-2.8V73.7z M116.3,73.7h2.8v2.8h-2.8
	C116.3,76.5,116.3,73.7,116.3,73.7z M119.1,73.7h2.8v2.8h-2.8V73.7z M121.9,73.7h2.8v2.8h-2.8V73.7z M124.8,73.7h2.8v2.8h-2.8V73.7z
	 M127.6,73.7h2.8v2.8h-2.8V73.7z M133.3,73.7h2.8v2.8h-2.8V73.7z M5.7,76.6h2.8v2.8H5.7V76.6z M14.2,76.6H17v2.8h-2.8V76.6z
	 M19.9,76.6h2.8v2.8h-2.8V76.6z M25.6,76.6h2.8v2.8h-2.8V76.6z M28.4,76.6h2.8v2.8h-2.8V76.6z M34.1,76.6h2.8v2.8h-2.8V76.6z
	 M110.6,76.6h2.8v2.8h-2.8V76.6z M116.3,76.6h2.8v2.8h-2.8C116.3,79.4,116.3,76.6,116.3,76.6z M121.9,76.6h2.8v2.8h-2.8V76.6z
	 M0,79.4h2.8v2.8H0V79.4z M11.4,79.4h2.8v2.8h-2.8V79.4z M14.2,79.4H17v2.8h-2.8V79.4z M17,79.4h2.8v2.8H17V79.4z M19.9,79.4h2.8
	v2.8h-2.8V79.4z M28.4,79.4h2.8v2.8h-2.8V79.4z M34.1,79.4h2.8v2.8h-2.8V79.4z M39.7,79.4h2.8v2.8h-2.8V79.4z M96.4,79.4h2.8v2.8
	h-2.8V79.4z M99.3,79.4h2.8v2.8h-2.8V79.4z M102.1,79.4h2.8v2.8h-2.8V79.4z M104.9,79.4h2.8v2.8h-2.8V79.4z M110.6,79.4h2.8v2.8
	h-2.8V79.4z M113.4,79.4h2.8v2.8h-2.8V79.4z M116.3,79.4h2.8v2.8h-2.8C116.3,82.2,116.3,79.4,116.3,79.4z M121.9,79.4h2.8v2.8h-2.8
	V79.4z M127.6,79.4h2.8v2.8h-2.8V79.4z M130.4,79.4h2.8v2.8h-2.8V79.4z M133.3,79.4h2.8v2.8h-2.8V79.4z M14.2,82.2H17V85h-2.8V82.2z
	 M19.9,82.2h2.8V85h-2.8V82.2z M25.6,82.2h2.8V85h-2.8V82.2z M36.9,82.2h2.8V85h-2.8V82.2z M39.7,82.2h2.8V85h-2.8V82.2z M99.3,82.2
	h2.8V85h-2.8V82.2z M104.9,82.2h2.8V85h-2.8V82.2z M110.6,82.2h2.8V85h-2.8V82.2z M116.3,82.2h2.8V85h-2.8
	C116.3,85,116.3,82.2,116.3,82.2z M119.1,82.2h2.8V85h-2.8V82.2z M130.4,82.2h2.8V85h-2.8V82.2z M133.3,82.2h2.8V85h-2.8V82.2z
	 M136.1,82.2h2.8V85h-2.8V82.2z M11.4,85.1h2.8v2.8h-2.8V85.1z M17,85.1h2.8v2.8H17V85.1z M22.7,85.1h2.8v2.8h-2.8V85.1z M31.2,85.1
	H34v2.8h-2.8V85.1z M39.7,85.1h2.8v2.8h-2.8V85.1z M93.6,85.1h2.8v2.8h-2.8V85.1z M96.4,85.1h2.8v2.8h-2.8V85.1z M99.3,85.1h2.8v2.8
	h-2.8V85.1z M102.1,85.1h2.8v2.8h-2.8V85.1z M104.9,85.1h2.8v2.8h-2.8V85.1z M107.8,85.1h2.8v2.8h-2.8V85.1z M110.6,85.1h2.8v2.8
	h-2.8V85.1z M119.1,85.1h2.8v2.8h-2.8V85.1z M121.9,85.1h2.8v2.8h-2.8V85.1z M130.4,85.1h2.8v2.8h-2.8V85.1z M136.1,85.1h2.8v2.8
	h-2.8V85.1z M0,87.9h2.8v2.8H0V87.9z M2.9,87.9h2.8v2.8H2.9V87.9z M5.7,87.9h2.8v2.8H5.7V87.9z M22.7,87.9h2.8v2.8h-2.8V87.9z
	 M25.6,87.9h2.8v2.8h-2.8V87.9z M36.9,87.9h2.8v2.8h-2.8V87.9z M39.7,87.9h2.8v2.8h-2.8V87.9z M93.6,87.9h2.8v2.8h-2.8V87.9z
	 M99.3,87.9h2.8v2.8h-2.8V87.9z M102.1,87.9h2.8v2.8h-2.8V87.9z M113.4,87.9h2.8v2.8h-2.8V87.9z M127.6,87.9h2.8v2.8h-2.8V87.9z
	 M133.3,87.9h2.8v2.8h-2.8V87.9z M136.1,87.9h2.8v2.8h-2.8V87.9z M2.9,90.7h2.8v2.8H2.9V90.7z M8.5,90.7h2.8v2.8H8.5V90.7z M17,90.7
	h2.8v2.8H17V90.7z M19.9,90.7h2.8v2.8h-2.8V90.7z M22.7,90.7h2.8v2.8h-2.8V90.7z M28.4,90.7h2.8v2.8h-2.8V90.7z M34.1,90.7h2.8v2.8
	h-2.8V90.7z M39.7,90.7h2.8v2.8h-2.8V90.7z M42.6,90.7h2.8v2.8h-2.8V90.7z M45.4,90.7h2.8v2.8h-2.8V90.7z M102.1,90.7h2.8v2.8h-2.8
	V90.7z M104.9,90.7h2.8v2.8h-2.8V90.7z M110.6,90.7h2.8v2.8h-2.8V90.7z M113.4,90.7h2.8v2.8h-2.8V90.7z M116.3,90.7h2.8v2.8h-2.8
	C116.3,93.5,116.3,90.7,116.3,90.7z M127.6,90.7h2.8v2.8h-2.8V90.7z M136.1,90.7h2.8v2.8h-2.8V90.7z M0,93.6h2.8v2.8H0V93.6z
	 M2.9,93.6h2.8v2.8H2.9V93.6z M5.7,93.6h2.8v2.8H5.7V93.6z M8.5,93.6h2.8v2.8H8.5V93.6z M14.2,93.6H17v2.8h-2.8V93.6z M22.7,93.6
	h2.8v2.8h-2.8V93.6z M25.6,93.6h2.8v2.8h-2.8V93.6z M39.7,93.6h2.8v2.8h-2.8V93.6z M42.6,93.6h2.8v2.8h-2.8V93.6z M48.2,93.6H51v2.8
	h-2.8V93.6z M87.9,93.6h2.8v2.8h-2.8V93.6z M93.6,93.6h2.8v2.8h-2.8V93.6z M99.3,93.6h2.8v2.8h-2.8V93.6z M102.1,93.6h2.8v2.8h-2.8
	V93.6z M116.3,93.6h2.8v2.8h-2.8C116.3,96.4,116.3,93.6,116.3,93.6z M121.9,93.6h2.8v2.8h-2.8V93.6z M124.8,93.6h2.8v2.8h-2.8V93.6z
	 M127.6,93.6h2.8v2.8h-2.8V93.6z M133.3,93.6h2.8v2.8h-2.8V93.6z M5.7,96.4h2.8v2.8H5.7V96.4z M11.4,96.4h2.8v2.8h-2.8V96.4z
	 M14.2,96.4H17v2.8h-2.8V96.4z M17,96.4h2.8v2.8H17V96.4z M19.9,96.4h2.8v2.8h-2.8V96.4z M25.6,96.4h2.8v2.8h-2.8V96.4z M28.4,96.4
	h2.8v2.8h-2.8V96.4z M31.2,96.4H34v2.8h-2.8V96.4z M36.9,96.4h2.8v2.8h-2.8V96.4z M39.7,96.4h2.8v2.8h-2.8V96.4z M48.2,96.4H51v2.8
	h-2.8V96.4z M102.1,96.4h2.8v2.8h-2.8V96.4z M104.9,96.4h2.8v2.8h-2.8V96.4z M110.6,96.4h2.8v2.8h-2.8V96.4z M113.4,96.4h2.8v2.8
	h-2.8V96.4z M116.3,96.4h2.8v2.8h-2.8C116.3,99.2,116.3,96.4,116.3,96.4z M119.1,96.4h2.8v2.8h-2.8V96.4z M124.8,96.4h2.8v2.8h-2.8
	V96.4z M133.3,96.4h2.8v2.8h-2.8V96.4z M136.1,96.4h2.8v2.8h-2.8V96.4z M0,99.3h2.8v2.8H0V99.3z M8.5,99.3h2.8v2.8H8.5V99.3z
	 M11.4,99.3h2.8v2.8h-2.8V99.3z M22.7,99.3h2.8v2.8h-2.8V99.3z M25.6,99.3h2.8v2.8h-2.8V99.3z M34.1,99.3h2.8v2.8h-2.8V99.3z
	 M36.9,99.3h2.8v2.8h-2.8V99.3z M42.6,99.3h2.8v2.8h-2.8V99.3z M45.4,99.3h2.8v2.8h-2.8V99.3z M48.2,99.3H51v2.8h-2.8V99.3z
	 M56.7,99.3h2.8v2.8h-2.8V99.3z M79.4,99.3h2.8v2.8h-2.8V99.3z M82.2,99.3H85v2.8h-2.8V99.3z M93.6,99.3h2.8v2.8h-2.8V99.3z
	 M102.1,99.3h2.8v2.8h-2.8V99.3z M113.4,99.3h2.8v2.8h-2.8V99.3z M116.3,99.3h2.8v2.8h-2.8C116.3,102.1,116.3,99.3,116.3,99.3z
	 M121.9,99.3h2.8v2.8h-2.8V99.3z M124.8,99.3h2.8v2.8h-2.8V99.3z M127.6,99.3h2.8v2.8h-2.8V99.3z M136.1,99.3h2.8v2.8h-2.8V99.3z
	 M2.9,102.1h2.8v2.8H2.9V102.1z M14.2,102.1H17v2.8h-2.8V102.1z M17,102.1h2.8v2.8H17V102.1z M19.9,102.1h2.8v2.8h-2.8V102.1z
	 M31.2,102.1H34v2.8h-2.8V102.1z M34.1,102.1h2.8v2.8h-2.8V102.1z M42.6,102.1h2.8v2.8h-2.8V102.1z M56.7,102.1h2.8v2.8h-2.8V102.1z
	 M62.4,102.1h2.8v2.8h-2.8V102.1z M65.2,102.1H68v2.8h-2.8V102.1z M73.7,102.1h2.8v2.8h-2.8V102.1z M76.6,102.1h2.8v2.8h-2.8V102.1z
	 M79.4,102.1h2.8v2.8h-2.8V102.1z M85.1,102.1h2.8v2.8h-2.8V102.1z M87.9,102.1h2.8v2.8h-2.8V102.1z M90.7,102.1h2.8v2.8h-2.8V102.1
	z M99.3,102.1h2.8v2.8h-2.8V102.1z M104.9,102.1h2.8v2.8h-2.8V102.1z M110.6,102.1h2.8v2.8h-2.8V102.1z M113.4,102.1h2.8v2.8h-2.8
	V102.1z M116.3,102.1h2.8v2.8h-2.8C116.3,104.9,116.3,102.1,116.3,102.1z M133.3,102.1h2.8v2.8h-2.8V102.1z M136.1,102.1h2.8v2.8
	h-2.8V102.1z M2.9,104.9h2.8v2.8H2.9V104.9z M8.5,104.9h2.8v2.8H8.5V104.9z M14.2,104.9H17v2.8h-2.8V104.9z M19.9,104.9h2.8v2.8
	h-2.8V104.9z M25.6,104.9h2.8v2.8h-2.8V104.9z M28.4,104.9h2.8v2.8h-2.8V104.9z M31.2,104.9H34v2.8h-2.8V104.9z M34.1,104.9h2.8v2.8
	h-2.8V104.9z M36.9,104.9h2.8v2.8h-2.8V104.9z M39.7,104.9h2.8v2.8h-2.8V104.9z M42.6,104.9h2.8v2.8h-2.8V104.9z M51.1,104.9h2.8
	v2.8h-2.8C51.1,107.7,51.1,104.9,51.1,104.9z M62.4,104.9h2.8v2.8h-2.8V104.9z M68.1,104.9h2.8v2.8h-2.8V104.9z M70.9,104.9h2.8v2.8
	h-2.8V104.9z M79.4,104.9h2.8v2.8h-2.8V104.9z M82.2,104.9H85v2.8h-2.8V104.9z M90.7,104.9h2.8v2.8h-2.8V104.9z M93.6,104.9h2.8v2.8
	h-2.8V104.9z M113.4,104.9h2.8v2.8h-2.8V104.9z M121.9,104.9h2.8v2.8h-2.8V104.9z M124.8,104.9h2.8v2.8h-2.8V104.9z M130.4,104.9
	h2.8v2.8h-2.8V104.9z M133.3,104.9h2.8v2.8h-2.8V104.9z M2.9,107.8h2.8v2.8H2.9V107.8z M14.2,107.8H17v2.8h-2.8V107.8z M17,107.8
	h2.8v2.8H17V107.8z M19.9,107.8h2.8v2.8h-2.8V107.8z M25.6,107.8h2.8v2.8h-2.8V107.8z M34.1,107.8h2.8v2.8h-2.8V107.8z M42.6,107.8
	h2.8v2.8h-2.8V107.8z M45.4,107.8h2.8v2.8h-2.8V107.8z M51.1,107.8h2.8v2.8h-2.8C51.1,110.6,51.1,107.8,51.1,107.8z M56.7,107.8h2.8
	v2.8h-2.8V107.8z M62.4,107.8h2.8v2.8h-2.8V107.8z M65.2,107.8H68v2.8h-2.8V107.8z M76.6,107.8h2.8v2.8h-2.8V107.8z M85.1,107.8h2.8
	v2.8h-2.8V107.8z M87.9,107.8h2.8v2.8h-2.8V107.8z M90.7,107.8h2.8v2.8h-2.8V107.8z M99.3,107.8h2.8v2.8h-2.8V107.8z M104.9,107.8
	h2.8v2.8h-2.8V107.8z M113.4,107.8h2.8v2.8h-2.8V107.8z M116.3,107.8h2.8v2.8h-2.8C116.3,110.6,116.3,107.8,116.3,107.8z
	 M124.8,107.8h2.8v2.8h-2.8V107.8z M127.6,107.8h2.8v2.8h-2.8V107.8z M130.4,107.8h2.8v2.8h-2.8V107.8z M133.3,107.8h2.8v2.8h-2.8
	V107.8z M136.1,107.8h2.8v2.8h-2.8V107.8z M2.9,110.6h2.8v2.8H2.9V110.6z M5.7,110.6h2.8v2.8H5.7V110.6z M8.5,110.6h2.8v2.8H8.5
	V110.6z M19.9,110.6h2.8v2.8h-2.8V110.6z M31.2,110.6H34v2.8h-2.8V110.6z M39.7,110.6h2.8v2.8h-2.8V110.6z M56.7,110.6h2.8v2.8h-2.8
	V110.6z M59.6,110.6h2.8v2.8h-2.8V110.6z M62.4,110.6h2.8v2.8h-2.8V110.6z M68.1,110.6h2.8v2.8h-2.8V110.6z M73.7,110.6h2.8v2.8
	h-2.8V110.6z M76.6,110.6h2.8v2.8h-2.8V110.6z M79.4,110.6h2.8v2.8h-2.8V110.6z M82.2,110.6H85v2.8h-2.8V110.6z M96.4,110.6h2.8v2.8
	h-2.8V110.6z M102.1,110.6h2.8v2.8h-2.8V110.6z M104.9,110.6h2.8v2.8h-2.8V110.6z M107.8,110.6h2.8v2.8h-2.8V110.6z M119.1,110.6
	h2.8v2.8h-2.8V110.6z M121.9,110.6h2.8v2.8h-2.8V110.6z M124.8,110.6h2.8v2.8h-2.8V110.6z M130.4,110.6h2.8v2.8h-2.8V110.6z
	 M0,113.4h2.8v2.8H0V113.4z M2.9,113.4h2.8v2.8H2.9V113.4z M5.7,113.4h2.8v2.8H5.7V113.4z M17,113.4h2.8v2.8H17V113.4z M19.9,113.4
	h2.8v2.8h-2.8V113.4z M28.4,113.4h2.8v2.8h-2.8V113.4z M31.2,113.4H34v2.8h-2.8V113.4z M39.7,113.4h2.8v2.8h-2.8V113.4z M48.2,113.4
	H51v2.8h-2.8V113.4z M51.1,113.4h2.8v2.8h-2.8C51.1,116.2,51.1,113.4,51.1,113.4z M62.4,113.4h2.8v2.8h-2.8V113.4z M65.2,113.4H68
	v2.8h-2.8V113.4z M68.1,113.4h2.8v2.8h-2.8V113.4z M70.9,113.4h2.8v2.8h-2.8V113.4z M73.7,113.4h2.8v2.8h-2.8V113.4z M76.6,113.4
	h2.8v2.8h-2.8V113.4z M79.4,113.4h2.8v2.8h-2.8V113.4z M82.2,113.4H85v2.8h-2.8V113.4z M87.9,113.4h2.8v2.8h-2.8V113.4z M90.7,113.4
	h2.8v2.8h-2.8V113.4z M93.6,113.4h2.8v2.8h-2.8V113.4z M96.4,113.4h2.8v2.8h-2.8V113.4z M99.3,113.4h2.8v2.8h-2.8V113.4z
	 M107.8,113.4h2.8v2.8h-2.8V113.4z M110.6,113.4h2.8v2.8h-2.8V113.4z M113.4,113.4h2.8v2.8h-2.8V113.4z M116.3,113.4h2.8v2.8h-2.8
	C116.3,116.2,116.3,113.4,116.3,113.4z M119.1,113.4h2.8v2.8h-2.8V113.4z M121.9,113.4h2.8v2.8h-2.8V113.4z M124.8,113.4h2.8v2.8
	h-2.8V113.4z M127.6,113.4h2.8v2.8h-2.8V113.4z M136.1,113.4h2.8v2.8h-2.8V113.4z M22.7,116.3h2.8v2.8h-2.8V116.3z M28.4,116.3h2.8
	v2.8h-2.8V116.3z M39.7,116.3h2.8v2.8h-2.8V116.3z M42.6,116.3h2.8v2.8h-2.8V116.3z M45.4,116.3h2.8v2.8h-2.8V116.3z M48.2,116.3H51
	v2.8h-2.8V116.3z M51.1,116.3h2.8v2.8h-2.8C51.1,119.1,51.1,116.3,51.1,116.3z M62.4,116.3h2.8v2.8h-2.8V116.3z M73.7,116.3h2.8v2.8
	h-2.8V116.3z M76.6,116.3h2.8v2.8h-2.8V116.3z M79.4,116.3h2.8v2.8h-2.8V116.3z M90.7,116.3h2.8v2.8h-2.8V116.3z M96.4,116.3h2.8
	v2.8h-2.8V116.3z M104.9,116.3h2.8v2.8h-2.8V116.3z M107.8,116.3h2.8v2.8h-2.8V116.3z M113.4,116.3h2.8v2.8h-2.8V116.3z
	 M124.8,116.3h2.8v2.8h-2.8V116.3z M0,119.1h2.8v2.8H0V119.1z M2.9,119.1h2.8v2.8H2.9V119.1z M5.7,119.1h2.8v2.8H5.7V119.1z
	 M8.5,119.1h2.8v2.8H8.5V119.1z M11.4,119.1h2.8v2.8h-2.8V119.1z M14.2,119.1H17v2.8h-2.8V119.1z M17,119.1h2.8v2.8H17V119.1z
	 M25.6,119.1h2.8v2.8h-2.8V119.1z M28.4,119.1h2.8v2.8h-2.8V119.1z M31.2,119.1H34v2.8h-2.8V119.1z M34.1,119.1h2.8v2.8h-2.8V119.1z
	 M42.6,119.1h2.8v2.8h-2.8V119.1z M45.4,119.1h2.8v2.8h-2.8V119.1z M48.2,119.1H51v2.8h-2.8V119.1z M56.7,119.1h2.8v2.8h-2.8V119.1z
	 M59.6,119.1h2.8v2.8h-2.8V119.1z M62.4,119.1h2.8v2.8h-2.8V119.1z M68.1,119.1h2.8v2.8h-2.8V119.1z M73.7,119.1h2.8v2.8h-2.8V119.1
	z M76.6,119.1h2.8v2.8h-2.8V119.1z M85.1,119.1h2.8v2.8h-2.8V119.1z M87.9,119.1h2.8v2.8h-2.8V119.1z M90.7,119.1h2.8v2.8h-2.8
	V119.1z M93.6,119.1h2.8v2.8h-2.8V119.1z M99.3,119.1h2.8v2.8h-2.8V119.1z M113.4,119.1h2.8v2.8h-2.8V119.1z M119.1,119.1h2.8v2.8
	h-2.8V119.1z M124.8,119.1h2.8v2.8h-2.8V119.1z M127.6,119.1h2.8v2.8h-2.8V119.1z M133.3,119.1h2.8v2.8h-2.8V119.1z M136.1,119.1
	h2.8v2.8h-2.8V119.1z M0,121.9h2.8v2.8H0V121.9z M17,121.9h2.8v2.8H17V121.9z M25.6,121.9h2.8v2.8h-2.8V121.9z M31.2,121.9H34v2.8
	h-2.8V121.9z M34.1,121.9h2.8v2.8h-2.8V121.9z M42.6,121.9h2.8v2.8h-2.8V121.9z M45.4,121.9h2.8v2.8h-2.8V121.9z M48.2,121.9H51v2.8
	h-2.8V121.9z M51.1,121.9h2.8v2.8h-2.8C51.1,124.7,51.1,121.9,51.1,121.9z M53.9,121.9h2.8v2.8h-2.8V121.9z M56.7,121.9h2.8v2.8
	h-2.8V121.9z M59.6,121.9h2.8v2.8h-2.8V121.9z M62.4,121.9h2.8v2.8h-2.8V121.9z M73.7,121.9h2.8v2.8h-2.8V121.9z M76.6,121.9h2.8
	v2.8h-2.8V121.9z M82.2,121.9H85v2.8h-2.8V121.9z M85.1,121.9h2.8v2.8h-2.8V121.9z M87.9,121.9h2.8v2.8h-2.8V121.9z M90.7,121.9h2.8
	v2.8h-2.8V121.9z M93.6,121.9h2.8v2.8h-2.8V121.9z M96.4,121.9h2.8v2.8h-2.8V121.9z M99.3,121.9h2.8v2.8h-2.8V121.9z M104.9,121.9
	h2.8v2.8h-2.8V121.9z M107.8,121.9h2.8v2.8h-2.8V121.9z M110.6,121.9h2.8v2.8h-2.8V121.9z M113.4,121.9h2.8v2.8h-2.8V121.9z
	 M124.8,121.9h2.8v2.8h-2.8V121.9z M133.3,121.9h2.8v2.8h-2.8V121.9z M136.1,121.9h2.8v2.8h-2.8V121.9z M0,124.8h2.8v2.8H0V124.8z
	 M5.7,124.8h2.8v2.8H5.7V124.8z M8.5,124.8h2.8v2.8H8.5V124.8z M11.4,124.8h2.8v2.8h-2.8V124.8z M17,124.8h2.8v2.8H17V124.8z
	 M22.7,124.8h2.8v2.8h-2.8V124.8z M25.6,124.8h2.8v2.8h-2.8V124.8z M42.6,124.8h2.8v2.8h-2.8V124.8z M48.2,124.8H51v2.8h-2.8V124.8z
	 M56.7,124.8h2.8v2.8h-2.8V124.8z M59.6,124.8h2.8v2.8h-2.8V124.8z M62.4,124.8h2.8v2.8h-2.8V124.8z M65.2,124.8H68v2.8h-2.8V124.8z
	 M68.1,124.8h2.8v2.8h-2.8V124.8z M70.9,124.8h2.8v2.8h-2.8V124.8z M73.7,124.8h2.8v2.8h-2.8V124.8z M79.4,124.8h2.8v2.8h-2.8V124.8
	z M82.2,124.8H85v2.8h-2.8V124.8z M85.1,124.8h2.8v2.8h-2.8V124.8z M87.9,124.8h2.8v2.8h-2.8V124.8z M93.6,124.8h2.8v2.8h-2.8V124.8
	z M99.3,124.8h2.8v2.8h-2.8V124.8z M102.1,124.8h2.8v2.8h-2.8V124.8z M104.9,124.8h2.8v2.8h-2.8V124.8z M107.8,124.8h2.8v2.8h-2.8
	V124.8z M110.6,124.8h2.8v2.8h-2.8V124.8z M113.4,124.8h2.8v2.8h-2.8V124.8z M116.3,124.8h2.8v2.8h-2.8
	C116.3,127.6,116.3,124.8,116.3,124.8z M119.1,124.8h2.8v2.8h-2.8V124.8z M121.9,124.8h2.8v2.8h-2.8V124.8z M124.8,124.8h2.8v2.8
	h-2.8V124.8z M130.4,124.8h2.8v2.8h-2.8V124.8z M133.3,124.8h2.8v2.8h-2.8V124.8z M136.1,124.8h2.8v2.8h-2.8V124.8z M0,127.6h2.8
	v2.8H0V127.6z M5.7,127.6h2.8v2.8H5.7V127.6z M8.5,127.6h2.8v2.8H8.5V127.6z M11.4,127.6h2.8v2.8h-2.8V127.6z M17,127.6h2.8v2.8H17
	V127.6z M22.7,127.6h2.8v2.8h-2.8V127.6z M25.6,127.6h2.8v2.8h-2.8V127.6z M28.4,127.6h2.8v2.8h-2.8V127.6z M31.2,127.6H34v2.8h-2.8
	V127.6z M34.1,127.6h2.8v2.8h-2.8V127.6z M36.9,127.6h2.8v2.8h-2.8V127.6z M42.6,127.6h2.8v2.8h-2.8V127.6z M45.4,127.6h2.8v2.8
	h-2.8V127.6z M48.2,127.6H51v2.8h-2.8V127.6z M51.1,127.6h2.8v2.8h-2.8C51.1,130.4,51.1,127.6,51.1,127.6z M59.6,127.6h2.8v2.8h-2.8
	V127.6z M68.1,127.6h2.8v2.8h-2.8V127.6z M73.7,127.6h2.8v2.8h-2.8V127.6z M76.6,127.6h2.8v2.8h-2.8V127.6z M82.2,127.6H85v2.8h-2.8
	V127.6z M87.9,127.6h2.8v2.8h-2.8V127.6z M104.9,127.6h2.8v2.8h-2.8V127.6z M116.3,127.6h2.8v2.8h-2.8
	C116.3,130.4,116.3,127.6,116.3,127.6z M124.8,127.6h2.8v2.8h-2.8V127.6z M127.6,127.6h2.8v2.8h-2.8V127.6z M0,130.4h2.8v2.8H0
	V130.4z M5.7,130.4h2.8v2.8H5.7V130.4z M8.5,130.4h2.8v2.8H8.5V130.4z M11.4,130.4h2.8v2.8h-2.8V130.4z M17,130.4h2.8v2.8H17V130.4z
	 M22.7,130.4h2.8v2.8h-2.8V130.4z M28.4,130.4h2.8v2.8h-2.8V130.4z M34.1,130.4h2.8v2.8h-2.8V130.4z M36.9,130.4h2.8v2.8h-2.8V130.4
	z M42.6,130.4h2.8v2.8h-2.8V130.4z M45.4,130.4h2.8v2.8h-2.8V130.4z M53.9,130.4h2.8v2.8h-2.8V130.4z M56.7,130.4h2.8v2.8h-2.8
	V130.4z M59.6,130.4h2.8v2.8h-2.8V130.4z M62.4,130.4h2.8v2.8h-2.8V130.4z M65.2,130.4H68v2.8h-2.8V130.4z M73.7,130.4h2.8v2.8h-2.8
	V130.4z M76.6,130.4h2.8v2.8h-2.8V130.4z M79.4,130.4h2.8v2.8h-2.8V130.4z M90.7,130.4h2.8v2.8h-2.8V130.4z M96.4,130.4h2.8v2.8
	h-2.8V130.4z M102.1,130.4h2.8v2.8h-2.8V130.4z M107.8,130.4h2.8v2.8h-2.8V130.4z M110.6,130.4h2.8v2.8h-2.8V130.4z M121.9,130.4
	h2.8v2.8h-2.8V130.4z M130.4,130.4h2.8v2.8h-2.8V130.4z M136.1,130.4h2.8v2.8h-2.8V130.4z M0,133.3h2.8v2.8H0V133.3z M17,133.3h2.8
	v2.8H17V133.3z M25.6,133.3h2.8v2.8h-2.8V133.3z M28.4,133.3h2.8v2.8h-2.8V133.3z M42.6,133.3h2.8v2.8h-2.8V133.3z M87.9,133.3h2.8
	v2.8h-2.8V133.3z M90.7,133.3h2.8v2.8h-2.8V133.3z M96.4,133.3h2.8v2.8h-2.8V133.3z M116.3,133.3h2.8v2.8h-2.8
	C116.3,136.1,116.3,133.3,116.3,133.3z M121.9,133.3h2.8v2.8h-2.8V133.3z M136.1,133.3h2.8v2.8h-2.8V133.3z M0,136.1h2.8v2.8H0
	V136.1z M2.9,136.1h2.8v2.8H2.9V136.1z M5.7,136.1h2.8v2.8H5.7V136.1z M8.5,136.1h2.8v2.8H8.5V136.1z M11.4,136.1h2.8v2.8h-2.8
	V136.1z M14.2,136.1H17v2.8h-2.8V136.1z M17,136.1h2.8v2.8H17V136.1z M25.6,136.1h2.8v2.8h-2.8V136.1z M39.7,136.1h2.8v2.8h-2.8
	V136.1z M42.6,136.1h2.8v2.8h-2.8V136.1z M45.4,136.1h2.8v2.8h-2.8V136.1z M48.2,136.1H51v2.8h-2.8V136.1z M51.1,136.1h2.8v2.8h-2.8
	C51.1,138.9,51.1,136.1,51.1,136.1z M56.7,136.1h2.8v2.8h-2.8V136.1z M59.6,136.1h2.8v2.8h-2.8V136.1z M62.4,136.1h2.8v2.8h-2.8
	V136.1z M65.2,136.1H68v2.8h-2.8V136.1z M68.1,136.1h2.8v2.8h-2.8V136.1z M87.9,136.1h2.8v2.8h-2.8V136.1z M96.4,136.1h2.8v2.8h-2.8
	V136.1z M99.3,136.1h2.8v2.8h-2.8V136.1z M102.1,136.1h2.8v2.8h-2.8V136.1z M104.9,136.1h2.8v2.8h-2.8V136.1z M110.6,136.1h2.8v2.8
	h-2.8V136.1z M119.1,136.1h2.8v2.8h-2.8V136.1z M127.6,136.1h2.8v2.8h-2.8V136.1z M130.4,136.1h2.8v2.8h-2.8V136.1z M133.3,136.1
	h2.8v2.8h-2.8V136.1z M136.1,136.1h2.8v2.8h-2.8V136.1z"/>
<text transform="matrix(1 0 0 1 3.7008 152.6065)"><tspan x="0" y="0" class="st1 st2">Submit new features</tspan><tspan x="25.6" y="14.4" class="st1 st2">to win prizes</tspan></text>
</svg>
