<?xml version="1.0" encoding="UTF-8"?>
<svg id="Layer_1" xmlns="http://www.w3.org/2000/svg" version="1.1" viewBox="0 0 150 300">
  <!-- Generator: Adobe Illustrator 29.0.0, SVG Export Plug-In . SVG Version: 2.1.0 Build 186)  -->
  <defs>
    <style>
      .st0 {
        font-size: 16px;
      }

      .st0, .st1, .st2, .st3, .st4 {
        isolation: isolate;
      }

      .st0, .st1, .st5, .st6, .st3, .st4 {
        font-family: Montserrat-Bold, Montserrat;
        font-weight: 700;
      }

      .st1 {
        font-size: 28px;
      }

      .st7 {
        fill: #141414;
      }

      .st5 {
        font-size: 6px;
      }

      .st8, .st6 {
        fill: #fff;
      }

      .st6 {
        font-size: 2px;
      }

      .st3 {
        font-size: 14px;
      }

      .st9 {
        fill: #7f7f7f;
      }

      .st4 {
        font-size: 40px;
      }
    </style>
  </defs>
  <g>
    <path class="st7" d="M316.2-75.7h4.6v-.7h-4.6v.7ZM316.2-73.7h4.6v-.7h-4.6v.7ZM316.2-77.6h4.6v-.7h-4.6v.7ZM312.8-76.4h-4.6v.7h4.6v-.7ZM312.8-74.5h-4.6v.7h4.6v-.7ZM312.8-78.4h-4.6v.7h4.6v-.7ZM320.3-90.7c-1.9,0-3.9-.2-5.7-.2s-3.9,0-5.7.2v9.4h-18c.8,4.4,2.5,8.7,5.2,12.3.4-.5,1-.9,1.6-.9h11.2v9.7c1.8.5,3.8.8,5.7.8h0c0,0,0,0,0,0,1.9,0,3.9-.3,5.7-.8v-9.6h11.2c.7,0,1.3.3,1.6.8,2.7-3.6,4.5-7.8,5.2-12.3h-18v-9.4h0ZM311.2-87.7l2.4,1.2.9-2.5.9,2.5,2.4-1.2-1.1,2.4,2.5.9-2.5.9,1.2,2.4-2.4-1.2-.9,2.5-.9-2.5-2.4,1.2,1.2-2.4-2.5-.9,2.5-.9-1.3-2.4ZM302.7-72.2l-2.4-1.2-.9,2.5-.9-2.5-2.4,1.2,1.2-2.4-2.5-.9,2.5-.9-1.2-2.4,2.4,1.2.9-2.5.9,2.5,2.4-1.2-1.2,2.4,2.5.9-2.5.9,1.2,2.4ZM306.6-72.4h-1.1v-.8h1.1v.8h0ZM306.6-74.5h-1.1v-.8h1.1v.8h0ZM306.6-76.5h-1.1v-.8h1.1v.8h0ZM306.6-78.7h-1.1v-.8h1.1v.8h0ZM307.1-72.4v-7.4h5c1.1,0,1.9.9,1.9,1.8v6.3c-.4-.4-.9-.7-1.4-.7,0,0-4.1,0-5.5,0ZM317.9-62.6l-2.4-1.2-.9,2.5-.9-2.5-2.4,1.2,1.2-2.4-2.5-.9,2.5-.9-1.2-2.4,2.4,1.2.9-2.5.9,2.5,2.4-1.2-1.2,2.3,2.5.9-2.5.9c0,0,1.2,2.5,1.2,2.5ZM326.3-78.9l2.4,1.2.9-2.5.9,2.5,2.4-1.2-1.2,2.4,2.5.9-2.5.9,1.2,2.4-2.3-1.1-.9,2.5-1-2.5-2.4,1.2,1.2-2.4-2.5-.9,2.5-.9-1.2-2.5h0ZM322.5-79.4h1.1v.8h-1.1v-.8ZM322.5-77.3h1.1v.8h-1.1v-.8ZM322.5-75.3h1.1v.8h-1.1v-.8ZM322.5-73.2h1.1v.8h-1.1v-.8ZM321.9-79.9v7.5h-5.4c-.6,0-1.1.3-1.4.7v-6.3c0-1.1.9-1.8,1.9-1.8h4.9ZM331.3-111.8c-4.6-1-10.8-1.9-16.7-1.9-8.9,0-18.2,2.2-22.4,3.3-.8.2-1.4.4-1.8.5v20.2c2.7-.4,13.7-2.1,24.1-2.1s21.4,1.6,24.1,2.1v-20.2c-.4,0-1-.3-1.8-.5-1.7-.5-3.7-1-5.5-1.4ZM306.1-109.6c.4,0-.4-.7,0-.7s1.4,0,2.3.4c.2,0,.3-.2.6-.5h.2c.3.2.5.5.6.4.9-.4,1.9-.4,2.2-.4.6,0-.3.6,0,.7,1.9.5,3.3,2,3.3,4s0,1.1-.3,1.5c0,.3-.4-.5-.5,0-.2.8-.4,1.4-.8,2.1-.4.8-1.1-.8-1.3-.4-.4.8-1.3,1.1-1.8,1.2q0,0,0,0s.2-.2.2-.5h0c.5-.3.8-.8.9-1.3s.3-1.2.6-1.5c.5-.9,0-2,0-2.2.6-.4.8-1.2.4-1.7-.2-.4-.7-.6-1.1-.6s-.7.2-1,.5h0c0,0-.2.3-.3.4,0,.2,0,.4,0,.5.9.2,1.4,2.2,1.1,2.8-.2.3-.7,1.4-.7,1.6s-.3.7-.7.7-.6-.2-.7-.5h0c.3-.2.8-.5.8-.8v-1.1c.4,0,.6-.3.6-.7h0c.2-.2.3-.6,0-.6-.5,0-1,0-1.4.2,0,0,0,0,0,0,0,0,.3,1.4.3,1.6h-1.4c0-.3.4-1.6.4-1.6v-.2c0,0-1.4-.2-1.5-.3,0,0-.2,0-.2,0,0,.2,0,.4.3.5,0,.4.3.7.7.7h0c0,0,0,1.1,0,1.1,0,.4.6.7.8.8h0c0,.4-.4.5-.7.5s-.7-.3-.7-.7h0c0-.3-.5-1.4-.7-1.6-.4-.7.2-2.6,1.1-2.8.2,0,.3-.3.2-.5-.4-.4-.8-.9-1.4-.9s-1.3.6-1.3,1.3h0c0,.8.6,1,.6,1.2-.3.8-.3,1.5,0,2.1.2.4.4,1.1.6,1.5,0,.5.4.9.8,1.1.2,0,0,.3.2.5,0,0,0,0,.2.2s0,0,0,0c-.6,0-1.5-.3-1.9-1.2-.2-.4-.9,1.1-1.3.4-.4-.7-.6-1.4-.8-2.1,0-.4-.4.3-.5,0-.2-.5-.3-1.1-.3-1.5-.2-1.6,1.2-3.2,3.1-3.7ZM311.4-108.3h0c0-.2.2-.2.3-.2.3,0,.6.3.6.6s0,.3-.2.5h0c0-.4-.3-.7-.6-.9h0ZM310.1-101.8c0,.4-.7.3-1,.5h0c-.3-.2-.8,0-1-.5,0,0,0,0,0,0,.4,0,.7-.2.9-.5h0c.2.3.5.4,1,.6,0-.2,0,0,0,0ZM306.3-107.5h0c-.2,0-.3-.3-.3-.5,0-.3.3-.6.6-.6s.3,0,.4.2h0c-.3.4-.6.6-.7.9h0ZM301.2-100.1c-.4,0-.6,0-.9.3-.2,0-.2-.2,0-1,.2-.6-1-.9-1.2-.6-.4.3-1.4.9-2.2,0-.2-.2.4,0,.5-.3,0-.3.3-.4.4-.5,0,0,0-.2,0-.3-.3-.2-.7-.5-.6-1.1,0,0-.5,0-.3-.3.9-.8,1.8-.3,2.2,0,0,0,.2,0,.2,0,0-.3,0-.5.4-.9,0,0-.3-.5,0-.4,1.8.5,1,2.3,1.4,2.7.7.6,2.4,1.1,4,1.4,0,0,.6.2.8.3,1.3.7,2,.6,2.7.3.2,0,.2.2,0,.3-2.5,2.4-4.4,1.8-5.1,1.4-.5-.3-1.4-.3-1.8.3,0,0-.2,0-.3,0,0-.5,0-.8.2-1.1,0-.4-.3-.5-.4-.4h0ZM325.2-97.9c-.3.3-1,.6-1.9.6s-.6,0-.7.2,0,.2,0,.2c0,.2,0,.4,0,.6s0,.3,0,.3-.4,0-.8-.2-.2,0-.3,0c0,.2,0,.5.3.6,0,0,0,.3,0,.3-.4,0-.7,0-1.3-.3-.3-.2-.6-.2-.8,0,0,0,0,.3,0,.3.2.2.3.6-.2,1.3-.2.2-.4-.4-.5-.3-.7.3-1.3,0-1.5-.4,0,0-.2,0-.3,0-.4.3-1.2.6-1.4,0,0,0-.5.2-.5,0,0-1.2,1-1.4,1.4-1.4s.2,0,0-.2c-.2-.3-.4-.5-.3-.9,0-.3-.6-.3-.3-.5,1.3-.7,2,.6,2.2.7.4.2,2-.3,2.2-1.3,0-.2-.4-.3-.8-.4,0,0,0,0,0-.2,1.1-.8,1.8-1.7,3.7-1.9.2,0,.3,0,.3.2h0c0,.3,0,.6.2.8.3.6.6.9.9,1.2.5.5.4.7.3.8h0ZM332.9-98.4c.2,0,.2.2,0,.3,0,0-.3.2-.8.2s-.2,0-.2.2c0,.2.3.4.6.4s.2.2,0,.3c-.3.3-.6.3-1.3.3s-1.1.7-.7,1c.2.2.7.6.3,1.8,0,.4-.4-.3-.6-.2-.5.3-.9,0-1.1-.3,0,0-.2,0-.3,0-.2.3-.7.9-1.7.4-.2,0-.7.3-.7.2-.2-.8.3-1.3.6-1.4,0,0,.2-.2,0-.2s-.8,0-.8-.6-.5,0-.4-.2c0-.6,1.4-1,2.2-.4.8.5,1.6-1.2,1-1.9-.5-.6-3.3,1.1-4.2-1.1-.4-.8,0-1.5-.3-1.5-.4,0-2.2-.5-4.1,1.2-3.3,2.7-6.9,1.3-7.8.6,0,0-.3,0-.2.2,0,.4,0,.7,0,.9,0,.4-1.4,1-1.5,1-1.4.4-1.3,1.4-1.1,1.9q0,.2-.2.2c-.4,0-1.3-.4-1.6-1.2,0,0,0,0-.3,0-.5.4-.3.9-.2,1.2,0,0,0,.2,0,.2-.5,0-.9-.5-1.3-.5s-.6.2-.8.4c0,0,0,.2,0,.4.5,1.5-.3,1.6-.4,1.5,0,0,0-.3-.3-.3-.9,0-1.1-.5-1.2-.9,0,0,0-.2-.2,0-.3.2-1.1.7-1.6,0,0,0-.3,0-.5,0,0,0,0,0,0-.2,0-.7.4-1.2,1-1.4q0,0,0-.2c-.3-.2-.8-.6-.6-1.1,0,0-.4-.3-.3-.3,1-.7,2.2.5,2.4.6s1.1.2,3.3-1.1c1.4-.8,2.2-1.4,2.6-1.9,0,0,.2-.2.3-.2.9,0,1.8-.2,2.5-.8,0,0,.2,0,.3,0,1.3.9,1.9-1.1,2.2-2,0-.2,0-.3.3-.4,4.7.2,13.7.2,13.7.2,0,0,1.2,0,1.2-.7,0-1.2-5-1.2-8.7-.7-1.4.2-3.3.3-4.3-.2-.5-.2-.9-.5-1.1-.9-.2-.5-.2-.8,0-1.1,0-.2.2-.5.3-.7,1-1.4,3.1-1.5,3.8-1.5s.2,0,.2-.2c0-.3.3-1.1,1.3-1.2.3,0,.5,0,.7-.2,0,0,.2,0,.2,0,0,.2,0,.3-.2.4-.7.6-.6.8-.5.9h.2c1.9-1.6,3.1-.6,3.4-.2,0,0,0,.2,0,.2-1.4.3-1.8,1.4-4.5,1.3-.3,0-2.5,0-3.2.9-.4.6,0,1.1,1.1,1.4.9.2,3,0,4-.2,1,0,5.2-.6,7.4,0,1,.3,2.3,1.1,2,2.4-.2.9-1.1,1.3-1.1,1.3,0,0-2.4,1.7,1.9,1.7s0,1.2,0,1.4c0,.2.2.4.4.6ZM324.9-107.9c-.2,0-.4,0-.6.2-.4.3-1.9.9-2.4,0,0,0,1.1,0,1.8-.7,0,0,.8-.3,1.3.2s0,.2,0,.2h0ZM314.6-116.6c-14.9,0-29.5,4-29.5,4v19.7c0,17.8,12.7,36.1,29.5,39.3,17.5-3.4,29.6-21.6,29.6-39.3v-19.7c0,0-12.4-4-29.6-4ZM339.8-85.8c0,14.5-11,27.5-25.2,27.5h0c-14.2,0-25.2-13.1-25.2-27.5v-24.9h.4c0,0,12.7-4.1,24.8-4.1s24.8,4,24.8,4h.4v25h0Z"/>
    <path id="qr-path" d="M247.5-152.2h2.7v2.7h-2.7v-2.7ZM250.3-152.2h2.7v2.7h-2.7v-2.7ZM253-152.2h2.7v2.7h-2.7v-2.7ZM255.7-152.2h2.7v2.7h-2.7v-2.7ZM258.5-152.2h2.7v2.7h-2.7v-2.7ZM261.2-152.2h2.7v2.7h-2.7v-2.7ZM263.9-152.2h2.7v2.7h-2.7v-2.7ZM269.4-152.2h2.7v2.7h-2.7v-2.7ZM272.2-152.2h2.7v2.7h-2.7v-2.7ZM274.9-152.2h2.7v2.7h-2.7v-2.7ZM285.8-152.2h2.7v2.7h-2.7v-2.7ZM288.6-152.2h2.7v2.7h-2.7v-2.7ZM294-152.2h2.7v2.7h-2.7v-2.7ZM307.7-152.2h2.7v2.7h-2.7s0-2.7,0-2.7ZM310.4-152.2h2.7v2.7h-2.7v-2.7ZM318.6-152.2h2.7v2.7h-2.7v-2.7ZM326.8-152.2h2.7v2.7h-2.7v-2.7ZM329.6-152.2h2.7v2.7h-2.7v-2.7ZM343.3-152.2h2.7v2.7h-2.7v-2.7ZM356.9-152.2h2.7v2.7h-2.7v-2.7ZM362.4-152.2h2.7v2.7h-2.7v-2.7ZM365.1-152.2h2.7v2.7h-2.7v-2.7ZM367.9-152.2h2.7v2.7h-2.7v-2.7ZM370.6-152.2h2.7v2.7h-2.7s0-2.7,0-2.7ZM373.3-152.2h2.7v2.7h-2.7v-2.7ZM376.1-152.2h2.7v2.7h-2.7v-2.7ZM378.8-152.2h2.7v2.7h-2.7v-2.7ZM247.5-149.4h2.7v2.7h-2.7v-2.7ZM263.9-149.4h2.7v2.7h-2.7v-2.7ZM269.4-149.4h2.7v2.7h-2.7v-2.7ZM272.2-149.4h2.7v2.7h-2.7v-2.7ZM285.8-149.4h2.7v2.7h-2.7v-2.7ZM291.3-149.4h2.7v2.7h-2.7v-2.7ZM299.5-149.4h2.7v2.7h-2.7v-2.7ZM302.2-149.4h2.7v2.7h-2.7v-2.7ZM305-149.4h2.7v2.7h-2.7v-2.7ZM310.4-149.4h2.7v2.7h-2.7v-2.7ZM315.9-149.4h2.7v2.7h-2.7v-2.7ZM324.1-149.4h2.7v2.7h-2.7v-2.7ZM329.6-149.4h2.7v2.7h-2.7v-2.7ZM332.3-149.4h2.7v2.7h-2.7v-2.7ZM340.5-149.4h2.7v2.7h-2.7v-2.7ZM346-149.4h2.7v2.7h-2.7v-2.7ZM348.7-149.4h2.7v2.7h-2.7v-2.7ZM351.5-149.4h2.7v2.7h-2.7v-2.7ZM354.2-149.4h2.7v2.7h-2.7v-2.7ZM356.9-149.4h2.7v2.7h-2.7v-2.7ZM362.4-149.4h2.7v2.7h-2.7v-2.7ZM378.8-149.4h2.7v2.7h-2.7v-2.7ZM247.5-146.7h2.7v2.7h-2.7v-2.7ZM253-146.7h2.7v2.7h-2.7v-2.7ZM255.7-146.7h2.7v2.7h-2.7v-2.7ZM258.5-146.7h2.7v2.7h-2.7v-2.7ZM263.9-146.7h2.7v2.7h-2.7v-2.7ZM269.4-146.7h2.7v2.7h-2.7v-2.7ZM277.6-146.7h2.7v2.7h-2.7v-2.7ZM280.4-146.7h2.7v2.7h-2.7v-2.7ZM283.1-146.7h2.7v2.7h-2.7v-2.7ZM285.8-146.7h2.7v2.7h-2.7v-2.7ZM294-146.7h2.7v2.7h-2.7v-2.7ZM302.2-146.7h2.7v2.7h-2.7v-2.7ZM305-146.7h2.7v2.7h-2.7v-2.7ZM310.4-146.7h2.7v2.7h-2.7v-2.7ZM315.9-146.7h2.7v2.7h-2.7v-2.7ZM329.6-146.7h2.7v2.7h-2.7v-2.7ZM332.3-146.7h2.7v2.7h-2.7v-2.7ZM340.5-146.7h2.7v2.7h-2.7v-2.7ZM343.3-146.7h2.7v2.7h-2.7v-2.7ZM354.2-146.7h2.7v2.7h-2.7v-2.7ZM356.9-146.7h2.7v2.7h-2.7v-2.7ZM362.4-146.7h2.7v2.7h-2.7v-2.7ZM367.9-146.7h2.7v2.7h-2.7v-2.7ZM370.6-146.7h2.7v2.7h-2.7s0-2.7,0-2.7ZM373.3-146.7h2.7v2.7h-2.7v-2.7ZM378.8-146.7h2.7v2.7h-2.7v-2.7ZM247.5-144h2.7v2.7h-2.7v-2.7ZM253-144h2.7v2.7h-2.7v-2.7ZM255.7-144h2.7v2.7h-2.7v-2.7ZM258.5-144h2.7v2.7h-2.7v-2.7ZM263.9-144h2.7v2.7h-2.7v-2.7ZM274.9-144h2.7v2.7h-2.7v-2.7ZM277.6-144h2.7v2.7h-2.7v-2.7ZM285.8-144h2.7v2.7h-2.7v-2.7ZM291.3-144h2.7v2.7h-2.7v-2.7ZM305-144h2.7v2.7h-2.7v-2.7ZM307.7-144h2.7v2.7h-2.7s0-2.7,0-2.7ZM310.4-144h2.7v2.7h-2.7v-2.7ZM315.9-144h2.7v2.7h-2.7v-2.7ZM318.6-144h2.7v2.7h-2.7v-2.7ZM321.4-144h2.7v2.7h-2.7v-2.7ZM324.1-144h2.7v2.7h-2.7v-2.7ZM326.8-144h2.7v2.7h-2.7v-2.7ZM329.6-144h2.7v2.7h-2.7v-2.7ZM335-144h2.7v2.7h-2.7v-2.7ZM343.3-144h2.7v2.7h-2.7v-2.7ZM346-144h2.7v2.7h-2.7v-2.7ZM348.7-144h2.7v2.7h-2.7v-2.7ZM354.2-144h2.7v2.7h-2.7v-2.7ZM362.4-144h2.7v2.7h-2.7v-2.7ZM367.9-144h2.7v2.7h-2.7v-2.7ZM370.6-144h2.7v2.7h-2.7s0-2.7,0-2.7ZM373.3-144h2.7v2.7h-2.7v-2.7ZM378.8-144h2.7v2.7h-2.7v-2.7ZM247.5-141.2h2.7v2.7h-2.7v-2.7ZM253-141.2h2.7v2.7h-2.7v-2.7ZM255.7-141.2h2.7v2.7h-2.7v-2.7ZM258.5-141.2h2.7v2.7h-2.7v-2.7ZM263.9-141.2h2.7v2.7h-2.7v-2.7ZM274.9-141.2h2.7v2.7h-2.7v-2.7ZM280.4-141.2h2.7v2.7h-2.7v-2.7ZM294-141.2h2.7v2.7h-2.7v-2.7ZM296.8-141.2h2.7v2.7h-2.7v-2.7ZM302.2-141.2h2.7v2.7h-2.7v-2.7ZM305-141.2h2.7v2.7h-2.7v-2.7ZM307.7-141.2h2.7v2.7h-2.7s0-2.7,0-2.7ZM310.4-141.2h2.7v2.7h-2.7v-2.7ZM313.2-141.2h2.7v2.7h-2.7v-2.7ZM315.9-141.2h2.7v2.7h-2.7v-2.7ZM318.6-141.2h2.7v2.7h-2.7v-2.7ZM324.1-141.2h2.7v2.7h-2.7v-2.7ZM329.6-141.2h2.7v2.7h-2.7v-2.7ZM332.3-141.2h2.7v2.7h-2.7v-2.7ZM335-141.2h2.7v2.7h-2.7v-2.7ZM343.3-141.2h2.7v2.7h-2.7v-2.7ZM346-141.2h2.7v2.7h-2.7v-2.7ZM348.7-141.2h2.7v2.7h-2.7v-2.7ZM362.4-141.2h2.7v2.7h-2.7v-2.7ZM367.9-141.2h2.7v2.7h-2.7v-2.7ZM370.6-141.2h2.7v2.7h-2.7s0-2.7,0-2.7ZM373.3-141.2h2.7v2.7h-2.7v-2.7ZM378.8-141.2h2.7v2.7h-2.7v-2.7ZM247.5-138.5h2.7v2.7h-2.7v-2.7ZM263.9-138.5h2.7v2.7h-2.7v-2.7ZM269.4-138.5h2.7v2.7h-2.7v-2.7ZM272.2-138.5h2.7v2.7h-2.7v-2.7ZM274.9-138.5h2.7v2.7h-2.7v-2.7ZM280.4-138.5h2.7v2.7h-2.7v-2.7ZM283.1-138.5h2.7v2.7h-2.7v-2.7ZM288.6-138.5h2.7v2.7h-2.7v-2.7ZM294-138.5h2.7v2.7h-2.7v-2.7ZM305-138.5h2.7v2.7h-2.7v-2.7ZM307.7-138.5h2.7v2.7h-2.7s0-2.7,0-2.7ZM318.6-138.5h2.7v2.7h-2.7v-2.7ZM321.4-138.5h2.7v2.7h-2.7v-2.7ZM324.1-138.5h2.7v2.7h-2.7v-2.7ZM326.8-138.5h2.7v2.7h-2.7v-2.7ZM332.3-138.5h2.7v2.7h-2.7v-2.7ZM337.8-138.5h2.7v2.7h-2.7v-2.7ZM340.5-138.5h2.7v2.7h-2.7v-2.7ZM351.5-138.5h2.7v2.7h-2.7v-2.7ZM362.4-138.5h2.7v2.7h-2.7v-2.7ZM378.8-138.5h2.7v2.7h-2.7v-2.7ZM247.5-135.8h2.7v2.7h-2.7v-2.7ZM250.3-135.8h2.7v2.7h-2.7v-2.7ZM253-135.8h2.7v2.7h-2.7v-2.7ZM255.7-135.8h2.7v2.7h-2.7v-2.7ZM258.5-135.8h2.7v2.7h-2.7v-2.7ZM261.2-135.8h2.7v2.7h-2.7v-2.7ZM263.9-135.8h2.7v2.7h-2.7v-2.7ZM269.4-135.8h2.7v2.7h-2.7v-2.7ZM274.9-135.8h2.7v2.7h-2.7v-2.7ZM280.4-135.8h2.7v2.7h-2.7v-2.7ZM285.8-135.8h2.7v2.7h-2.7v-2.7ZM291.3-135.8h2.7v2.7h-2.7v-2.7ZM296.8-135.8h2.7v2.7h-2.7v-2.7ZM302.2-135.8h2.7v2.7h-2.7v-2.7ZM307.7-135.8h2.7v2.7h-2.7s0-2.7,0-2.7ZM313.2-135.8h2.7v2.7h-2.7v-2.7ZM318.6-135.8h2.7v2.7h-2.7v-2.7ZM324.1-135.8h2.7v2.7h-2.7v-2.7ZM329.6-135.8h2.7v2.7h-2.7v-2.7ZM335-135.8h2.7v2.7h-2.7v-2.7ZM340.5-135.8h2.7v2.7h-2.7v-2.7ZM346-135.8h2.7v2.7h-2.7v-2.7ZM351.5-135.8h2.7v2.7h-2.7v-2.7ZM356.9-135.8h2.7v2.7h-2.7v-2.7ZM362.4-135.8h2.7v2.7h-2.7v-2.7ZM365.1-135.8h2.7v2.7h-2.7v-2.7ZM367.9-135.8h2.7v2.7h-2.7v-2.7ZM370.6-135.8h2.7v2.7h-2.7s0-2.7,0-2.7ZM373.3-135.8h2.7v2.7h-2.7v-2.7ZM376.1-135.8h2.7v2.7h-2.7v-2.7ZM378.8-135.8h2.7v2.7h-2.7v-2.7ZM269.4-133h2.7v2.7h-2.7v-2.7ZM274.9-133h2.7v2.7h-2.7v-2.7ZM280.4-133h2.7v2.7h-2.7v-2.7ZM283.1-133h2.7v2.7h-2.7v-2.7ZM288.6-133h2.7v2.7h-2.7v-2.7ZM291.3-133h2.7v2.7h-2.7v-2.7ZM294-133h2.7v2.7h-2.7v-2.7ZM296.8-133h2.7v2.7h-2.7s0-2.7,0-2.7ZM299.5-133h2.7v2.7h-2.7v-2.7ZM302.2-133h2.7v2.7h-2.7v-2.7ZM307.7-133h2.7v2.7h-2.7s0-2.7,0-2.7ZM318.6-133h2.7v2.7h-2.7v-2.7ZM321.4-133h2.7v2.7h-2.7v-2.7ZM329.6-133h2.7v2.7h-2.7v-2.7ZM332.3-133h2.7v2.7h-2.7v-2.7ZM335-133h2.7v2.7h-2.7v-2.7ZM340.5-133h2.7v2.7h-2.7v-2.7ZM346-133h2.7v2.7h-2.7v-2.7ZM348.7-133h2.7v2.7h-2.7v-2.7ZM351.5-133h2.7v2.7h-2.7v-2.7ZM356.9-133h2.7v2.7h-2.7v-2.7ZM253-130.3h2.7v2.7h-2.7v-2.7ZM255.7-130.3h2.7v2.7h-2.7v-2.7ZM258.5-130.3h2.7v2.7h-2.7v-2.7ZM263.9-130.3h2.7v2.7h-2.7v-2.7ZM269.4-130.3h2.7v2.7h-2.7v-2.7ZM272.2-130.3h2.7v2.7h-2.7v-2.7ZM277.6-130.3h2.7v2.7h-2.7v-2.7ZM283.1-130.3h2.7v2.7h-2.7v-2.7ZM285.8-130.3h2.7v2.7h-2.7v-2.7ZM288.6-130.3h2.7v2.7h-2.7v-2.7ZM296.8-130.3h2.7v2.7h-2.7v-2.7ZM299.5-130.3h2.7v2.7h-2.7v-2.7ZM302.2-130.3h2.7v2.7h-2.7v-2.7ZM307.7-130.3h2.7v2.7h-2.7s0-2.7,0-2.7ZM310.4-130.3h2.7v2.7h-2.7v-2.7ZM313.2-130.3h2.7v2.7h-2.7v-2.7ZM315.9-130.3h2.7v2.7h-2.7v-2.7ZM318.6-130.3h2.7v2.7h-2.7v-2.7ZM321.4-130.3h2.7v2.7h-2.7v-2.7ZM329.6-130.3h2.7v2.7h-2.7v-2.7ZM335-130.3h2.7v2.7h-2.7v-2.7ZM337.8-130.3h2.7v2.7h-2.7v-2.7ZM340.5-130.3h2.7v2.7h-2.7v-2.7ZM343.3-130.3h2.7v2.7h-2.7v-2.7ZM351.5-130.3h2.7v2.7h-2.7v-2.7ZM356.9-130.3h2.7v2.7h-2.7v-2.7ZM359.7-130.3h2.7v2.7h-2.7v-2.7ZM362.4-130.3h2.7v2.7h-2.7v-2.7ZM365.1-130.3h2.7v2.7h-2.7v-2.7ZM373.3-130.3h2.7v2.7h-2.7v-2.7ZM376.1-130.3h2.7v2.7h-2.7v-2.7ZM378.8-130.3h2.7v2.7h-2.7v-2.7ZM250.3-127.5h2.7v2.7h-2.7v-2.7ZM255.7-127.5h2.7v2.7h-2.7v-2.7ZM258.5-127.5h2.7v2.7h-2.7v-2.7ZM269.4-127.5h2.7v2.7h-2.7v-2.7ZM272.2-127.5h2.7v2.7h-2.7v-2.7ZM274.9-127.5h2.7v2.7h-2.7v-2.7ZM277.6-127.5h2.7v2.7h-2.7v-2.7ZM288.6-127.5h2.7v2.7h-2.7v-2.7ZM294-127.5h2.7v2.7h-2.7v-2.7ZM307.7-127.5h2.7v2.7h-2.7s0-2.7,0-2.7ZM313.2-127.5h2.7v2.7h-2.7v-2.7ZM321.4-127.5h2.7v2.7h-2.7v-2.7ZM329.6-127.5h2.7v2.7h-2.7v-2.7ZM332.3-127.5h2.7v2.7h-2.7v-2.7ZM340.5-127.5h2.7v2.7h-2.7v-2.7ZM348.7-127.5h2.7v2.7h-2.7v-2.7ZM351.5-127.5h2.7v2.7h-2.7v-2.7ZM362.4-127.5h2.7v2.7h-2.7v-2.7ZM365.1-127.5h2.7v2.7h-2.7v-2.7ZM373.3-127.5h2.7v2.7h-2.7v-2.7ZM253-124.8h2.7v2.7h-2.7v-2.7ZM258.5-124.8h2.7v2.7h-2.7v-2.7ZM261.2-124.8h2.7v2.7h-2.7v-2.7ZM263.9-124.8h2.7v2.7h-2.7v-2.7ZM266.7-124.8h2.7v2.7h-2.7v-2.7ZM269.4-124.8h2.7v2.7h-2.7v-2.7ZM272.2-124.8h2.7v2.7h-2.7v-2.7ZM285.8-124.8h2.7v2.7h-2.7v-2.7ZM288.6-124.8h2.7v2.7h-2.7v-2.7ZM299.5-124.8h2.7v2.7h-2.7v-2.7ZM302.2-124.8h2.7v2.7h-2.7v-2.7ZM310.4-124.8h2.7v2.7h-2.7v-2.7ZM313.2-124.8h2.7v2.7h-2.7v-2.7ZM324.1-124.8h2.7v2.7h-2.7v-2.7ZM326.8-124.8h2.7v2.7h-2.7v-2.7ZM337.8-124.8h2.7v2.7h-2.7v-2.7ZM343.3-124.8h2.7v2.7h-2.7v-2.7ZM354.2-124.8h2.7v2.7h-2.7v-2.7ZM359.7-124.8h2.7v2.7h-2.7s0-2.7,0-2.7ZM362.4-124.8h2.7v2.7h-2.7v-2.7ZM370.6-124.8h2.7v2.7h-2.7s0-2.7,0-2.7ZM373.3-124.8h2.7v2.7h-2.7v-2.7ZM378.8-124.8h2.7v2.7h-2.7v-2.7ZM247.5-122.1h2.7v2.7h-2.7v-2.7ZM250.3-122.1h2.7v2.7h-2.7v-2.7ZM253-122.1h2.7v2.7h-2.7v-2.7ZM258.5-122.1h2.7v2.7h-2.7v-2.7ZM261.2-122.1h2.7v2.7h-2.7v-2.7ZM266.7-122.1h2.7v2.7h-2.7v-2.7ZM269.4-122.1h2.7v2.7h-2.7v-2.7ZM277.6-122.1h2.7v2.7h-2.7v-2.7ZM280.4-122.1h2.7v2.7h-2.7v-2.7ZM283.1-122.1h2.7v2.7h-2.7v-2.7ZM285.8-122.1h2.7v2.7h-2.7v-2.7ZM291.3-122.1h2.7v2.7h-2.7v-2.7ZM296.8-122.1h2.7v2.7h-2.7v-2.7ZM299.5-122.1h2.7v2.7h-2.7v-2.7ZM302.2-122.1h2.7v2.7h-2.7v-2.7ZM305-122.1h2.7v2.7h-2.7v-2.7ZM307.7-122.1h2.7v2.7h-2.7s0-2.7,0-2.7ZM310.4-122.1h2.7v2.7h-2.7v-2.7ZM313.2-122.1h2.7v2.7h-2.7v-2.7ZM315.9-122.1h2.7v2.7h-2.7v-2.7ZM318.6-122.1h2.7v2.7h-2.7v-2.7ZM321.4-122.1h2.7v2.7h-2.7v-2.7ZM326.8-122.1h2.7v2.7h-2.7v-2.7ZM329.6-122.1h2.7v2.7h-2.7v-2.7ZM332.3-122.1h2.7v2.7h-2.7v-2.7ZM340.5-122.1h2.7v2.7h-2.7v-2.7ZM343.3-122.1h2.7v2.7h-2.7v-2.7ZM346-122.1h2.7v2.7h-2.7v-2.7ZM348.7-122.1h2.7v2.7h-2.7v-2.7ZM351.5-122.1h2.7v2.7h-2.7v-2.7ZM362.4-122.1h2.7v2.7h-2.7v-2.7ZM367.9-122.1h2.7v2.7h-2.7v-2.7ZM373.3-122.1h2.7v2.7h-2.7v-2.7ZM376.1-122.1h2.7v2.7h-2.7v-2.7ZM378.8-122.1h2.7v2.7h-2.7v-2.7ZM247.5-119.3h2.7v2.7h-2.7v-2.7ZM250.3-119.3h2.7v2.7h-2.7v-2.7ZM253-119.3h2.7v2.7h-2.7v-2.7ZM258.5-119.3h2.7v2.7h-2.7v-2.7ZM263.9-119.3h2.7v2.7h-2.7v-2.7ZM266.7-119.3h2.7v2.7h-2.7v-2.7ZM269.4-119.3h2.7v2.7h-2.7v-2.7ZM272.2-119.3h2.7v2.7h-2.7v-2.7ZM280.4-119.3h2.7v2.7h-2.7v-2.7ZM283.1-119.3h2.7v2.7h-2.7v-2.7ZM285.8-119.3h2.7v2.7h-2.7v-2.7ZM296.8-119.3h2.7v2.7h-2.7s0-2.7,0-2.7ZM302.2-119.3h2.7v2.7h-2.7v-2.7ZM326.8-119.3h2.7v2.7h-2.7v-2.7ZM332.3-119.3h2.7v2.7h-2.7v-2.7ZM337.8-119.3h2.7v2.7h-2.7v-2.7ZM340.5-119.3h2.7v2.7h-2.7v-2.7ZM346-119.3h2.7v2.7h-2.7v-2.7ZM351.5-119.3h2.7v2.7h-2.7v-2.7ZM354.2-119.3h2.7v2.7h-2.7v-2.7ZM356.9-119.3h2.7v2.7h-2.7v-2.7ZM359.7-119.3h2.7v2.7h-2.7s0-2.7,0-2.7ZM362.4-119.3h2.7v2.7h-2.7v-2.7ZM370.6-119.3h2.7v2.7h-2.7s0-2.7,0-2.7ZM247.5-116.6h2.7v2.7h-2.7v-2.7ZM261.2-116.6h2.7v2.7h-2.7v-2.7ZM266.7-116.6h2.7v2.7h-2.7v-2.7ZM274.9-116.6h2.7v2.7h-2.7v-2.7ZM283.1-116.6h2.7v2.7h-2.7v-2.7ZM343.3-116.6h2.7v2.7h-2.7v-2.7ZM346-116.6h2.7v2.7h-2.7v-2.7ZM348.7-116.6h2.7v2.7h-2.7v-2.7ZM351.5-116.6h2.7v2.7h-2.7v-2.7ZM354.2-116.6h2.7v2.7h-2.7v-2.7ZM362.4-116.6h2.7v2.7h-2.7v-2.7ZM367.9-116.6h2.7v2.7h-2.7v-2.7ZM370.6-116.6h2.7v2.7h-2.7s0-2.7,0-2.7ZM250.3-113.9h2.7v2.7h-2.7v-2.7ZM261.2-113.9h2.7v2.7h-2.7v-2.7ZM263.9-113.9h2.7v2.7h-2.7v-2.7ZM266.7-113.9h2.7v2.7h-2.7v-2.7ZM269.4-113.9h2.7v2.7h-2.7v-2.7ZM274.9-113.9h2.7v2.7h-2.7v-2.7ZM280.4-113.9h2.7v2.7h-2.7v-2.7ZM346-113.9h2.7v2.7h-2.7v-2.7ZM354.2-113.9h2.7v2.7h-2.7v-2.7ZM356.9-113.9h2.7v2.7h-2.7v-2.7ZM359.7-113.9h2.7v2.7h-2.7v-2.7ZM362.4-113.9h2.7v2.7h-2.7v-2.7ZM376.1-113.9h2.7v2.7h-2.7v-2.7ZM378.8-113.9h2.7v2.7h-2.7v-2.7ZM250.3-111.1h2.7v2.7h-2.7v-2.7ZM253-111.1h2.7v2.7h-2.7v-2.7ZM258.5-111.1h2.7v2.7h-2.7v-2.7ZM272.2-111.1h2.7v2.7h-2.7v-2.7ZM274.9-111.1h2.7v2.7h-2.7v-2.7ZM346-111.1h2.7v2.7h-2.7v-2.7ZM354.2-111.1h2.7v2.7h-2.7v-2.7ZM356.9-111.1h2.7v2.7h-2.7v-2.7ZM359.7-111.1h2.7v2.7h-2.7s0-2.7,0-2.7ZM367.9-111.1h2.7v2.7h-2.7v-2.7ZM370.6-111.1h2.7v2.7h-2.7s0-2.7,0-2.7ZM378.8-111.1h2.7v2.7h-2.7v-2.7ZM247.5-108.4h2.7v2.7h-2.7v-2.7ZM250.3-108.4h2.7v2.7h-2.7v-2.7ZM253-108.4h2.7v2.7h-2.7v-2.7ZM255.7-108.4h2.7v2.7h-2.7v-2.7ZM261.2-108.4h2.7v2.7h-2.7v-2.7ZM263.9-108.4h2.7v2.7h-2.7v-2.7ZM266.7-108.4h2.7v2.7h-2.7v-2.7ZM269.4-108.4h2.7v2.7h-2.7v-2.7ZM346-108.4h2.7v2.7h-2.7v-2.7ZM348.7-108.4h2.7v2.7h-2.7v-2.7ZM354.2-108.4h2.7v2.7h-2.7v-2.7ZM365.1-108.4h2.7v2.7h-2.7v-2.7ZM376.1-108.4h2.7v2.7h-2.7v-2.7ZM378.8-108.4h2.7v2.7h-2.7v-2.7ZM247.5-105.7h2.7v2.7h-2.7v-2.7ZM253-105.7h2.7v2.7h-2.7v-2.7ZM255.7-105.7h2.7v2.7h-2.7v-2.7ZM269.4-105.7h2.7v2.7h-2.7v-2.7ZM274.9-105.7h2.7v2.7h-2.7v-2.7ZM277.6-105.7h2.7v2.7h-2.7v-2.7ZM280.4-105.7h2.7v2.7h-2.7v-2.7ZM346-105.7h2.7v2.7h-2.7v-2.7ZM356.9-105.7h2.7v2.7h-2.7v-2.7ZM359.7-105.7h2.7v2.7h-2.7v-2.7ZM365.1-105.7h2.7v2.7h-2.7v-2.7ZM367.9-105.7h2.7v2.7h-2.7v-2.7ZM370.6-105.7h2.7v2.7h-2.7s0-2.7,0-2.7ZM373.3-105.7h2.7v2.7h-2.7v-2.7ZM250.3-102.9h2.7v2.7h-2.7v-2.7ZM255.7-102.9h2.7v2.7h-2.7v-2.7ZM258.5-102.9h2.7v2.7h-2.7v-2.7ZM263.9-102.9h2.7v2.7h-2.7v-2.7ZM269.4-102.9h2.7v2.7h-2.7v-2.7ZM272.2-102.9h2.7v2.7h-2.7v-2.7ZM274.9-102.9h2.7v2.7h-2.7v-2.7ZM346-102.9h2.7v2.7h-2.7v-2.7ZM348.7-102.9h2.7v2.7h-2.7v-2.7ZM354.2-102.9h2.7v2.7h-2.7v-2.7ZM356.9-102.9h2.7v2.7h-2.7v-2.7ZM362.4-102.9h2.7v2.7h-2.7v-2.7ZM365.1-102.9h2.7v2.7h-2.7v-2.7ZM367.9-102.9h2.7v2.7h-2.7v-2.7ZM370.6-102.9h2.7v2.7h-2.7s0-2.7,0-2.7ZM378.8-102.9h2.7v2.7h-2.7v-2.7ZM247.5-100.2h2.7v2.7h-2.7v-2.7ZM250.3-100.2h2.7v2.7h-2.7v-2.7ZM258.5-100.2h2.7v2.7h-2.7v-2.7ZM261.2-100.2h2.7v2.7h-2.7v-2.7ZM277.6-100.2h2.7v2.7h-2.7v-2.7ZM348.7-100.2h2.7v2.7h-2.7v-2.7ZM351.5-100.2h2.7v2.7h-2.7v-2.7ZM356.9-100.2h2.7v2.7h-2.7v-2.7ZM362.4-100.2h2.7v2.7h-2.7v-2.7ZM365.1-100.2h2.7v2.7h-2.7v-2.7ZM367.9-100.2h2.7v2.7h-2.7v-2.7ZM247.5-97.5h2.7v2.7h-2.7v-2.7ZM250.3-97.5h2.7v2.7h-2.7v-2.7ZM258.5-97.5h2.7v2.7h-2.7v-2.7ZM263.9-97.5h2.7v2.7h-2.7v-2.7ZM266.7-97.5h2.7v2.7h-2.7v-2.7ZM269.4-97.5h2.7v2.7h-2.7v-2.7ZM274.9-97.5h2.7v2.7h-2.7v-2.7ZM346-97.5h2.7v2.7h-2.7v-2.7ZM348.7-97.5h2.7v2.7h-2.7v-2.7ZM351.5-97.5h2.7v2.7h-2.7v-2.7ZM362.4-97.5h2.7v2.7h-2.7v-2.7ZM365.1-97.5h2.7v2.7h-2.7v-2.7ZM373.3-97.5h2.7v2.7h-2.7v-2.7ZM378.8-97.5h2.7v2.7h-2.7v-2.7ZM250.3-94.7h2.7v2.7h-2.7v-2.7ZM255.7-94.7h2.7v2.7h-2.7v-2.7ZM258.5-94.7h2.7v2.7h-2.7v-2.7ZM261.2-94.7h2.7v2.7h-2.7v-2.7ZM269.4-94.7h2.7v2.7h-2.7v-2.7ZM272.2-94.7h2.7v2.7h-2.7v-2.7ZM274.9-94.7h2.7v2.7h-2.7v-2.7ZM346-94.7h2.7v2.7h-2.7v-2.7ZM354.2-94.7h2.7v2.7h-2.7v-2.7ZM359.7-94.7h2.7v2.7h-2.7s0-2.7,0-2.7ZM362.4-94.7h2.7v2.7h-2.7v-2.7ZM373.3-94.7h2.7v2.7h-2.7v-2.7ZM250.3-92h2.7v2.7h-2.7v-2.7ZM258.5-92h2.7v2.7h-2.7v-2.7ZM261.2-92h2.7v2.7h-2.7v-2.7ZM263.9-92h2.7v2.7h-2.7v-2.7ZM266.7-92h2.7v2.7h-2.7v-2.7ZM269.4-92h2.7v2.7h-2.7v-2.7ZM272.2-92h2.7v2.7h-2.7v-2.7ZM346-92h2.7v2.7h-2.7v-2.7ZM351.5-92h2.7v2.7h-2.7v-2.7ZM356.9-92h2.7v2.7h-2.7v-2.7ZM359.7-92h2.7v2.7h-2.7v-2.7ZM362.4-92h2.7v2.7h-2.7v-2.7ZM365.1-92h2.7v2.7h-2.7v-2.7ZM367.9-92h2.7v2.7h-2.7v-2.7ZM370.6-92h2.7v2.7h-2.7s0-2.7,0-2.7ZM373.3-92h2.7v2.7h-2.7v-2.7ZM376.1-92h2.7v2.7h-2.7v-2.7ZM378.8-92h2.7v2.7h-2.7v-2.7ZM247.5-89.3h2.7v2.7h-2.7v-2.7ZM258.5-89.3h2.7v2.7h-2.7v-2.7ZM269.4-89.3h2.7v2.7h-2.7v-2.7ZM274.9-89.3h2.7v2.7h-2.7v-2.7ZM354.2-89.3h2.7v2.7h-2.7v-2.7ZM356.9-89.3h2.7v2.7h-2.7v-2.7ZM367.9-89.3h2.7v2.7h-2.7v-2.7ZM376.1-89.3h2.7v2.7h-2.7v-2.7ZM255.7-86.5h2.7v2.7h-2.7v-2.7ZM258.5-86.5h2.7v2.7h-2.7v-2.7ZM263.9-86.5h2.7v2.7h-2.7v-2.7ZM269.4-86.5h2.7v2.7h-2.7v-2.7ZM274.9-86.5h2.7v2.7h-2.7v-2.7ZM346-86.5h2.7v2.7h-2.7v-2.7ZM351.5-86.5h2.7v2.7h-2.7v-2.7ZM354.2-86.5h2.7v2.7h-2.7v-2.7ZM356.9-86.5h2.7v2.7h-2.7v-2.7ZM362.4-86.5h2.7v2.7h-2.7v-2.7ZM367.9-86.5h2.7v2.7h-2.7v-2.7ZM370.6-86.5h2.7v2.7h-2.7s0-2.7,0-2.7ZM373.3-86.5h2.7v2.7h-2.7v-2.7ZM250.3-83.8h2.7v2.7h-2.7v-2.7ZM253-83.8h2.7v2.7h-2.7v-2.7ZM258.5-83.8h2.7v2.7h-2.7v-2.7ZM269.4-83.8h2.7v2.7h-2.7v-2.7ZM272.2-83.8h2.7v2.7h-2.7v-2.7ZM348.7-83.8h2.7v2.7h-2.7v-2.7ZM354.2-83.8h2.7v2.7h-2.7v-2.7ZM356.9-83.8h2.7v2.7h-2.7v-2.7ZM367.9-83.8h2.7v2.7h-2.7v-2.7ZM373.3-83.8h2.7v2.7h-2.7v-2.7ZM378.8-83.8h2.7v2.7h-2.7v-2.7ZM250.3-81.1h2.7v2.7h-2.7v-2.7ZM258.5-81.1h2.7v2.7h-2.7v-2.7ZM261.2-81.1h2.7v2.7h-2.7v-2.7ZM263.9-81.1h2.7v2.7h-2.7v-2.7ZM266.7-81.1h2.7v2.7h-2.7v-2.7ZM269.4-81.1h2.7v2.7h-2.7v-2.7ZM274.9-81.1h2.7v2.7h-2.7v-2.7ZM280.4-81.1h2.7v2.7h-2.7v-2.7ZM283.1-81.1h2.7v2.7h-2.7v-2.7ZM343.3-81.1h2.7v2.7h-2.7v-2.7ZM351.5-81.1h2.7v2.7h-2.7v-2.7ZM356.9-81.1h2.7v2.7h-2.7v-2.7ZM359.7-81.1h2.7v2.7h-2.7v-2.7ZM362.4-81.1h2.7v2.7h-2.7v-2.7ZM365.1-81.1h2.7v2.7h-2.7v-2.7ZM367.9-81.1h2.7v2.7h-2.7v-2.7ZM370.6-81.1h2.7v2.7h-2.7s0-2.7,0-2.7ZM376.1-81.1h2.7v2.7h-2.7v-2.7ZM253-78.3h2.7v2.7h-2.7v-2.7ZM261.2-78.3h2.7v2.7h-2.7v-2.7ZM266.7-78.3h2.7v2.7h-2.7v-2.7ZM272.2-78.3h2.7v2.7h-2.7v-2.7ZM274.9-78.3h2.7v2.7h-2.7v-2.7ZM280.4-78.3h2.7v2.7h-2.7v-2.7ZM354.2-78.3h2.7v2.7h-2.7v-2.7ZM359.7-78.3h2.7v2.7h-2.7v-2.7ZM365.1-78.3h2.7v2.7h-2.7v-2.7ZM247.5-75.6h2.7v2.7h-2.7v-2.7ZM258.5-75.6h2.7v2.7h-2.7v-2.7ZM261.2-75.6h2.7v2.7h-2.7v-2.7ZM263.9-75.6h2.7v2.7h-2.7v-2.7ZM266.7-75.6h2.7v2.7h-2.7v-2.7ZM274.9-75.6h2.7v2.7h-2.7v-2.7ZM280.4-75.6h2.7v2.7h-2.7v-2.7ZM285.8-75.6h2.7v2.7h-2.7v-2.7ZM340.5-75.6h2.7v2.7h-2.7v-2.7ZM343.3-75.6h2.7v2.7h-2.7v-2.7ZM346-75.6h2.7v2.7h-2.7v-2.7ZM348.7-75.6h2.7v2.7h-2.7v-2.7ZM354.2-75.6h2.7v2.7h-2.7v-2.7ZM356.9-75.6h2.7v2.7h-2.7v-2.7ZM359.7-75.6h2.7v2.7h-2.7v-2.7ZM365.1-75.6h2.7v2.7h-2.7v-2.7ZM370.6-75.6h2.7v2.7h-2.7s0-2.7,0-2.7ZM373.3-75.6h2.7v2.7h-2.7v-2.7ZM376.1-75.6h2.7v2.7h-2.7v-2.7ZM261.2-72.9h2.7v2.7h-2.7v-2.7ZM266.7-72.9h2.7v2.7h-2.7v-2.7ZM272.2-72.9h2.7v2.7h-2.7v-2.7ZM283.1-72.9h2.7v2.7h-2.7v-2.7ZM285.8-72.9h2.7v2.7h-2.7v-2.7ZM343.3-72.9h2.7v2.7h-2.7v-2.7ZM348.7-72.9h2.7v2.7h-2.7v-2.7ZM354.2-72.9h2.7v2.7h-2.7v-2.7ZM359.7-72.9h2.7v2.7h-2.7v-2.7ZM362.4-72.9h2.7v2.7h-2.7v-2.7ZM373.3-72.9h2.7v2.7h-2.7v-2.7ZM376.1-72.9h2.7v2.7h-2.7v-2.7ZM378.8-72.9h2.7v2.7h-2.7v-2.7ZM258.5-70.1h2.7v2.7h-2.7v-2.7ZM263.9-70.1h2.7v2.7h-2.7v-2.7ZM269.4-70.1h2.7v2.7h-2.7v-2.7ZM277.6-70.1h2.7v2.7h-2.7v-2.7ZM285.8-70.1h2.7v2.7h-2.7v-2.7ZM337.8-70.1h2.7v2.7h-2.7v-2.7ZM340.5-70.1h2.7v2.7h-2.7v-2.7ZM343.3-70.1h2.7v2.7h-2.7v-2.7ZM346-70.1h2.7v2.7h-2.7v-2.7ZM348.7-70.1h2.7v2.7h-2.7v-2.7ZM351.5-70.1h2.7v2.7h-2.7v-2.7ZM354.2-70.1h2.7v2.7h-2.7v-2.7ZM362.4-70.1h2.7v2.7h-2.7v-2.7ZM365.1-70.1h2.7v2.7h-2.7v-2.7ZM373.3-70.1h2.7v2.7h-2.7v-2.7ZM378.8-70.1h2.7v2.7h-2.7v-2.7ZM247.5-67.4h2.7v2.7h-2.7v-2.7ZM250.3-67.4h2.7v2.7h-2.7v-2.7ZM253-67.4h2.7v2.7h-2.7v-2.7ZM269.4-67.4h2.7v2.7h-2.7v-2.7ZM272.2-67.4h2.7v2.7h-2.7v-2.7ZM283.1-67.4h2.7v2.7h-2.7v-2.7ZM285.8-67.4h2.7v2.7h-2.7v-2.7ZM337.8-67.4h2.7v2.7h-2.7v-2.7ZM343.3-67.4h2.7v2.7h-2.7v-2.7ZM346-67.4h2.7v2.7h-2.7v-2.7ZM356.9-67.4h2.7v2.7h-2.7v-2.7ZM370.6-67.4h2.7v2.7h-2.7s0-2.7,0-2.7ZM376.1-67.4h2.7v2.7h-2.7v-2.7ZM378.8-67.4h2.7v2.7h-2.7v-2.7ZM250.3-64.7h2.7v2.7h-2.7v-2.7ZM255.7-64.7h2.7v2.7h-2.7v-2.7ZM263.9-64.7h2.7v2.7h-2.7v-2.7ZM266.7-64.7h2.7v2.7h-2.7v-2.7ZM269.4-64.7h2.7v2.7h-2.7v-2.7ZM274.9-64.7h2.7v2.7h-2.7v-2.7ZM280.4-64.7h2.7v2.7h-2.7v-2.7ZM285.8-64.7h2.7v2.7h-2.7v-2.7ZM288.6-64.7h2.7v2.7h-2.7v-2.7ZM291.3-64.7h2.7v2.7h-2.7v-2.7ZM346-64.7h2.7v2.7h-2.7v-2.7ZM348.7-64.7h2.7v2.7h-2.7v-2.7ZM354.2-64.7h2.7v2.7h-2.7v-2.7ZM356.9-64.7h2.7v2.7h-2.7v-2.7ZM359.7-64.7h2.7v2.7h-2.7v-2.7ZM370.6-64.7h2.7v2.7h-2.7s0-2.7,0-2.7ZM378.8-64.7h2.7v2.7h-2.7v-2.7ZM247.5-61.9h2.7v2.7h-2.7v-2.7ZM250.3-61.9h2.7v2.7h-2.7v-2.7ZM253-61.9h2.7v2.7h-2.7v-2.7ZM255.7-61.9h2.7v2.7h-2.7v-2.7ZM261.2-61.9h2.7v2.7h-2.7v-2.7ZM269.4-61.9h2.7v2.7h-2.7v-2.7ZM272.2-61.9h2.7v2.7h-2.7v-2.7ZM285.8-61.9h2.7v2.7h-2.7v-2.7ZM288.6-61.9h2.7v2.7h-2.7v-2.7ZM294-61.9h2.7v2.7h-2.7v-2.7ZM332.3-61.9h2.7v2.7h-2.7v-2.7ZM337.8-61.9h2.7v2.7h-2.7v-2.7ZM343.3-61.9h2.7v2.7h-2.7v-2.7ZM346-61.9h2.7v2.7h-2.7v-2.7ZM359.7-61.9h2.7v2.7h-2.7v-2.7ZM365.1-61.9h2.7v2.7h-2.7v-2.7ZM367.9-61.9h2.7v2.7h-2.7v-2.7ZM370.6-61.9h2.7v2.7h-2.7s0-2.7,0-2.7ZM376.1-61.9h2.7v2.7h-2.7v-2.7ZM253-59.2h2.7v2.7h-2.7v-2.7ZM258.5-59.2h2.7v2.7h-2.7v-2.7ZM261.2-59.2h2.7v2.7h-2.7v-2.7ZM263.9-59.2h2.7v2.7h-2.7v-2.7ZM266.7-59.2h2.7v2.7h-2.7v-2.7ZM272.2-59.2h2.7v2.7h-2.7v-2.7ZM274.9-59.2h2.7v2.7h-2.7v-2.7ZM277.6-59.2h2.7v2.7h-2.7v-2.7ZM283.1-59.2h2.7v2.7h-2.7v-2.7ZM285.8-59.2h2.7v2.7h-2.7v-2.7ZM294-59.2h2.7v2.7h-2.7v-2.7ZM346-59.2h2.7v2.7h-2.7v-2.7ZM348.7-59.2h2.7v2.7h-2.7v-2.7ZM354.2-59.2h2.7v2.7h-2.7v-2.7ZM356.9-59.2h2.7v2.7h-2.7v-2.7ZM359.7-59.2h2.7v2.7h-2.7v-2.7ZM362.4-59.2h2.7v2.7h-2.7v-2.7ZM367.9-59.2h2.7v2.7h-2.7v-2.7ZM376.1-59.2h2.7v2.7h-2.7v-2.7ZM378.8-59.2h2.7v2.7h-2.7v-2.7ZM247.5-56.4h2.7v2.7h-2.7v-2.7ZM255.7-56.4h2.7v2.7h-2.7v-2.7ZM258.5-56.4h2.7v2.7h-2.7v-2.7ZM269.4-56.4h2.7v2.7h-2.7v-2.7ZM272.2-56.4h2.7v2.7h-2.7v-2.7ZM280.4-56.4h2.7v2.7h-2.7v-2.7ZM283.1-56.4h2.7v2.7h-2.7v-2.7ZM288.6-56.4h2.7v2.7h-2.7v-2.7ZM291.3-56.4h2.7v2.7h-2.7v-2.7ZM294-56.4h2.7v2.7h-2.7v-2.7ZM302.2-56.4h2.7v2.7h-2.7v-2.7ZM324.1-56.4h2.7v2.7h-2.7v-2.7ZM326.8-56.4h2.7v2.7h-2.7v-2.7ZM337.8-56.4h2.7v2.7h-2.7v-2.7ZM346-56.4h2.7v2.7h-2.7v-2.7ZM356.9-56.4h2.7v2.7h-2.7v-2.7ZM359.7-56.4h2.7v2.7h-2.7v-2.7ZM365.1-56.4h2.7v2.7h-2.7v-2.7ZM367.9-56.4h2.7v2.7h-2.7v-2.7ZM370.6-56.4h2.7v2.7h-2.7s0-2.7,0-2.7ZM378.8-56.4h2.7v2.7h-2.7v-2.7ZM250.3-53.7h2.7v2.7h-2.7v-2.7ZM261.2-53.7h2.7v2.7h-2.7v-2.7ZM263.9-53.7h2.7v2.7h-2.7v-2.7ZM266.7-53.7h2.7v2.7h-2.7v-2.7ZM277.6-53.7h2.7v2.7h-2.7v-2.7ZM280.4-53.7h2.7v2.7h-2.7v-2.7ZM288.6-53.7h2.7v2.7h-2.7v-2.7ZM302.2-53.7h2.7v2.7h-2.7v-2.7ZM307.7-53.7h2.7v2.7h-2.7s0-2.7,0-2.7ZM310.4-53.7h2.7v2.7h-2.7v-2.7ZM318.6-53.7h2.7v2.7h-2.7v-2.7ZM321.4-53.7h2.7v2.7h-2.7v-2.7ZM324.1-53.7h2.7v2.7h-2.7v-2.7ZM329.6-53.7h2.7v2.7h-2.7v-2.7ZM332.3-53.7h2.7v2.7h-2.7v-2.7ZM335-53.7h2.7v2.7h-2.7v-2.7ZM343.3-53.7h2.7v2.7h-2.7v-2.7ZM348.7-53.7h2.7v2.7h-2.7v-2.7ZM354.2-53.7h2.7v2.7h-2.7v-2.7ZM356.9-53.7h2.7v2.7h-2.7v-2.7ZM359.7-53.7h2.7v2.7h-2.7v-2.7ZM376.1-53.7h2.7v2.7h-2.7v-2.7ZM378.8-53.7h2.7v2.7h-2.7v-2.7ZM250.3-51h2.7v2.7h-2.7v-2.7ZM255.7-51h2.7v2.7h-2.7v-2.7ZM261.2-51h2.7v2.7h-2.7v-2.7ZM266.7-51h2.7v2.7h-2.7v-2.7ZM272.2-51h2.7v2.7h-2.7v-2.7ZM274.9-51h2.7v2.7h-2.7v-2.7ZM277.6-51h2.7v2.7h-2.7v-2.7ZM280.4-51h2.7v2.7h-2.7v-2.7ZM283.1-51h2.7v2.7h-2.7v-2.7ZM285.8-51h2.7v2.7h-2.7v-2.7ZM288.6-51h2.7v2.7h-2.7v-2.7ZM296.8-51h2.7v2.7h-2.7v-2.7ZM307.7-51h2.7v2.7h-2.7s0-2.7,0-2.7ZM313.2-51h2.7v2.7h-2.7v-2.7ZM315.9-51h2.7v2.7h-2.7v-2.7ZM324.1-51h2.7v2.7h-2.7v-2.7ZM326.8-51h2.7v2.7h-2.7v-2.7ZM335-51h2.7v2.7h-2.7v-2.7ZM337.8-51h2.7v2.7h-2.7v-2.7ZM356.9-51h2.7v2.7h-2.7v-2.7ZM365.1-51h2.7v2.7h-2.7v-2.7ZM367.9-51h2.7v2.7h-2.7v-2.7ZM373.3-51h2.7v2.7h-2.7v-2.7ZM376.1-51h2.7v2.7h-2.7v-2.7ZM250.3-48.2h2.7v2.7h-2.7v-2.7ZM261.2-48.2h2.7v2.7h-2.7v-2.7ZM263.9-48.2h2.7v2.7h-2.7v-2.7ZM266.7-48.2h2.7v2.7h-2.7v-2.7ZM272.2-48.2h2.7v2.7h-2.7v-2.7ZM280.4-48.2h2.7v2.7h-2.7v-2.7ZM288.6-48.2h2.7v2.7h-2.7v-2.7ZM291.3-48.2h2.7v2.7h-2.7v-2.7ZM296.8-48.2h2.7v2.7h-2.7v-2.7ZM302.2-48.2h2.7v2.7h-2.7v-2.7ZM307.7-48.2h2.7v2.7h-2.7s0-2.7,0-2.7ZM310.4-48.2h2.7v2.7h-2.7v-2.7ZM321.4-48.2h2.7v2.7h-2.7v-2.7ZM329.6-48.2h2.7v2.7h-2.7v-2.7ZM332.3-48.2h2.7v2.7h-2.7v-2.7ZM335-48.2h2.7v2.7h-2.7v-2.7ZM343.3-48.2h2.7v2.7h-2.7v-2.7ZM348.7-48.2h2.7v2.7h-2.7v-2.7ZM356.9-48.2h2.7v2.7h-2.7v-2.7ZM359.7-48.2h2.7v2.7h-2.7v-2.7ZM367.9-48.2h2.7v2.7h-2.7v-2.7ZM370.6-48.2h2.7v2.7h-2.7s0-2.7,0-2.7ZM373.3-48.2h2.7v2.7h-2.7v-2.7ZM376.1-48.2h2.7v2.7h-2.7v-2.7ZM378.8-48.2h2.7v2.7h-2.7v-2.7ZM250.3-45.5h2.7v2.7h-2.7v-2.7ZM253-45.5h2.7v2.7h-2.7v-2.7ZM255.7-45.5h2.7v2.7h-2.7v-2.7ZM266.7-45.5h2.7v2.7h-2.7v-2.7ZM277.6-45.5h2.7v2.7h-2.7v-2.7ZM285.8-45.5h2.7v2.7h-2.7v-2.7ZM302.2-45.5h2.7v2.7h-2.7v-2.7ZM305-45.5h2.7v2.7h-2.7v-2.7ZM307.7-45.5h2.7v2.7h-2.7s0-2.7,0-2.7ZM313.2-45.5h2.7v2.7h-2.7v-2.7ZM318.6-45.5h2.7v2.7h-2.7v-2.7ZM321.4-45.5h2.7v2.7h-2.7v-2.7ZM324.1-45.5h2.7v2.7h-2.7v-2.7ZM326.8-45.5h2.7v2.7h-2.7v-2.7ZM340.5-45.5h2.7v2.7h-2.7v-2.7ZM346-45.5h2.7v2.7h-2.7v-2.7ZM348.7-45.5h2.7v2.7h-2.7v-2.7ZM351.5-45.5h2.7v2.7h-2.7v-2.7ZM362.4-45.5h2.7v2.7h-2.7v-2.7ZM365.1-45.5h2.7v2.7h-2.7v-2.7ZM367.9-45.5h2.7v2.7h-2.7v-2.7ZM373.3-45.5h2.7v2.7h-2.7v-2.7ZM247.5-42.8h2.7v2.7h-2.7v-2.7ZM250.3-42.8h2.7v2.7h-2.7v-2.7ZM253-42.8h2.7v2.7h-2.7v-2.7ZM263.9-42.8h2.7v2.7h-2.7v-2.7ZM266.7-42.8h2.7v2.7h-2.7v-2.7ZM274.9-42.8h2.7v2.7h-2.7v-2.7ZM277.6-42.8h2.7v2.7h-2.7v-2.7ZM285.8-42.8h2.7v2.7h-2.7v-2.7ZM294-42.8h2.7v2.7h-2.7v-2.7ZM296.8-42.8h2.7v2.7h-2.7v-2.7ZM307.7-42.8h2.7v2.7h-2.7s0-2.7,0-2.7ZM310.4-42.8h2.7v2.7h-2.7v-2.7ZM313.2-42.8h2.7v2.7h-2.7v-2.7ZM315.9-42.8h2.7v2.7h-2.7v-2.7ZM318.6-42.8h2.7v2.7h-2.7v-2.7ZM321.4-42.8h2.7v2.7h-2.7v-2.7ZM324.1-42.8h2.7v2.7h-2.7v-2.7ZM326.8-42.8h2.7v2.7h-2.7v-2.7ZM332.3-42.8h2.7v2.7h-2.7v-2.7ZM335-42.8h2.7v2.7h-2.7v-2.7ZM337.8-42.8h2.7v2.7h-2.7v-2.7ZM340.5-42.8h2.7v2.7h-2.7v-2.7ZM343.3-42.8h2.7v2.7h-2.7v-2.7ZM351.5-42.8h2.7v2.7h-2.7v-2.7ZM354.2-42.8h2.7v2.7h-2.7v-2.7ZM356.9-42.8h2.7v2.7h-2.7v-2.7ZM359.7-42.8h2.7v2.7h-2.7v-2.7ZM362.4-42.8h2.7v2.7h-2.7v-2.7ZM365.1-42.8h2.7v2.7h-2.7v-2.7ZM367.9-42.8h2.7v2.7h-2.7v-2.7ZM370.6-42.8h2.7v2.7h-2.7s0-2.7,0-2.7ZM378.8-42.8h2.7v2.7h-2.7v-2.7ZM269.4-40h2.7v2.7h-2.7v-2.7ZM274.9-40h2.7v2.7h-2.7v-2.7ZM285.8-40h2.7v2.7h-2.7v-2.7ZM288.6-40h2.7v2.7h-2.7v-2.7ZM291.3-40h2.7v2.7h-2.7v-2.7ZM294-40h2.7v2.7h-2.7v-2.7ZM296.8-40h2.7v2.7h-2.7v-2.7ZM307.7-40h2.7v2.7h-2.7s0-2.7,0-2.7ZM318.6-40h2.7v2.7h-2.7v-2.7ZM321.4-40h2.7v2.7h-2.7v-2.7ZM324.1-40h2.7v2.7h-2.7v-2.7ZM335-40h2.7v2.7h-2.7v-2.7ZM340.5-40h2.7v2.7h-2.7v-2.7ZM348.7-40h2.7v2.7h-2.7v-2.7ZM351.5-40h2.7v2.7h-2.7v-2.7ZM356.9-40h2.7v2.7h-2.7v-2.7ZM367.9-40h2.7v2.7h-2.7v-2.7ZM247.5-37.3h2.7v2.7h-2.7v-2.7ZM250.3-37.3h2.7v2.7h-2.7v-2.7ZM253-37.3h2.7v2.7h-2.7v-2.7ZM255.7-37.3h2.7v2.7h-2.7v-2.7ZM258.5-37.3h2.7v2.7h-2.7v-2.7ZM261.2-37.3h2.7v2.7h-2.7v-2.7ZM263.9-37.3h2.7v2.7h-2.7v-2.7ZM272.2-37.3h2.7v2.7h-2.7v-2.7ZM274.9-37.3h2.7v2.7h-2.7v-2.7ZM277.6-37.3h2.7v2.7h-2.7v-2.7ZM280.4-37.3h2.7v2.7h-2.7v-2.7ZM288.6-37.3h2.7v2.7h-2.7v-2.7ZM291.3-37.3h2.7v2.7h-2.7v-2.7ZM294-37.3h2.7v2.7h-2.7v-2.7ZM302.2-37.3h2.7v2.7h-2.7v-2.7ZM305-37.3h2.7v2.7h-2.7v-2.7ZM307.7-37.3h2.7v2.7h-2.7s0-2.7,0-2.7ZM313.2-37.3h2.7v2.7h-2.7v-2.7ZM318.6-37.3h2.7v2.7h-2.7v-2.7ZM321.4-37.3h2.7v2.7h-2.7v-2.7ZM329.6-37.3h2.7v2.7h-2.7v-2.7ZM332.3-37.3h2.7v2.7h-2.7v-2.7ZM335-37.3h2.7v2.7h-2.7v-2.7ZM337.8-37.3h2.7v2.7h-2.7v-2.7ZM343.3-37.3h2.7v2.7h-2.7v-2.7ZM356.9-37.3h2.7v2.7h-2.7v-2.7ZM362.4-37.3h2.7v2.7h-2.7v-2.7ZM367.9-37.3h2.7v2.7h-2.7v-2.7ZM370.6-37.3h2.7v2.7h-2.7s0-2.7,0-2.7ZM376.1-37.3h2.7v2.7h-2.7v-2.7ZM378.8-37.3h2.7v2.7h-2.7v-2.7ZM247.5-34.6h2.7v2.7h-2.7v-2.7ZM263.9-34.6h2.7v2.7h-2.7v-2.7ZM272.2-34.6h2.7v2.7h-2.7v-2.7ZM277.6-34.6h2.7v2.7h-2.7v-2.7ZM280.4-34.6h2.7v2.7h-2.7v-2.7ZM288.6-34.6h2.7v2.7h-2.7v-2.7ZM291.3-34.6h2.7v2.7h-2.7v-2.7ZM294-34.6h2.7v2.7h-2.7v-2.7ZM296.8-34.6h2.7v2.7h-2.7v-2.7ZM299.5-34.6h2.7v2.7h-2.7v-2.7ZM302.2-34.6h2.7v2.7h-2.7v-2.7ZM305-34.6h2.7v2.7h-2.7v-2.7ZM307.7-34.6h2.7v2.7h-2.7s0-2.7,0-2.7ZM318.6-34.6h2.7v2.7h-2.7v-2.7ZM321.4-34.6h2.7v2.7h-2.7v-2.7ZM326.8-34.6h2.7v2.7h-2.7v-2.7ZM329.6-34.6h2.7v2.7h-2.7v-2.7ZM332.3-34.6h2.7v2.7h-2.7v-2.7ZM335-34.6h2.7v2.7h-2.7v-2.7ZM337.8-34.6h2.7v2.7h-2.7v-2.7ZM340.5-34.6h2.7v2.7h-2.7v-2.7ZM343.3-34.6h2.7v2.7h-2.7v-2.7ZM348.7-34.6h2.7v2.7h-2.7v-2.7ZM351.5-34.6h2.7v2.7h-2.7v-2.7ZM354.2-34.6h2.7v2.7h-2.7v-2.7ZM356.9-34.6h2.7v2.7h-2.7v-2.7ZM367.9-34.6h2.7v2.7h-2.7v-2.7ZM376.1-34.6h2.7v2.7h-2.7v-2.7ZM378.8-34.6h2.7v2.7h-2.7v-2.7ZM247.5-31.8h2.7v2.7h-2.7v-2.7ZM253-31.8h2.7v2.7h-2.7v-2.7ZM255.7-31.8h2.7v2.7h-2.7v-2.7ZM258.5-31.8h2.7v2.7h-2.7v-2.7ZM263.9-31.8h2.7v2.7h-2.7v-2.7ZM269.4-31.8h2.7v2.7h-2.7v-2.7ZM272.2-31.8h2.7v2.7h-2.7v-2.7ZM288.6-31.8h2.7v2.7h-2.7v-2.7ZM294-31.8h2.7v2.7h-2.7v-2.7ZM302.2-31.8h2.7v2.7h-2.7v-2.7ZM305-31.8h2.7v2.7h-2.7v-2.7ZM307.7-31.8h2.7v2.7h-2.7s0-2.7,0-2.7ZM310.4-31.8h2.7v2.7h-2.7v-2.7ZM313.2-31.8h2.7v2.7h-2.7v-2.7ZM315.9-31.8h2.7v2.7h-2.7v-2.7ZM318.6-31.8h2.7v2.7h-2.7v-2.7ZM324.1-31.8h2.7v2.7h-2.7v-2.7ZM326.8-31.8h2.7v2.7h-2.7v-2.7ZM329.6-31.8h2.7v2.7h-2.7v-2.7ZM332.3-31.8h2.7v2.7h-2.7v-2.7ZM337.8-31.8h2.7v2.7h-2.7v-2.7ZM343.3-31.8h2.7v2.7h-2.7v-2.7ZM346-31.8h2.7v2.7h-2.7v-2.7ZM348.7-31.8h2.7v2.7h-2.7v-2.7ZM351.5-31.8h2.7v2.7h-2.7v-2.7ZM354.2-31.8h2.7v2.7h-2.7v-2.7ZM356.9-31.8h2.7v2.7h-2.7v-2.7ZM359.7-31.8h2.7v2.7h-2.7v-2.7ZM362.4-31.8h2.7v2.7h-2.7v-2.7ZM365.1-31.8h2.7v2.7h-2.7v-2.7ZM367.9-31.8h2.7v2.7h-2.7v-2.7ZM373.3-31.8h2.7v2.7h-2.7v-2.7ZM376.1-31.8h2.7v2.7h-2.7v-2.7ZM378.8-31.8h2.7v2.7h-2.7v-2.7ZM247.5-29.1h2.7v2.7h-2.7v-2.7ZM253-29.1h2.7v2.7h-2.7v-2.7ZM255.7-29.1h2.7v2.7h-2.7v-2.7ZM258.5-29.1h2.7v2.7h-2.7v-2.7ZM263.9-29.1h2.7v2.7h-2.7v-2.7ZM269.4-29.1h2.7v2.7h-2.7v-2.7ZM272.2-29.1h2.7v2.7h-2.7v-2.7ZM274.9-29.1h2.7v2.7h-2.7v-2.7ZM277.6-29.1h2.7v2.7h-2.7v-2.7ZM280.4-29.1h2.7v2.7h-2.7v-2.7ZM283.1-29.1h2.7v2.7h-2.7v-2.7ZM288.6-29.1h2.7v2.7h-2.7v-2.7ZM291.3-29.1h2.7v2.7h-2.7v-2.7ZM294-29.1h2.7v2.7h-2.7v-2.7ZM296.8-29.1h2.7v2.7h-2.7v-2.7ZM305-29.1h2.7v2.7h-2.7v-2.7ZM313.2-29.1h2.7v2.7h-2.7v-2.7ZM318.6-29.1h2.7v2.7h-2.7v-2.7ZM321.4-29.1h2.7v2.7h-2.7v-2.7ZM326.8-29.1h2.7v2.7h-2.7v-2.7ZM332.3-29.1h2.7v2.7h-2.7v-2.7ZM348.7-29.1h2.7v2.7h-2.7v-2.7ZM359.7-29.1h2.7v2.7h-2.7v-2.7ZM367.9-29.1h2.7v2.7h-2.7v-2.7ZM370.6-29.1h2.7v2.7h-2.7s0-2.7,0-2.7ZM247.5-26.4h2.7v2.7h-2.7v-2.7ZM253-26.4h2.7v2.7h-2.7v-2.7ZM255.7-26.4h2.7v2.7h-2.7v-2.7ZM258.5-26.4h2.7v2.7h-2.7v-2.7ZM263.9-26.4h2.7v2.7h-2.7v-2.7ZM269.4-26.4h2.7v2.7h-2.7v-2.7ZM274.9-26.4h2.7v2.7h-2.7v-2.7ZM280.4-26.4h2.7v2.7h-2.7v-2.7ZM283.1-26.4h2.7v2.7h-2.7v-2.7ZM288.6-26.4h2.7v2.7h-2.7v-2.7ZM291.3-26.4h2.7v2.7h-2.7v-2.7ZM299.5-26.4h2.7v2.7h-2.7v-2.7ZM302.2-26.4h2.7v2.7h-2.7v-2.7ZM305-26.4h2.7v2.7h-2.7v-2.7ZM307.7-26.4h2.7v2.7h-2.7s0-2.7,0-2.7ZM310.4-26.4h2.7v2.7h-2.7v-2.7ZM318.6-26.4h2.7v2.7h-2.7v-2.7ZM321.4-26.4h2.7v2.7h-2.7v-2.7ZM324.1-26.4h2.7v2.7h-2.7v-2.7ZM335-26.4h2.7v2.7h-2.7v-2.7ZM340.5-26.4h2.7v2.7h-2.7v-2.7ZM346-26.4h2.7v2.7h-2.7v-2.7ZM351.5-26.4h2.7v2.7h-2.7v-2.7ZM354.2-26.4h2.7v2.7h-2.7v-2.7ZM365.1-26.4h2.7v2.7h-2.7v-2.7ZM373.3-26.4h2.7v2.7h-2.7v-2.7ZM378.8-26.4h2.7v2.7h-2.7v-2.7ZM247.5-23.6h2.7v2.7h-2.7v-2.7ZM263.9-23.6h2.7v2.7h-2.7v-2.7ZM272.2-23.6h2.7v2.7h-2.7v-2.7ZM274.9-23.6h2.7v2.7h-2.7v-2.7ZM288.6-23.6h2.7v2.7h-2.7v-2.7ZM332.3-23.6h2.7v2.7h-2.7v-2.7ZM335-23.6h2.7v2.7h-2.7v-2.7ZM340.5-23.6h2.7v2.7h-2.7v-2.7ZM359.7-23.6h2.7v2.7h-2.7v-2.7ZM365.1-23.6h2.7v2.7h-2.7v-2.7ZM378.8-23.6h2.7v2.7h-2.7v-2.7ZM247.5-20.9h2.7v2.7h-2.7v-2.7ZM250.3-20.9h2.7v2.7h-2.7v-2.7ZM253-20.9h2.7v2.7h-2.7v-2.7ZM255.7-20.9h2.7v2.7h-2.7v-2.7ZM258.5-20.9h2.7v2.7h-2.7v-2.7ZM261.2-20.9h2.7v2.7h-2.7v-2.7ZM263.9-20.9h2.7v2.7h-2.7v-2.7ZM272.2-20.9h2.7v2.7h-2.7v-2.7ZM285.8-20.9h2.7v2.7h-2.7v-2.7ZM288.6-20.9h2.7v2.7h-2.7v-2.7ZM291.3-20.9h2.7v2.7h-2.7v-2.7ZM294-20.9h2.7v2.7h-2.7v-2.7ZM296.8-20.9h2.7v2.7h-2.7v-2.7ZM302.2-20.9h2.7v2.7h-2.7v-2.7ZM305-20.9h2.7v2.7h-2.7v-2.7ZM307.7-20.9h2.7v2.7h-2.7s0-2.7,0-2.7ZM310.4-20.9h2.7v2.7h-2.7v-2.7ZM313.2-20.9h2.7v2.7h-2.7v-2.7ZM332.3-20.9h2.7v2.7h-2.7v-2.7ZM340.5-20.9h2.7v2.7h-2.7v-2.7ZM343.3-20.9h2.7v2.7h-2.7v-2.7ZM346-20.9h2.7v2.7h-2.7v-2.7ZM348.7-20.9h2.7v2.7h-2.7v-2.7ZM354.2-20.9h2.7v2.7h-2.7v-2.7ZM362.4-20.9h2.7v2.7h-2.7v-2.7ZM370.6-20.9h2.7v2.7h-2.7s0-2.7,0-2.7ZM373.3-20.9h2.7v2.7h-2.7v-2.7ZM376.1-20.9h2.7v2.7h-2.7v-2.7ZM378.8-20.9h2.7v2.7h-2.7v-2.7Z"/>
  </g>
  <g class="st2">
    <text class="st0" transform="translate(138.8 -59.4)"><tspan x="0" y="0">Submit new</tspan><tspan x="9.9" y="19.2">features to</tspan><tspan x="16" y="38.4">win prizes</tspan></text>
  </g>
  <text class="st5" transform="translate(190.1 -148)"><tspan x="0" y="0">Digital Sciences</tspan><tspan x="22.4" y="7.2">Initiative</tspan></text>
  <g>
    <path d="M163.4-136.9h19.3c-.8,4.6-4.8,8.2-9.6,8.2s-8.9-3.5-9.6-8.2Z"/>
    <g>
      <path d="M182.6-140.1h-19.3c.8-4.6,4.8-8.2,9.6-8.2s8.9,3.5,9.6,8.2Z"/>
      <circle class="st8" cx="173" cy="-138.5" r="7.1"/>
      <path class="st9" d="M182.8-138.5c0,.5,0,1.1-.1,1.6h-19.3c0-.5-.1-1.1-.1-1.6s0-1.1.1-1.6h19.3c0,.5.1,1.1.1,1.6Z"/>
    </g>
    <text class="st6" transform="translate(166.2 -137.9)"><tspan x="0" y="0">TransportLab</tspan></text>
  </g>
  <text class="st5" transform="translate(211.1 -128.9)"><tspan x="0" y="0">School of</tspan><tspan x="-24.6" y="7.2">Civil Engineering</tspan></text>
  <g class="st2">
    <text class="st4" transform="translate(0 -121.4)"><tspan x="0" y="0">DSI</tspan><tspan x="0" y="48">Smart</tspan><tspan x="0" y="96">City</tspan></text>
  </g>
  <g class="st2">
    <text class="st1" transform="translate(0 23.1)"><tspan x="0" y="0">DSI</tspan><tspan x="0" y="33.6">Smart</tspan><tspan x="0" y="67.2">City</tspan></text>
  </g>
  <g>
    <path class="st7" d="M76.8,210.1h5v-.7h-5v.7ZM76.8,212.2h5v-.7h-5v.7ZM76.8,208h5v-.7h-5v.7ZM73.2,209.3h-5v.7h5v-.7ZM73.2,211.4h-5v.7h5v-.7ZM73.2,207.2h-5v.7h5v-.7ZM81.2,193.8c-2.1-.1-4.2-.2-6.2-.2s-4.2.1-6.2.2v10.1h-19.6c.8,4.8,2.7,9.4,5.6,13.3.4-.5,1-.9,1.8-.9h12.1v10.6c2,.5,4.1.8,6.2.8h0c0,.1,0,0,0,0,2.1,0,4.2-.3,6.2-.8v-10.5h12.1c.7,0,1.4.3,1.8.8,2.9-3.9,4.9-8.5,5.6-13.3h-19.6v-10.1h0ZM71.4,197l2.6,1.3.9-2.7.9,2.7,2.6-1.3-1.2,2.6,2.7.9-2.7.9,1.3,2.6-2.6-1.3-.9,2.7-.9-2.7-2.6,1.3,1.3-2.6-2.7-.9,2.7-.9-1.4-2.6ZM62.2,213.9l-2.6-1.3-.9,2.7-.9-2.7-2.6,1.3,1.3-2.6-2.7-.9,2.7-.9-1.3-2.6,2.6,1.3.9-2.7.9,2.7,2.6-1.3-1.3,2.6,2.7.9-2.7.9,1.3,2.6ZM66.4,213.7h-1.2v-.8h1.2v.8h0ZM66.4,211.4h-1.2v-.8h1.2v.8h0ZM66.4,209.2h-1.2v-.8h1.2v.8h0ZM66.4,206.9h-1.2v-.8h1.2v.8h0ZM67,213.7v-8.1h5.4c1.2,0,2.1.9,2.1,2v6.8c-.4-.4-.9-.7-1.6-.7-.1,0-4.4,0-6,0ZM78.6,224.2l-2.6-1.3-.9,2.7-.9-2.7-2.6,1.3,1.3-2.6-2.7-.9,2.7-.9-1.3-2.6,2.6,1.3.9-2.7.9,2.7,2.6-1.3-1.3,2.5,2.7.9-2.7.9c0,.1,1.3,2.7,1.3,2.7ZM87.8,206.7l2.6,1.3.9-2.7.9,2.7,2.6-1.3-1.3,2.6,2.7.9-2.7.9,1.3,2.6-2.5-1.2-.9,2.7-1-2.7-2.6,1.3,1.3-2.6-2.7-.9,2.7-.9-1.3-2.7h0ZM83.6,206h1.2v.8h-1.2v-.8ZM83.6,208.3h1.2v.8h-1.2v-.8ZM83.6,210.5h1.2v.8h-1.2v-.8ZM83.6,212.8h1.2v.8h-1.2v-.8ZM83,205.5v8.2h-5.9c-.6,0-1.2.3-1.6.7v-6.8c0-1.2.9-2,2.1-2h5.3ZM93.1,171c-5-1-11.7-2.1-18.1-2.1-9.6,0-19.8,2.4-24.3,3.6-.8.2-1.6.4-2,.5v21.9c2.9-.4,14.9-2.3,26.1-2.3s23.2,1.8,26.1,2.3v-21.9c-.4-.1-1-.3-2-.5-1.9-.5-4-1-6-1.5ZM65.8,173.3c.4-.1-.4-.7.1-.7s1.6,0,2.5.4c.2.1.3-.2.6-.5h.2c.3.2.5.5.6.4.9-.4,2.1-.4,2.4-.4.6,0-.3.6.1.7,2.1.5,3.6,2.2,3.6,4.3s-.1,1.2-.3,1.7c-.1.3-.4-.5-.5,0-.2.8-.4,1.6-.8,2.3-.4.8-1.2-.8-1.4-.4-.4.8-1.4,1.2-2,1.3q-.1,0,0-.1s.2-.2.2-.5h0c.5-.3.8-.8.9-1.4s.3-1.3.6-1.7c.5-.9-.1-2.2,0-2.4.6-.4.8-1.3.4-1.9-.2-.4-.7-.6-1.2-.6s-.7.2-1,.5h0c-.1.1-.2.3-.3.4-.1.2-.1.4.1.5.9.2,1.6,2.4,1.2,3-.2.3-.7,1.5-.7,1.8s-.3.7-.7.7-.6-.2-.7-.5h0c.3-.2.8-.5.8-.8v-1.2c.4,0,.6-.3.6-.7h.1c.2-.2.3-.6-.1-.6-.5.1-1,.1-1.6.2-.1,0-.1.1-.1.1,0,.1.3,1.5.3,1.8h-1.5c.1-.3.4-1.8.4-1.8v-.2c-.1-.1-1.5-.2-1.7-.3-.1,0-.2,0-.2.1-.1.2.1.4.3.5.1.4.3.7.7.7h0c0,.1-.1,1.2-.1,1.2,0,.4.6.7.8.8h0c-.1.4-.4.5-.7.5s-.7-.3-.7-.7h0c0-.3-.5-1.5-.7-1.8-.4-.7.2-2.8,1.2-3,.2,0,.3-.3.2-.5-.4-.4-.8-.9-1.5-.9s-1.4.6-1.4,1.4h0c0,.8.6,1,.6,1.3-.3.8-.3,1.7.1,2.3.2.4.4,1.2.6,1.7.1.5.4.9.8,1.2.2.1.1.3.2.5,0,.1.1.1.2.2s0,.1,0,.1c-.6-.1-1.7-.3-2.1-1.3-.2-.4-.9,1.2-1.4.4-.4-.7-.6-1.5-.8-2.3-.1-.4-.4.3-.5,0-.2-.5-.3-1.2-.3-1.7-.2-1.8,1.3-3.5,3.3-4ZM71.6,174.8h0c.1-.2.2-.2.3-.2.3,0,.6.3.6.6s-.1.3-.2.5h-.1c-.1-.4-.3-.7-.6-.9h0ZM70.2,181.8c-.1.4-.7.3-1,.5h-.1c-.3-.2-.8-.1-1-.5,0,0,0-.1.1-.1.4,0,.7-.2.9-.5h.1c.2.3.5.4,1,.6-.1-.2,0-.1,0,0ZM66.1,175.6h0c-.2-.1-.3-.3-.3-.5,0-.3.3-.6.6-.6s.3.1.4.2h0c-.3.4-.6.6-.7.9h0ZM60.5,183.7c-.4,0-.6.1-.9.3-.2.1-.2-.2,0-1,.2-.6-1-.9-1.3-.6-.4.3-1.5.9-2.4-.1-.2-.2.4-.1.5-.3.1-.3.3-.4.4-.5.1-.1.1-.2,0-.3-.3-.2-.7-.5-.6-1.2,0-.1-.5-.1-.3-.3.9-.8,2-.3,2.4,0,.1,0,.2,0,.2-.1,0-.3-.1-.5.4-.9.1-.1-.3-.5,0-.4,2,.5,1,2.5,1.5,2.9.7.6,2.6,1.2,4.3,1.6.1,0,.6.2.8.3,1.4.7,2.2.6,2.9.3.2-.1.2.2.1.3-2.7,2.6-4.8,2-5.5,1.5-.5-.3-1.6-.3-2,.3-.1.1-.2.1-.3-.1-.1-.5,0-.8.2-1.2-.1-.4-.3-.5-.4-.4h0ZM86.6,186.1c-.3.3-1,.6-2.1.6s-.6.1-.7.2-.1.2-.1.2c-.1.2,0,.4.1.6s.1.3-.1.3-.4,0-.8-.2-.2,0-.3.1c-.1.2.1.5.3.6.1.1.1.3-.1.3-.4.1-.7,0-1.4-.3-.3-.2-.6-.2-.8,0-.1.1-.1.3,0,.3.2.2.3.6-.2,1.4-.2.2-.4-.4-.5-.3-.7.3-1.4-.1-1.7-.4,0-.1-.2-.1-.3,0-.4.3-1.3.6-1.5-.1,0-.1-.5.2-.5,0,0-1.3,1-1.5,1.6-1.5s.2-.1.1-.2c-.2-.3-.4-.5-.3-.9.1-.3-.6-.3-.3-.5,1.4-.7,2.2.6,2.4.7.4.2,2.2-.3,2.4-1.4,0-.2-.4-.3-.8-.4-.1,0-.1-.1,0-.2,1.2-.8,2-1.9,4-2.1.2,0,.3.1.3.2h0c0,.3.1.6.2.8.3.6.6.9.9,1.3.5.5.4.7.3.8h0ZM94.9,185.4c.2.1.2.2,0,.3-.1.1-.3.2-.8.2s-.2.1-.2.2c0,.2.3.4.6.4s.2.2,0,.3c-.3.3-.6.3-1.4.3s-1.2.7-.7,1c.2.2.7.6.3,2-.1.4-.4-.3-.6-.2-.5.3-.9-.1-1.2-.3-.1-.1-.2-.1-.3,0-.2.3-.7.9-1.9.4-.2-.1-.7.3-.7.2-.2-.8.3-1.4.6-1.6,0,0,.2-.2-.1-.2s-.8-.1-.8-.6-.5-.1-.4-.2c.1-.6,1.5-1,2.4-.4.8.5,1.8-1.3,1-2.1-.5-.6-3.6,1.2-4.6-1.2-.4-.8.1-1.7-.3-1.7-.4-.1-2.4-.5-4.5,1.3-3.6,2.9-7.5,1.4-8.5.6-.1,0-.3.1-.2.2.1.4.1.7-.1.9-.1.4-1.5,1-1.7,1-1.5.4-1.4,1.6-1.2,2.1q0,.2-.2.2c-.4-.1-1.4-.4-1.8-1.3,0-.1-.1-.1-.3,0-.5.4-.3.9-.2,1.3,0,.1,0,.2-.1.2-.5.1-.9-.5-1.4-.5s-.6.2-.8.4c-.1,0-.1.2,0,.4.5,1.7-.3,1.8-.4,1.7-.1,0,0-.3-.3-.3-.9,0-1.2-.5-1.3-.9,0-.1-.1-.2-.2-.1-.3.2-1.2.7-1.8,0-.1-.1-.3,0-.5.1-.1,0-.1-.1-.1-.2,0-.7.4-1.3,1-1.6q.1-.1,0-.2c-.3-.2-.8-.6-.6-1.2,0-.1-.4-.3-.3-.3,1-.7,2.4.5,2.6.6s1.2.2,3.6-1.2c1.6-.8,2.4-1.6,2.8-2.1,0-.1.2-.2.3-.2.9,0,2-.2,2.7-.8.1-.1.2,0,.3,0,1.4.9,2.1-1.2,2.4-2.2,0-.2.1-.3.3-.4,5.1.2,14.9.2,14.9.2,0,0,1.3.1,1.3-.7-.1-1.3-5.4-1.3-9.4-.7-1.5.2-3.6.3-4.7-.2-.5-.2-.9-.5-1.2-.9-.2-.5-.2-.8-.1-1.2.1-.2.2-.5.3-.7,1-1.6,3.3-1.7,4.1-1.7s.2-.1.2-.2c.1-.3.3-1.2,1.4-1.3.3,0,.5-.1.7-.2.1,0,.2,0,.2.1,0,.2-.1.3-.2.4-.7.6-.6.8-.5.9h.2c2.1-1.8,3.3-.6,3.7-.2.1.1.1.2,0,.2-1.5.3-2,1.6-4.9,1.4-.3,0-2.7-.1-3.5.9-.4.6-.1,1.2,1.2,1.5.9.2,3.2-.1,4.3-.2,1-.1,5.6-.6,8.1,0,1,.3,2.5,1.2,2.2,2.6-.2.9-1.2,1.4-1.2,1.4,0,0-2.6,1.9,2.1,1.9s0,1.3,0,1.6c0,.2.2.4.4.6ZM86.2,175.2c-.2,0-.4.1-.6.2-.4.3-2.1.9-2.6.1,0,0,1.2,0,2-.7,0,0,.8-.3,1.4.2s.1.2-.1.2h0ZM75.1,165.8c-16.1,0-32,4.3-32,4.3v21.3c0,19.2,13.8,39.1,32,42.6,18.9-3.7,32.1-23.4,32.1-42.6v-21.3c-.1,0-13.5-4.3-32.1-4.3ZM102.3,199.1c0,15.7-11.9,29.8-27.3,29.8h0c-15.4,0-27.3-14.2-27.3-29.8v-27h.4c0-.1,13.8-4.4,26.9-4.4s26.9,4.3,26.9,4.3h.4v27.1h0Z"/>
    <path id="qr-path1" data-name="qr-path" d="M2.4,127.2h2.9v2.9h-2.9v-2.9ZM5.4,127.2h2.9v2.9h-2.9v-2.9ZM8.3,127.2h2.9v2.9h-2.9v-2.9ZM11.3,127.2h2.9v2.9h-2.9v-2.9ZM14.3,127.2h2.9v2.9h-2.9v-2.9ZM17.2,127.2h2.9v2.9h-2.9v-2.9ZM20.1,127.2h2.9v2.9h-2.9v-2.9ZM26.1,127.2h2.9v2.9h-2.9v-2.9ZM29.1,127.2h2.9v2.9h-2.9v-2.9ZM32.1,127.2h2.9v2.9h-2.9v-2.9ZM43.9,127.2h2.9v2.9h-2.9v-2.9ZM46.9,127.2h2.9v2.9h-2.9v-2.9ZM52.8,127.2h2.9v2.9h-2.9v-2.9ZM67.6,127.2h2.9v2.9h-2.9s0-2.9,0-2.9ZM70.6,127.2h2.9v2.9h-2.9v-2.9ZM79.4,127.2h2.9v2.9h-2.9v-2.9ZM88.3,127.2h2.9v2.9h-2.9v-2.9ZM91.4,127.2h2.9v2.9h-2.9v-2.9ZM106.2,127.2h2.9v2.9h-2.9v-2.9ZM121,127.2h2.9v2.9h-2.9v-2.9ZM126.9,127.2h2.9v2.9h-2.9v-2.9ZM129.9,127.2h2.9v2.9h-2.9v-2.9ZM132.9,127.2h2.9v2.9h-2.9v-2.9ZM135.8,127.2h2.9v2.9h-2.9s0-2.9,0-2.9ZM138.7,127.2h2.9v2.9h-2.9v-2.9ZM141.8,127.2h2.9v2.9h-2.9v-2.9ZM144.7,127.2h2.9v2.9h-2.9v-2.9ZM2.4,130.2h2.9v2.9h-2.9v-2.9ZM20.1,130.2h2.9v2.9h-2.9v-2.9ZM26.1,130.2h2.9v2.9h-2.9v-2.9ZM29.1,130.2h2.9v2.9h-2.9v-2.9ZM43.9,130.2h2.9v2.9h-2.9v-2.9ZM49.8,130.2h2.9v2.9h-2.9v-2.9ZM58.7,130.2h2.9v2.9h-2.9v-2.9ZM61.7,130.2h2.9v2.9h-2.9v-2.9ZM64.7,130.2h2.9v2.9h-2.9v-2.9ZM70.6,130.2h2.9v2.9h-2.9v-2.9ZM76.5,130.2h2.9v2.9h-2.9v-2.9ZM85.4,130.2h2.9v2.9h-2.9v-2.9ZM91.4,130.2h2.9v2.9h-2.9v-2.9ZM94.3,130.2h2.9v2.9h-2.9v-2.9ZM103.2,130.2h2.9v2.9h-2.9v-2.9ZM109.1,130.2h2.9v2.9h-2.9v-2.9ZM112.1,130.2h2.9v2.9h-2.9v-2.9ZM115.1,130.2h2.9v2.9h-2.9v-2.9ZM118,130.2h2.9v2.9h-2.9v-2.9ZM121,130.2h2.9v2.9h-2.9v-2.9ZM126.9,130.2h2.9v2.9h-2.9v-2.9ZM144.7,130.2h2.9v2.9h-2.9v-2.9ZM2.4,133.1h2.9v2.9h-2.9v-2.9ZM8.3,133.1h2.9v2.9h-2.9v-2.9ZM11.3,133.1h2.9v2.9h-2.9v-2.9ZM14.3,133.1h2.9v2.9h-2.9v-2.9ZM20.1,133.1h2.9v2.9h-2.9v-2.9ZM26.1,133.1h2.9v2.9h-2.9v-2.9ZM35,133.1h2.9v2.9h-2.9v-2.9ZM38,133.1h2.9v2.9h-2.9v-2.9ZM41,133.1h2.9v2.9h-2.9v-2.9ZM43.9,133.1h2.9v2.9h-2.9v-2.9ZM52.8,133.1h2.9v2.9h-2.9v-2.9ZM61.7,133.1h2.9v2.9h-2.9v-2.9ZM64.7,133.1h2.9v2.9h-2.9v-2.9ZM70.6,133.1h2.9v2.9h-2.9v-2.9ZM76.5,133.1h2.9v2.9h-2.9v-2.9ZM91.4,133.1h2.9v2.9h-2.9v-2.9ZM94.3,133.1h2.9v2.9h-2.9v-2.9ZM103.2,133.1h2.9v2.9h-2.9v-2.9ZM106.2,133.1h2.9v2.9h-2.9v-2.9ZM118,133.1h2.9v2.9h-2.9v-2.9ZM121,133.1h2.9v2.9h-2.9v-2.9ZM126.9,133.1h2.9v2.9h-2.9v-2.9ZM132.9,133.1h2.9v2.9h-2.9v-2.9ZM135.8,133.1h2.9v2.9h-2.9s0-2.9,0-2.9ZM138.7,133.1h2.9v2.9h-2.9v-2.9ZM144.7,133.1h2.9v2.9h-2.9v-2.9ZM2.4,136.1h2.9v2.9h-2.9v-2.9ZM8.3,136.1h2.9v2.9h-2.9v-2.9ZM11.3,136.1h2.9v2.9h-2.9v-2.9ZM14.3,136.1h2.9v2.9h-2.9v-2.9ZM20.1,136.1h2.9v2.9h-2.9v-2.9ZM32.1,136.1h2.9v2.9h-2.9v-2.9ZM35,136.1h2.9v2.9h-2.9v-2.9ZM43.9,136.1h2.9v2.9h-2.9v-2.9ZM49.8,136.1h2.9v2.9h-2.9v-2.9ZM64.7,136.1h2.9v2.9h-2.9v-2.9ZM67.6,136.1h2.9v2.9h-2.9s0-2.9,0-2.9ZM70.6,136.1h2.9v2.9h-2.9v-2.9ZM76.5,136.1h2.9v2.9h-2.9v-2.9ZM79.4,136.1h2.9v2.9h-2.9v-2.9ZM82.5,136.1h2.9v2.9h-2.9v-2.9ZM85.4,136.1h2.9v2.9h-2.9v-2.9ZM88.3,136.1h2.9v2.9h-2.9v-2.9ZM91.4,136.1h2.9v2.9h-2.9v-2.9ZM97.2,136.1h2.9v2.9h-2.9v-2.9ZM106.2,136.1h2.9v2.9h-2.9v-2.9ZM109.1,136.1h2.9v2.9h-2.9v-2.9ZM112.1,136.1h2.9v2.9h-2.9v-2.9ZM118,136.1h2.9v2.9h-2.9v-2.9ZM126.9,136.1h2.9v2.9h-2.9v-2.9ZM132.9,136.1h2.9v2.9h-2.9v-2.9ZM135.8,136.1h2.9v2.9h-2.9s0-2.9,0-2.9ZM138.7,136.1h2.9v2.9h-2.9v-2.9ZM144.7,136.1h2.9v2.9h-2.9v-2.9ZM2.4,139.1h2.9v2.9h-2.9v-2.9ZM8.3,139.1h2.9v2.9h-2.9v-2.9ZM11.3,139.1h2.9v2.9h-2.9v-2.9ZM14.3,139.1h2.9v2.9h-2.9v-2.9ZM20.1,139.1h2.9v2.9h-2.9v-2.9ZM32.1,139.1h2.9v2.9h-2.9v-2.9ZM38,139.1h2.9v2.9h-2.9v-2.9ZM52.8,139.1h2.9v2.9h-2.9v-2.9ZM55.8,139.1h2.9v2.9h-2.9v-2.9ZM61.7,139.1h2.9v2.9h-2.9v-2.9ZM64.7,139.1h2.9v2.9h-2.9v-2.9ZM67.6,139.1h2.9v2.9h-2.9s0-2.9,0-2.9ZM70.6,139.1h2.9v2.9h-2.9v-2.9ZM73.6,139.1h2.9v2.9h-2.9v-2.9ZM76.5,139.1h2.9v2.9h-2.9v-2.9ZM79.4,139.1h2.9v2.9h-2.9v-2.9ZM85.4,139.1h2.9v2.9h-2.9v-2.9ZM91.4,139.1h2.9v2.9h-2.9v-2.9ZM94.3,139.1h2.9v2.9h-2.9v-2.9ZM97.2,139.1h2.9v2.9h-2.9v-2.9ZM106.2,139.1h2.9v2.9h-2.9v-2.9ZM109.1,139.1h2.9v2.9h-2.9v-2.9ZM112.1,139.1h2.9v2.9h-2.9v-2.9ZM126.9,139.1h2.9v2.9h-2.9v-2.9ZM132.9,139.1h2.9v2.9h-2.9v-2.9ZM135.8,139.1h2.9v2.9h-2.9s0-2.9,0-2.9ZM138.7,139.1h2.9v2.9h-2.9v-2.9ZM144.7,139.1h2.9v2.9h-2.9v-2.9ZM2.4,142h2.9v2.9h-2.9v-2.9ZM20.1,142h2.9v2.9h-2.9v-2.9ZM26.1,142h2.9v2.9h-2.9v-2.9ZM29.1,142h2.9v2.9h-2.9v-2.9ZM32.1,142h2.9v2.9h-2.9v-2.9ZM38,142h2.9v2.9h-2.9v-2.9ZM41,142h2.9v2.9h-2.9v-2.9ZM46.9,142h2.9v2.9h-2.9v-2.9ZM52.8,142h2.9v2.9h-2.9v-2.9ZM64.7,142h2.9v2.9h-2.9v-2.9ZM67.6,142h2.9v2.9h-2.9s0-2.9,0-2.9ZM79.4,142h2.9v2.9h-2.9v-2.9ZM82.5,142h2.9v2.9h-2.9v-2.9ZM85.4,142h2.9v2.9h-2.9v-2.9ZM88.3,142h2.9v2.9h-2.9v-2.9ZM94.3,142h2.9v2.9h-2.9v-2.9ZM100.3,142h2.9v2.9h-2.9v-2.9ZM103.2,142h2.9v2.9h-2.9v-2.9ZM115.1,142h2.9v2.9h-2.9v-2.9ZM126.9,142h2.9v2.9h-2.9v-2.9ZM144.7,142h2.9v2.9h-2.9v-2.9ZM2.4,145h2.9v2.9h-2.9v-2.9ZM5.4,145h2.9v2.9h-2.9v-2.9ZM8.3,145h2.9v2.9h-2.9v-2.9ZM11.3,145h2.9v2.9h-2.9v-2.9ZM14.3,145h2.9v2.9h-2.9v-2.9ZM17.2,145h2.9v2.9h-2.9v-2.9ZM20.1,145h2.9v2.9h-2.9v-2.9ZM26.1,145h2.9v2.9h-2.9v-2.9ZM32.1,145h2.9v2.9h-2.9v-2.9ZM38,145h2.9v2.9h-2.9v-2.9ZM43.9,145h2.9v2.9h-2.9v-2.9ZM49.8,145h2.9v2.9h-2.9v-2.9ZM55.8,145h2.9v2.9h-2.9v-2.9ZM61.7,145h2.9v2.9h-2.9v-2.9ZM67.6,145h2.9v2.9h-2.9s0-2.9,0-2.9ZM73.6,145h2.9v2.9h-2.9v-2.9ZM79.4,145h2.9v2.9h-2.9v-2.9ZM85.4,145h2.9v2.9h-2.9v-2.9ZM91.4,145h2.9v2.9h-2.9v-2.9ZM97.2,145h2.9v2.9h-2.9v-2.9ZM103.2,145h2.9v2.9h-2.9v-2.9ZM109.1,145h2.9v2.9h-2.9v-2.9ZM115.1,145h2.9v2.9h-2.9v-2.9ZM121,145h2.9v2.9h-2.9v-2.9ZM126.9,145h2.9v2.9h-2.9v-2.9ZM129.9,145h2.9v2.9h-2.9v-2.9ZM132.9,145h2.9v2.9h-2.9v-2.9ZM135.8,145h2.9v2.9h-2.9s0-2.9,0-2.9ZM138.7,145h2.9v2.9h-2.9v-2.9ZM141.8,145h2.9v2.9h-2.9v-2.9ZM144.7,145h2.9v2.9h-2.9v-2.9ZM26.1,148h2.9v2.9h-2.9v-2.9ZM32.1,148h2.9v2.9h-2.9v-2.9ZM38,148h2.9v2.9h-2.9v-2.9ZM41,148h2.9v2.9h-2.9v-2.9ZM46.9,148h2.9v2.9h-2.9v-2.9ZM49.8,148h2.9v2.9h-2.9v-2.9ZM52.8,148h2.9v2.9h-2.9v-2.9ZM55.8,148h2.9v2.9h-2.9s0-2.9,0-2.9ZM58.7,148h2.9v2.9h-2.9v-2.9ZM61.7,148h2.9v2.9h-2.9v-2.9ZM67.6,148h2.9v2.9h-2.9s0-2.9,0-2.9ZM79.4,148h2.9v2.9h-2.9v-2.9ZM82.5,148h2.9v2.9h-2.9v-2.9ZM91.4,148h2.9v2.9h-2.9v-2.9ZM94.3,148h2.9v2.9h-2.9v-2.9ZM97.2,148h2.9v2.9h-2.9v-2.9ZM103.2,148h2.9v2.9h-2.9v-2.9ZM109.1,148h2.9v2.9h-2.9v-2.9ZM112.1,148h2.9v2.9h-2.9v-2.9ZM115.1,148h2.9v2.9h-2.9v-2.9ZM121,148h2.9v2.9h-2.9v-2.9ZM8.3,150.9h2.9v2.9h-2.9v-2.9ZM11.3,150.9h2.9v2.9h-2.9v-2.9ZM14.3,150.9h2.9v2.9h-2.9v-2.9ZM20.1,150.9h2.9v2.9h-2.9v-2.9ZM26.1,150.9h2.9v2.9h-2.9v-2.9ZM29.1,150.9h2.9v2.9h-2.9v-2.9ZM35,150.9h2.9v2.9h-2.9v-2.9ZM41,150.9h2.9v2.9h-2.9v-2.9ZM43.9,150.9h2.9v2.9h-2.9v-2.9ZM46.9,150.9h2.9v2.9h-2.9v-2.9ZM55.8,150.9h2.9v2.9h-2.9v-2.9ZM58.7,150.9h2.9v2.9h-2.9v-2.9ZM61.7,150.9h2.9v2.9h-2.9v-2.9ZM67.6,150.9h2.9v2.9h-2.9s0-2.9,0-2.9ZM70.6,150.9h2.9v2.9h-2.9v-2.9ZM73.6,150.9h2.9v2.9h-2.9v-2.9ZM76.5,150.9h2.9v2.9h-2.9v-2.9ZM79.4,150.9h2.9v2.9h-2.9v-2.9ZM82.5,150.9h2.9v2.9h-2.9v-2.9ZM91.4,150.9h2.9v2.9h-2.9v-2.9ZM97.2,150.9h2.9v2.9h-2.9v-2.9ZM100.3,150.9h2.9v2.9h-2.9v-2.9ZM103.2,150.9h2.9v2.9h-2.9v-2.9ZM106.2,150.9h2.9v2.9h-2.9v-2.9ZM115.1,150.9h2.9v2.9h-2.9v-2.9ZM121,150.9h2.9v2.9h-2.9v-2.9ZM124,150.9h2.9v2.9h-2.9v-2.9ZM126.9,150.9h2.9v2.9h-2.9v-2.9ZM129.9,150.9h2.9v2.9h-2.9v-2.9ZM138.7,150.9h2.9v2.9h-2.9v-2.9ZM141.8,150.9h2.9v2.9h-2.9v-2.9ZM144.7,150.9h2.9v2.9h-2.9v-2.9ZM5.4,154h2.9v2.9h-2.9v-2.9ZM11.3,154h2.9v2.9h-2.9v-2.9ZM14.3,154h2.9v2.9h-2.9v-2.9ZM26.1,154h2.9v2.9h-2.9v-2.9ZM29.1,154h2.9v2.9h-2.9v-2.9ZM32.1,154h2.9v2.9h-2.9v-2.9ZM35,154h2.9v2.9h-2.9v-2.9ZM46.9,154h2.9v2.9h-2.9v-2.9ZM52.8,154h2.9v2.9h-2.9v-2.9ZM67.6,154h2.9v2.9h-2.9s0-2.9,0-2.9ZM73.6,154h2.9v2.9h-2.9v-2.9ZM82.5,154h2.9v2.9h-2.9v-2.9ZM91.4,154h2.9v2.9h-2.9v-2.9ZM94.3,154h2.9v2.9h-2.9v-2.9ZM103.2,154h2.9v2.9h-2.9v-2.9ZM112.1,154h2.9v2.9h-2.9v-2.9ZM115.1,154h2.9v2.9h-2.9v-2.9ZM126.9,154h2.9v2.9h-2.9v-2.9ZM129.9,154h2.9v2.9h-2.9v-2.9ZM138.7,154h2.9v2.9h-2.9v-2.9ZM8.3,156.9h2.9v2.9h-2.9v-2.9ZM14.3,156.9h2.9v2.9h-2.9v-2.9ZM17.2,156.9h2.9v2.9h-2.9v-2.9ZM20.1,156.9h2.9v2.9h-2.9v-2.9ZM23.2,156.9h2.9v2.9h-2.9v-2.9ZM26.1,156.9h2.9v2.9h-2.9v-2.9ZM29.1,156.9h2.9v2.9h-2.9v-2.9ZM43.9,156.9h2.9v2.9h-2.9v-2.9ZM46.9,156.9h2.9v2.9h-2.9v-2.9ZM58.7,156.9h2.9v2.9h-2.9v-2.9ZM61.7,156.9h2.9v2.9h-2.9v-2.9ZM70.6,156.9h2.9v2.9h-2.9v-2.9ZM73.6,156.9h2.9v2.9h-2.9v-2.9ZM85.4,156.9h2.9v2.9h-2.9v-2.9ZM88.3,156.9h2.9v2.9h-2.9v-2.9ZM100.3,156.9h2.9v2.9h-2.9v-2.9ZM106.2,156.9h2.9v2.9h-2.9v-2.9ZM118,156.9h2.9v2.9h-2.9v-2.9ZM124,156.9h2.9v2.9h-2.9s0-2.9,0-2.9ZM126.9,156.9h2.9v2.9h-2.9v-2.9ZM135.8,156.9h2.9v2.9h-2.9s0-2.9,0-2.9ZM138.7,156.9h2.9v2.9h-2.9v-2.9ZM144.7,156.9h2.9v2.9h-2.9v-2.9ZM2.4,159.8h2.9v2.9h-2.9v-2.9ZM5.4,159.8h2.9v2.9h-2.9v-2.9ZM8.3,159.8h2.9v2.9h-2.9v-2.9ZM14.3,159.8h2.9v2.9h-2.9v-2.9ZM17.2,159.8h2.9v2.9h-2.9v-2.9ZM23.2,159.8h2.9v2.9h-2.9v-2.9ZM26.1,159.8h2.9v2.9h-2.9v-2.9ZM35,159.8h2.9v2.9h-2.9v-2.9ZM38,159.8h2.9v2.9h-2.9v-2.9ZM41,159.8h2.9v2.9h-2.9v-2.9ZM43.9,159.8h2.9v2.9h-2.9v-2.9ZM49.8,159.8h2.9v2.9h-2.9v-2.9ZM55.8,159.8h2.9v2.9h-2.9v-2.9ZM58.7,159.8h2.9v2.9h-2.9v-2.9ZM61.7,159.8h2.9v2.9h-2.9v-2.9ZM64.7,159.8h2.9v2.9h-2.9v-2.9ZM67.6,159.8h2.9v2.9h-2.9s0-2.9,0-2.9ZM70.6,159.8h2.9v2.9h-2.9v-2.9ZM73.6,159.8h2.9v2.9h-2.9v-2.9ZM76.5,159.8h2.9v2.9h-2.9v-2.9ZM79.4,159.8h2.9v2.9h-2.9v-2.9ZM82.5,159.8h2.9v2.9h-2.9v-2.9ZM88.3,159.8h2.9v2.9h-2.9v-2.9ZM91.4,159.8h2.9v2.9h-2.9v-2.9ZM94.3,159.8h2.9v2.9h-2.9v-2.9ZM103.2,159.8h2.9v2.9h-2.9v-2.9ZM106.2,159.8h2.9v2.9h-2.9v-2.9ZM109.1,159.8h2.9v2.9h-2.9v-2.9ZM112.1,159.8h2.9v2.9h-2.9v-2.9ZM115.1,159.8h2.9v2.9h-2.9v-2.9ZM126.9,159.8h2.9v2.9h-2.9v-2.9ZM132.9,159.8h2.9v2.9h-2.9v-2.9ZM138.7,159.8h2.9v2.9h-2.9v-2.9ZM141.8,159.8h2.9v2.9h-2.9v-2.9ZM144.7,159.8h2.9v2.9h-2.9v-2.9ZM2.4,162.9h2.9v2.9h-2.9v-2.9ZM5.4,162.9h2.9v2.9h-2.9v-2.9ZM8.3,162.9h2.9v2.9h-2.9v-2.9ZM14.3,162.9h2.9v2.9h-2.9v-2.9ZM20.1,162.9h2.9v2.9h-2.9v-2.9ZM23.2,162.9h2.9v2.9h-2.9v-2.9ZM26.1,162.9h2.9v2.9h-2.9v-2.9ZM29.1,162.9h2.9v2.9h-2.9v-2.9ZM38,162.9h2.9v2.9h-2.9v-2.9ZM41,162.9h2.9v2.9h-2.9v-2.9ZM43.9,162.9h2.9v2.9h-2.9v-2.9ZM55.8,162.9h2.9v2.9h-2.9s0-2.9,0-2.9ZM61.7,162.9h2.9v2.9h-2.9v-2.9ZM88.3,162.9h2.9v2.9h-2.9v-2.9ZM94.3,162.9h2.9v2.9h-2.9v-2.9ZM100.3,162.9h2.9v2.9h-2.9v-2.9ZM103.2,162.9h2.9v2.9h-2.9v-2.9ZM109.1,162.9h2.9v2.9h-2.9v-2.9ZM115.1,162.9h2.9v2.9h-2.9v-2.9ZM118,162.9h2.9v2.9h-2.9v-2.9ZM121,162.9h2.9v2.9h-2.9v-2.9ZM124,162.9h2.9v2.9h-2.9s0-2.9,0-2.9ZM126.9,162.9h2.9v2.9h-2.9v-2.9ZM135.8,162.9h2.9v2.9h-2.9s0-2.9,0-2.9ZM2.4,165.8h2.9v2.9h-2.9v-2.9ZM17.2,165.8h2.9v2.9h-2.9v-2.9ZM23.2,165.8h2.9v2.9h-2.9v-2.9ZM32.1,165.8h2.9v2.9h-2.9v-2.9ZM41,165.8h2.9v2.9h-2.9v-2.9ZM106.2,165.8h2.9v2.9h-2.9v-2.9ZM109.1,165.8h2.9v2.9h-2.9v-2.9ZM112.1,165.8h2.9v2.9h-2.9v-2.9ZM115.1,165.8h2.9v2.9h-2.9v-2.9ZM118,165.8h2.9v2.9h-2.9v-2.9ZM126.9,165.8h2.9v2.9h-2.9v-2.9ZM132.9,165.8h2.9v2.9h-2.9v-2.9ZM135.8,165.8h2.9v2.9h-2.9s0-2.9,0-2.9ZM5.4,168.7h2.9v2.9h-2.9v-2.9ZM17.2,168.7h2.9v2.9h-2.9v-2.9ZM20.1,168.7h2.9v2.9h-2.9v-2.9ZM23.2,168.7h2.9v2.9h-2.9v-2.9ZM26.1,168.7h2.9v2.9h-2.9v-2.9ZM32.1,168.7h2.9v2.9h-2.9v-2.9ZM38,168.7h2.9v2.9h-2.9v-2.9ZM109.1,168.7h2.9v2.9h-2.9v-2.9ZM118,168.7h2.9v2.9h-2.9v-2.9ZM121,168.7h2.9v2.9h-2.9v-2.9ZM124,168.7h2.9v2.9h-2.9v-2.9ZM126.9,168.7h2.9v2.9h-2.9v-2.9ZM141.8,168.7h2.9v2.9h-2.9v-2.9ZM144.7,168.7h2.9v2.9h-2.9v-2.9ZM5.4,171.7h2.9v2.9h-2.9v-2.9ZM8.3,171.7h2.9v2.9h-2.9v-2.9ZM14.3,171.7h2.9v2.9h-2.9v-2.9ZM29.1,171.7h2.9v2.9h-2.9v-2.9ZM32.1,171.7h2.9v2.9h-2.9v-2.9ZM109.1,171.7h2.9v2.9h-2.9v-2.9ZM118,171.7h2.9v2.9h-2.9v-2.9ZM121,171.7h2.9v2.9h-2.9v-2.9ZM124,171.7h2.9v2.9h-2.9s0-2.9,0-2.9ZM132.9,171.7h2.9v2.9h-2.9v-2.9ZM135.8,171.7h2.9v2.9h-2.9s0-2.9,0-2.9ZM144.7,171.7h2.9v2.9h-2.9v-2.9ZM2.4,174.7h2.9v2.9h-2.9v-2.9ZM5.4,174.7h2.9v2.9h-2.9v-2.9ZM8.3,174.7h2.9v2.9h-2.9v-2.9ZM11.3,174.7h2.9v2.9h-2.9v-2.9ZM17.2,174.7h2.9v2.9h-2.9v-2.9ZM20.1,174.7h2.9v2.9h-2.9v-2.9ZM23.2,174.7h2.9v2.9h-2.9v-2.9ZM26.1,174.7h2.9v2.9h-2.9v-2.9ZM109.1,174.7h2.9v2.9h-2.9v-2.9ZM112.1,174.7h2.9v2.9h-2.9v-2.9ZM118,174.7h2.9v2.9h-2.9v-2.9ZM129.9,174.7h2.9v2.9h-2.9v-2.9ZM141.8,174.7h2.9v2.9h-2.9v-2.9ZM144.7,174.7h2.9v2.9h-2.9v-2.9ZM2.4,177.6h2.9v2.9h-2.9v-2.9ZM8.3,177.6h2.9v2.9h-2.9v-2.9ZM11.3,177.6h2.9v2.9h-2.9v-2.9ZM26.1,177.6h2.9v2.9h-2.9v-2.9ZM32.1,177.6h2.9v2.9h-2.9v-2.9ZM35,177.6h2.9v2.9h-2.9v-2.9ZM38,177.6h2.9v2.9h-2.9v-2.9ZM109.1,177.6h2.9v2.9h-2.9v-2.9ZM121,177.6h2.9v2.9h-2.9v-2.9ZM124,177.6h2.9v2.9h-2.9v-2.9ZM129.9,177.6h2.9v2.9h-2.9v-2.9ZM132.9,177.6h2.9v2.9h-2.9v-2.9ZM135.8,177.6h2.9v2.9h-2.9s0-2.9,0-2.9ZM138.7,177.6h2.9v2.9h-2.9v-2.9ZM5.4,180.6h2.9v2.9h-2.9v-2.9ZM11.3,180.6h2.9v2.9h-2.9v-2.9ZM14.3,180.6h2.9v2.9h-2.9v-2.9ZM20.1,180.6h2.9v2.9h-2.9v-2.9ZM26.1,180.6h2.9v2.9h-2.9v-2.9ZM29.1,180.6h2.9v2.9h-2.9v-2.9ZM32.1,180.6h2.9v2.9h-2.9v-2.9ZM109.1,180.6h2.9v2.9h-2.9v-2.9ZM112.1,180.6h2.9v2.9h-2.9v-2.9ZM118,180.6h2.9v2.9h-2.9v-2.9ZM121,180.6h2.9v2.9h-2.9v-2.9ZM126.9,180.6h2.9v2.9h-2.9v-2.9ZM129.9,180.6h2.9v2.9h-2.9v-2.9ZM132.9,180.6h2.9v2.9h-2.9v-2.9ZM135.8,180.6h2.9v2.9h-2.9s0-2.9,0-2.9ZM144.7,180.6h2.9v2.9h-2.9v-2.9ZM2.4,183.6h2.9v2.9h-2.9v-2.9ZM5.4,183.6h2.9v2.9h-2.9v-2.9ZM14.3,183.6h2.9v2.9h-2.9v-2.9ZM17.2,183.6h2.9v2.9h-2.9v-2.9ZM35,183.6h2.9v2.9h-2.9v-2.9ZM112.1,183.6h2.9v2.9h-2.9v-2.9ZM115.1,183.6h2.9v2.9h-2.9v-2.9ZM121,183.6h2.9v2.9h-2.9v-2.9ZM126.9,183.6h2.9v2.9h-2.9v-2.9ZM129.9,183.6h2.9v2.9h-2.9v-2.9ZM132.9,183.6h2.9v2.9h-2.9v-2.9ZM2.4,186.5h2.9v2.9h-2.9v-2.9ZM5.4,186.5h2.9v2.9h-2.9v-2.9ZM14.3,186.5h2.9v2.9h-2.9v-2.9ZM20.1,186.5h2.9v2.9h-2.9v-2.9ZM23.2,186.5h2.9v2.9h-2.9v-2.9ZM26.1,186.5h2.9v2.9h-2.9v-2.9ZM32.1,186.5h2.9v2.9h-2.9v-2.9ZM109.1,186.5h2.9v2.9h-2.9v-2.9ZM112.1,186.5h2.9v2.9h-2.9v-2.9ZM115.1,186.5h2.9v2.9h-2.9v-2.9ZM126.9,186.5h2.9v2.9h-2.9v-2.9ZM129.9,186.5h2.9v2.9h-2.9v-2.9ZM138.7,186.5h2.9v2.9h-2.9v-2.9ZM144.7,186.5h2.9v2.9h-2.9v-2.9ZM5.4,189.5h2.9v2.9h-2.9v-2.9ZM11.3,189.5h2.9v2.9h-2.9v-2.9ZM14.3,189.5h2.9v2.9h-2.9v-2.9ZM17.2,189.5h2.9v2.9h-2.9v-2.9ZM26.1,189.5h2.9v2.9h-2.9v-2.9ZM29.1,189.5h2.9v2.9h-2.9v-2.9ZM32.1,189.5h2.9v2.9h-2.9v-2.9ZM109.1,189.5h2.9v2.9h-2.9v-2.9ZM118,189.5h2.9v2.9h-2.9v-2.9ZM124,189.5h2.9v2.9h-2.9s0-2.9,0-2.9ZM126.9,189.5h2.9v2.9h-2.9v-2.9ZM138.7,189.5h2.9v2.9h-2.9v-2.9ZM5.4,192.4h2.9v2.9h-2.9v-2.9ZM14.3,192.4h2.9v2.9h-2.9v-2.9ZM17.2,192.4h2.9v2.9h-2.9v-2.9ZM20.1,192.4h2.9v2.9h-2.9v-2.9ZM23.2,192.4h2.9v2.9h-2.9v-2.9ZM26.1,192.4h2.9v2.9h-2.9v-2.9ZM29.1,192.4h2.9v2.9h-2.9v-2.9ZM109.1,192.4h2.9v2.9h-2.9v-2.9ZM115.1,192.4h2.9v2.9h-2.9v-2.9ZM121,192.4h2.9v2.9h-2.9v-2.9ZM124,192.4h2.9v2.9h-2.9v-2.9ZM126.9,192.4h2.9v2.9h-2.9v-2.9ZM129.9,192.4h2.9v2.9h-2.9v-2.9ZM132.9,192.4h2.9v2.9h-2.9v-2.9ZM135.8,192.4h2.9v2.9h-2.9s0-2.9,0-2.9ZM138.7,192.4h2.9v2.9h-2.9v-2.9ZM141.8,192.4h2.9v2.9h-2.9v-2.9ZM144.7,192.4h2.9v2.9h-2.9v-2.9ZM2.4,195.4h2.9v2.9h-2.9v-2.9ZM14.3,195.4h2.9v2.9h-2.9v-2.9ZM26.1,195.4h2.9v2.9h-2.9v-2.9ZM32.1,195.4h2.9v2.9h-2.9v-2.9ZM118,195.4h2.9v2.9h-2.9v-2.9ZM121,195.4h2.9v2.9h-2.9v-2.9ZM132.9,195.4h2.9v2.9h-2.9v-2.9ZM141.8,195.4h2.9v2.9h-2.9v-2.9ZM11.3,198.4h2.9v2.9h-2.9v-2.9ZM14.3,198.4h2.9v2.9h-2.9v-2.9ZM20.1,198.4h2.9v2.9h-2.9v-2.9ZM26.1,198.4h2.9v2.9h-2.9v-2.9ZM32.1,198.4h2.9v2.9h-2.9v-2.9ZM109.1,198.4h2.9v2.9h-2.9v-2.9ZM115.1,198.4h2.9v2.9h-2.9v-2.9ZM118,198.4h2.9v2.9h-2.9v-2.9ZM121,198.4h2.9v2.9h-2.9v-2.9ZM126.9,198.4h2.9v2.9h-2.9v-2.9ZM132.9,198.4h2.9v2.9h-2.9v-2.9ZM135.8,198.4h2.9v2.9h-2.9s0-2.9,0-2.9ZM138.7,198.4h2.9v2.9h-2.9v-2.9ZM5.4,201.3h2.9v2.9h-2.9v-2.9ZM8.3,201.3h2.9v2.9h-2.9v-2.9ZM14.3,201.3h2.9v2.9h-2.9v-2.9ZM26.1,201.3h2.9v2.9h-2.9v-2.9ZM29.1,201.3h2.9v2.9h-2.9v-2.9ZM112.1,201.3h2.9v2.9h-2.9v-2.9ZM118,201.3h2.9v2.9h-2.9v-2.9ZM121,201.3h2.9v2.9h-2.9v-2.9ZM132.9,201.3h2.9v2.9h-2.9v-2.9ZM138.7,201.3h2.9v2.9h-2.9v-2.9ZM144.7,201.3h2.9v2.9h-2.9v-2.9ZM5.4,204.3h2.9v2.9h-2.9v-2.9ZM14.3,204.3h2.9v2.9h-2.9v-2.9ZM17.2,204.3h2.9v2.9h-2.9v-2.9ZM20.1,204.3h2.9v2.9h-2.9v-2.9ZM23.2,204.3h2.9v2.9h-2.9v-2.9ZM26.1,204.3h2.9v2.9h-2.9v-2.9ZM32.1,204.3h2.9v2.9h-2.9v-2.9ZM38,204.3h2.9v2.9h-2.9v-2.9ZM41,204.3h2.9v2.9h-2.9v-2.9ZM106.2,204.3h2.9v2.9h-2.9v-2.9ZM115.1,204.3h2.9v2.9h-2.9v-2.9ZM121,204.3h2.9v2.9h-2.9v-2.9ZM124,204.3h2.9v2.9h-2.9v-2.9ZM126.9,204.3h2.9v2.9h-2.9v-2.9ZM129.9,204.3h2.9v2.9h-2.9v-2.9ZM132.9,204.3h2.9v2.9h-2.9v-2.9ZM135.8,204.3h2.9v2.9h-2.9s0-2.9,0-2.9ZM141.8,204.3h2.9v2.9h-2.9v-2.9ZM8.3,207.3h2.9v2.9h-2.9v-2.9ZM17.2,207.3h2.9v2.9h-2.9v-2.9ZM23.2,207.3h2.9v2.9h-2.9v-2.9ZM29.1,207.3h2.9v2.9h-2.9v-2.9ZM32.1,207.3h2.9v2.9h-2.9v-2.9ZM38,207.3h2.9v2.9h-2.9v-2.9ZM118,207.3h2.9v2.9h-2.9v-2.9ZM124,207.3h2.9v2.9h-2.9v-2.9ZM129.9,207.3h2.9v2.9h-2.9v-2.9ZM2.4,210.2h2.9v2.9h-2.9v-2.9ZM14.3,210.2h2.9v2.9h-2.9v-2.9ZM17.2,210.2h2.9v2.9h-2.9v-2.9ZM20.1,210.2h2.9v2.9h-2.9v-2.9ZM23.2,210.2h2.9v2.9h-2.9v-2.9ZM32.1,210.2h2.9v2.9h-2.9v-2.9ZM38,210.2h2.9v2.9h-2.9v-2.9ZM43.9,210.2h2.9v2.9h-2.9v-2.9ZM103.2,210.2h2.9v2.9h-2.9v-2.9ZM106.2,210.2h2.9v2.9h-2.9v-2.9ZM109.1,210.2h2.9v2.9h-2.9v-2.9ZM112.1,210.2h2.9v2.9h-2.9v-2.9ZM118,210.2h2.9v2.9h-2.9v-2.9ZM121,210.2h2.9v2.9h-2.9v-2.9ZM124,210.2h2.9v2.9h-2.9v-2.9ZM129.9,210.2h2.9v2.9h-2.9v-2.9ZM135.8,210.2h2.9v2.9h-2.9s0-2.9,0-2.9ZM138.7,210.2h2.9v2.9h-2.9v-2.9ZM141.8,210.2h2.9v2.9h-2.9v-2.9ZM17.2,213.2h2.9v2.9h-2.9v-2.9ZM23.2,213.2h2.9v2.9h-2.9v-2.9ZM29.1,213.2h2.9v2.9h-2.9v-2.9ZM41,213.2h2.9v2.9h-2.9v-2.9ZM43.9,213.2h2.9v2.9h-2.9v-2.9ZM106.2,213.2h2.9v2.9h-2.9v-2.9ZM112.1,213.2h2.9v2.9h-2.9v-2.9ZM118,213.2h2.9v2.9h-2.9v-2.9ZM124,213.2h2.9v2.9h-2.9v-2.9ZM126.9,213.2h2.9v2.9h-2.9v-2.9ZM138.7,213.2h2.9v2.9h-2.9v-2.9ZM141.8,213.2h2.9v2.9h-2.9v-2.9ZM144.7,213.2h2.9v2.9h-2.9v-2.9ZM14.3,216.2h2.9v2.9h-2.9v-2.9ZM20.1,216.2h2.9v2.9h-2.9v-2.9ZM26.1,216.2h2.9v2.9h-2.9v-2.9ZM35,216.2h2.9v2.9h-2.9v-2.9ZM43.9,216.2h2.9v2.9h-2.9v-2.9ZM100.3,216.2h2.9v2.9h-2.9v-2.9ZM103.2,216.2h2.9v2.9h-2.9v-2.9ZM106.2,216.2h2.9v2.9h-2.9v-2.9ZM109.1,216.2h2.9v2.9h-2.9v-2.9ZM112.1,216.2h2.9v2.9h-2.9v-2.9ZM115.1,216.2h2.9v2.9h-2.9v-2.9ZM118,216.2h2.9v2.9h-2.9v-2.9ZM126.9,216.2h2.9v2.9h-2.9v-2.9ZM129.9,216.2h2.9v2.9h-2.9v-2.9ZM138.7,216.2h2.9v2.9h-2.9v-2.9ZM144.7,216.2h2.9v2.9h-2.9v-2.9ZM2.4,219.1h2.9v2.9h-2.9v-2.9ZM5.4,219.1h2.9v2.9h-2.9v-2.9ZM8.3,219.1h2.9v2.9h-2.9v-2.9ZM26.1,219.1h2.9v2.9h-2.9v-2.9ZM29.1,219.1h2.9v2.9h-2.9v-2.9ZM41,219.1h2.9v2.9h-2.9v-2.9ZM43.9,219.1h2.9v2.9h-2.9v-2.9ZM100.3,219.1h2.9v2.9h-2.9v-2.9ZM106.2,219.1h2.9v2.9h-2.9v-2.9ZM109.1,219.1h2.9v2.9h-2.9v-2.9ZM121,219.1h2.9v2.9h-2.9v-2.9ZM135.8,219.1h2.9v2.9h-2.9s0-2.9,0-2.9ZM141.8,219.1h2.9v2.9h-2.9v-2.9ZM144.7,219.1h2.9v2.9h-2.9v-2.9ZM5.4,222h2.9v2.9h-2.9v-2.9ZM11.3,222h2.9v2.9h-2.9v-2.9ZM20.1,222h2.9v2.9h-2.9v-2.9ZM23.2,222h2.9v2.9h-2.9v-2.9ZM26.1,222h2.9v2.9h-2.9v-2.9ZM32.1,222h2.9v2.9h-2.9v-2.9ZM38,222h2.9v2.9h-2.9v-2.9ZM43.9,222h2.9v2.9h-2.9v-2.9ZM46.9,222h2.9v2.9h-2.9v-2.9ZM49.8,222h2.9v2.9h-2.9v-2.9ZM109.1,222h2.9v2.9h-2.9v-2.9ZM112.1,222h2.9v2.9h-2.9v-2.9ZM118,222h2.9v2.9h-2.9v-2.9ZM121,222h2.9v2.9h-2.9v-2.9ZM124,222h2.9v2.9h-2.9v-2.9ZM135.8,222h2.9v2.9h-2.9s0-2.9,0-2.9ZM144.7,222h2.9v2.9h-2.9v-2.9ZM2.4,225.1h2.9v2.9h-2.9v-2.9ZM5.4,225.1h2.9v2.9h-2.9v-2.9ZM8.3,225.1h2.9v2.9h-2.9v-2.9ZM11.3,225.1h2.9v2.9h-2.9v-2.9ZM17.2,225.1h2.9v2.9h-2.9v-2.9ZM26.1,225.1h2.9v2.9h-2.9v-2.9ZM29.1,225.1h2.9v2.9h-2.9v-2.9ZM43.9,225.1h2.9v2.9h-2.9v-2.9ZM46.9,225.1h2.9v2.9h-2.9v-2.9ZM52.8,225.1h2.9v2.9h-2.9v-2.9ZM94.3,225.1h2.9v2.9h-2.9v-2.9ZM100.3,225.1h2.9v2.9h-2.9v-2.9ZM106.2,225.1h2.9v2.9h-2.9v-2.9ZM109.1,225.1h2.9v2.9h-2.9v-2.9ZM124,225.1h2.9v2.9h-2.9v-2.9ZM129.9,225.1h2.9v2.9h-2.9v-2.9ZM132.9,225.1h2.9v2.9h-2.9v-2.9ZM135.8,225.1h2.9v2.9h-2.9s0-2.9,0-2.9ZM141.8,225.1h2.9v2.9h-2.9v-2.9ZM8.3,228h2.9v2.9h-2.9v-2.9ZM14.3,228h2.9v2.9h-2.9v-2.9ZM17.2,228h2.9v2.9h-2.9v-2.9ZM20.1,228h2.9v2.9h-2.9v-2.9ZM23.2,228h2.9v2.9h-2.9v-2.9ZM29.1,228h2.9v2.9h-2.9v-2.9ZM32.1,228h2.9v2.9h-2.9v-2.9ZM35,228h2.9v2.9h-2.9v-2.9ZM41,228h2.9v2.9h-2.9v-2.9ZM43.9,228h2.9v2.9h-2.9v-2.9ZM52.8,228h2.9v2.9h-2.9v-2.9ZM109.1,228h2.9v2.9h-2.9v-2.9ZM112.1,228h2.9v2.9h-2.9v-2.9ZM118,228h2.9v2.9h-2.9v-2.9ZM121,228h2.9v2.9h-2.9v-2.9ZM124,228h2.9v2.9h-2.9v-2.9ZM126.9,228h2.9v2.9h-2.9v-2.9ZM132.9,228h2.9v2.9h-2.9v-2.9ZM141.8,228h2.9v2.9h-2.9v-2.9ZM144.7,228h2.9v2.9h-2.9v-2.9ZM2.4,231h2.9v2.9h-2.9v-2.9ZM11.3,231h2.9v2.9h-2.9v-2.9ZM14.3,231h2.9v2.9h-2.9v-2.9ZM26.1,231h2.9v2.9h-2.9v-2.9ZM29.1,231h2.9v2.9h-2.9v-2.9ZM38,231h2.9v2.9h-2.9v-2.9ZM41,231h2.9v2.9h-2.9v-2.9ZM46.9,231h2.9v2.9h-2.9v-2.9ZM49.8,231h2.9v2.9h-2.9v-2.9ZM52.8,231h2.9v2.9h-2.9v-2.9ZM61.7,231h2.9v2.9h-2.9v-2.9ZM85.4,231h2.9v2.9h-2.9v-2.9ZM88.3,231h2.9v2.9h-2.9v-2.9ZM100.3,231h2.9v2.9h-2.9v-2.9ZM109.1,231h2.9v2.9h-2.9v-2.9ZM121,231h2.9v2.9h-2.9v-2.9ZM124,231h2.9v2.9h-2.9v-2.9ZM129.9,231h2.9v2.9h-2.9v-2.9ZM132.9,231h2.9v2.9h-2.9v-2.9ZM135.8,231h2.9v2.9h-2.9s0-2.9,0-2.9ZM144.7,231h2.9v2.9h-2.9v-2.9ZM5.4,234h2.9v2.9h-2.9v-2.9ZM17.2,234h2.9v2.9h-2.9v-2.9ZM20.1,234h2.9v2.9h-2.9v-2.9ZM23.2,234h2.9v2.9h-2.9v-2.9ZM35,234h2.9v2.9h-2.9v-2.9ZM38,234h2.9v2.9h-2.9v-2.9ZM46.9,234h2.9v2.9h-2.9v-2.9ZM61.7,234h2.9v2.9h-2.9v-2.9ZM67.6,234h2.9v2.9h-2.9s0-2.9,0-2.9ZM70.6,234h2.9v2.9h-2.9v-2.9ZM79.4,234h2.9v2.9h-2.9v-2.9ZM82.5,234h2.9v2.9h-2.9v-2.9ZM85.4,234h2.9v2.9h-2.9v-2.9ZM91.4,234h2.9v2.9h-2.9v-2.9ZM94.3,234h2.9v2.9h-2.9v-2.9ZM97.2,234h2.9v2.9h-2.9v-2.9ZM106.2,234h2.9v2.9h-2.9v-2.9ZM112.1,234h2.9v2.9h-2.9v-2.9ZM118,234h2.9v2.9h-2.9v-2.9ZM121,234h2.9v2.9h-2.9v-2.9ZM124,234h2.9v2.9h-2.9v-2.9ZM141.8,234h2.9v2.9h-2.9v-2.9ZM144.7,234h2.9v2.9h-2.9v-2.9ZM5.4,236.9h2.9v2.9h-2.9v-2.9ZM11.3,236.9h2.9v2.9h-2.9v-2.9ZM17.2,236.9h2.9v2.9h-2.9v-2.9ZM23.2,236.9h2.9v2.9h-2.9v-2.9ZM29.1,236.9h2.9v2.9h-2.9v-2.9ZM32.1,236.9h2.9v2.9h-2.9v-2.9ZM35,236.9h2.9v2.9h-2.9v-2.9ZM38,236.9h2.9v2.9h-2.9v-2.9ZM41,236.9h2.9v2.9h-2.9v-2.9ZM43.9,236.9h2.9v2.9h-2.9v-2.9ZM46.9,236.9h2.9v2.9h-2.9v-2.9ZM55.8,236.9h2.9v2.9h-2.9v-2.9ZM67.6,236.9h2.9v2.9h-2.9s0-2.9,0-2.9ZM73.6,236.9h2.9v2.9h-2.9v-2.9ZM76.5,236.9h2.9v2.9h-2.9v-2.9ZM85.4,236.9h2.9v2.9h-2.9v-2.9ZM88.3,236.9h2.9v2.9h-2.9v-2.9ZM97.2,236.9h2.9v2.9h-2.9v-2.9ZM100.3,236.9h2.9v2.9h-2.9v-2.9ZM121,236.9h2.9v2.9h-2.9v-2.9ZM129.9,236.9h2.9v2.9h-2.9v-2.9ZM132.9,236.9h2.9v2.9h-2.9v-2.9ZM138.7,236.9h2.9v2.9h-2.9v-2.9ZM141.8,236.9h2.9v2.9h-2.9v-2.9ZM5.4,239.9h2.9v2.9h-2.9v-2.9ZM17.2,239.9h2.9v2.9h-2.9v-2.9ZM20.1,239.9h2.9v2.9h-2.9v-2.9ZM23.2,239.9h2.9v2.9h-2.9v-2.9ZM29.1,239.9h2.9v2.9h-2.9v-2.9ZM38,239.9h2.9v2.9h-2.9v-2.9ZM46.9,239.9h2.9v2.9h-2.9v-2.9ZM49.8,239.9h2.9v2.9h-2.9v-2.9ZM55.8,239.9h2.9v2.9h-2.9v-2.9ZM61.7,239.9h2.9v2.9h-2.9v-2.9ZM67.6,239.9h2.9v2.9h-2.9s0-2.9,0-2.9ZM70.6,239.9h2.9v2.9h-2.9v-2.9ZM82.5,239.9h2.9v2.9h-2.9v-2.9ZM91.4,239.9h2.9v2.9h-2.9v-2.9ZM94.3,239.9h2.9v2.9h-2.9v-2.9ZM97.2,239.9h2.9v2.9h-2.9v-2.9ZM106.2,239.9h2.9v2.9h-2.9v-2.9ZM112.1,239.9h2.9v2.9h-2.9v-2.9ZM121,239.9h2.9v2.9h-2.9v-2.9ZM124,239.9h2.9v2.9h-2.9v-2.9ZM132.9,239.9h2.9v2.9h-2.9v-2.9ZM135.8,239.9h2.9v2.9h-2.9s0-2.9,0-2.9ZM138.7,239.9h2.9v2.9h-2.9v-2.9ZM141.8,239.9h2.9v2.9h-2.9v-2.9ZM144.7,239.9h2.9v2.9h-2.9v-2.9ZM5.4,242.9h2.9v2.9h-2.9v-2.9ZM8.3,242.9h2.9v2.9h-2.9v-2.9ZM11.3,242.9h2.9v2.9h-2.9v-2.9ZM23.2,242.9h2.9v2.9h-2.9v-2.9ZM35,242.9h2.9v2.9h-2.9v-2.9ZM43.9,242.9h2.9v2.9h-2.9v-2.9ZM61.7,242.9h2.9v2.9h-2.9v-2.9ZM64.7,242.9h2.9v2.9h-2.9v-2.9ZM67.6,242.9h2.9v2.9h-2.9s0-2.9,0-2.9ZM73.6,242.9h2.9v2.9h-2.9v-2.9ZM79.4,242.9h2.9v2.9h-2.9v-2.9ZM82.5,242.9h2.9v2.9h-2.9v-2.9ZM85.4,242.9h2.9v2.9h-2.9v-2.9ZM88.3,242.9h2.9v2.9h-2.9v-2.9ZM103.2,242.9h2.9v2.9h-2.9v-2.9ZM109.1,242.9h2.9v2.9h-2.9v-2.9ZM112.1,242.9h2.9v2.9h-2.9v-2.9ZM115.1,242.9h2.9v2.9h-2.9v-2.9ZM126.9,242.9h2.9v2.9h-2.9v-2.9ZM129.9,242.9h2.9v2.9h-2.9v-2.9ZM132.9,242.9h2.9v2.9h-2.9v-2.9ZM138.7,242.9h2.9v2.9h-2.9v-2.9ZM2.4,245.8h2.9v2.9h-2.9v-2.9ZM5.4,245.8h2.9v2.9h-2.9v-2.9ZM8.3,245.8h2.9v2.9h-2.9v-2.9ZM20.1,245.8h2.9v2.9h-2.9v-2.9ZM23.2,245.8h2.9v2.9h-2.9v-2.9ZM32.1,245.8h2.9v2.9h-2.9v-2.9ZM35,245.8h2.9v2.9h-2.9v-2.9ZM43.9,245.8h2.9v2.9h-2.9v-2.9ZM52.8,245.8h2.9v2.9h-2.9v-2.9ZM55.8,245.8h2.9v2.9h-2.9v-2.9ZM67.6,245.8h2.9v2.9h-2.9s0-2.9,0-2.9ZM70.6,245.8h2.9v2.9h-2.9v-2.9ZM73.6,245.8h2.9v2.9h-2.9v-2.9ZM76.5,245.8h2.9v2.9h-2.9v-2.9ZM79.4,245.8h2.9v2.9h-2.9v-2.9ZM82.5,245.8h2.9v2.9h-2.9v-2.9ZM85.4,245.8h2.9v2.9h-2.9v-2.9ZM88.3,245.8h2.9v2.9h-2.9v-2.9ZM94.3,245.8h2.9v2.9h-2.9v-2.9ZM97.2,245.8h2.9v2.9h-2.9v-2.9ZM100.3,245.8h2.9v2.9h-2.9v-2.9ZM103.2,245.8h2.9v2.9h-2.9v-2.9ZM106.2,245.8h2.9v2.9h-2.9v-2.9ZM115.1,245.8h2.9v2.9h-2.9v-2.9ZM118,245.8h2.9v2.9h-2.9v-2.9ZM121,245.8h2.9v2.9h-2.9v-2.9ZM124,245.8h2.9v2.9h-2.9v-2.9ZM126.9,245.8h2.9v2.9h-2.9v-2.9ZM129.9,245.8h2.9v2.9h-2.9v-2.9ZM132.9,245.8h2.9v2.9h-2.9v-2.9ZM135.8,245.8h2.9v2.9h-2.9s0-2.9,0-2.9ZM144.7,245.8h2.9v2.9h-2.9v-2.9ZM26.1,248.8h2.9v2.9h-2.9v-2.9ZM32.1,248.8h2.9v2.9h-2.9v-2.9ZM43.9,248.8h2.9v2.9h-2.9v-2.9ZM46.9,248.8h2.9v2.9h-2.9v-2.9ZM49.8,248.8h2.9v2.9h-2.9v-2.9ZM52.8,248.8h2.9v2.9h-2.9v-2.9ZM55.8,248.8h2.9v2.9h-2.9v-2.9ZM67.6,248.8h2.9v2.9h-2.9s0-2.9,0-2.9ZM79.4,248.8h2.9v2.9h-2.9v-2.9ZM82.5,248.8h2.9v2.9h-2.9v-2.9ZM85.4,248.8h2.9v2.9h-2.9v-2.9ZM97.2,248.8h2.9v2.9h-2.9v-2.9ZM103.2,248.8h2.9v2.9h-2.9v-2.9ZM112.1,248.8h2.9v2.9h-2.9v-2.9ZM115.1,248.8h2.9v2.9h-2.9v-2.9ZM121,248.8h2.9v2.9h-2.9v-2.9ZM132.9,248.8h2.9v2.9h-2.9v-2.9ZM2.4,251.7h2.9v2.9h-2.9v-2.9ZM5.4,251.7h2.9v2.9h-2.9v-2.9ZM8.3,251.7h2.9v2.9h-2.9v-2.9ZM11.3,251.7h2.9v2.9h-2.9v-2.9ZM14.3,251.7h2.9v2.9h-2.9v-2.9ZM17.2,251.7h2.9v2.9h-2.9v-2.9ZM20.1,251.7h2.9v2.9h-2.9v-2.9ZM29.1,251.7h2.9v2.9h-2.9v-2.9ZM32.1,251.7h2.9v2.9h-2.9v-2.9ZM35,251.7h2.9v2.9h-2.9v-2.9ZM38,251.7h2.9v2.9h-2.9v-2.9ZM46.9,251.7h2.9v2.9h-2.9v-2.9ZM49.8,251.7h2.9v2.9h-2.9v-2.9ZM52.8,251.7h2.9v2.9h-2.9v-2.9ZM61.7,251.7h2.9v2.9h-2.9v-2.9ZM64.7,251.7h2.9v2.9h-2.9v-2.9ZM67.6,251.7h2.9v2.9h-2.9s0-2.9,0-2.9ZM73.6,251.7h2.9v2.9h-2.9v-2.9ZM79.4,251.7h2.9v2.9h-2.9v-2.9ZM82.5,251.7h2.9v2.9h-2.9v-2.9ZM91.4,251.7h2.9v2.9h-2.9v-2.9ZM94.3,251.7h2.9v2.9h-2.9v-2.9ZM97.2,251.7h2.9v2.9h-2.9v-2.9ZM100.3,251.7h2.9v2.9h-2.9v-2.9ZM106.2,251.7h2.9v2.9h-2.9v-2.9ZM121,251.7h2.9v2.9h-2.9v-2.9ZM126.9,251.7h2.9v2.9h-2.9v-2.9ZM132.9,251.7h2.9v2.9h-2.9v-2.9ZM135.8,251.7h2.9v2.9h-2.9s0-2.9,0-2.9ZM141.8,251.7h2.9v2.9h-2.9v-2.9ZM144.7,251.7h2.9v2.9h-2.9v-2.9ZM2.4,254.7h2.9v2.9h-2.9v-2.9ZM20.1,254.7h2.9v2.9h-2.9v-2.9ZM29.1,254.7h2.9v2.9h-2.9v-2.9ZM35,254.7h2.9v2.9h-2.9v-2.9ZM38,254.7h2.9v2.9h-2.9v-2.9ZM46.9,254.7h2.9v2.9h-2.9v-2.9ZM49.8,254.7h2.9v2.9h-2.9v-2.9ZM52.8,254.7h2.9v2.9h-2.9v-2.9ZM55.8,254.7h2.9v2.9h-2.9v-2.9ZM58.7,254.7h2.9v2.9h-2.9v-2.9ZM61.7,254.7h2.9v2.9h-2.9v-2.9ZM64.7,254.7h2.9v2.9h-2.9v-2.9ZM67.6,254.7h2.9v2.9h-2.9s0-2.9,0-2.9ZM79.4,254.7h2.9v2.9h-2.9v-2.9ZM82.5,254.7h2.9v2.9h-2.9v-2.9ZM88.3,254.7h2.9v2.9h-2.9v-2.9ZM91.4,254.7h2.9v2.9h-2.9v-2.9ZM94.3,254.7h2.9v2.9h-2.9v-2.9ZM97.2,254.7h2.9v2.9h-2.9v-2.9ZM100.3,254.7h2.9v2.9h-2.9v-2.9ZM103.2,254.7h2.9v2.9h-2.9v-2.9ZM106.2,254.7h2.9v2.9h-2.9v-2.9ZM112.1,254.7h2.9v2.9h-2.9v-2.9ZM115.1,254.7h2.9v2.9h-2.9v-2.9ZM118,254.7h2.9v2.9h-2.9v-2.9ZM121,254.7h2.9v2.9h-2.9v-2.9ZM132.9,254.7h2.9v2.9h-2.9v-2.9ZM141.8,254.7h2.9v2.9h-2.9v-2.9ZM144.7,254.7h2.9v2.9h-2.9v-2.9ZM2.4,257.7h2.9v2.9h-2.9v-2.9ZM8.3,257.7h2.9v2.9h-2.9v-2.9ZM11.3,257.7h2.9v2.9h-2.9v-2.9ZM14.3,257.7h2.9v2.9h-2.9v-2.9ZM20.1,257.7h2.9v2.9h-2.9v-2.9ZM26.1,257.7h2.9v2.9h-2.9v-2.9ZM29.1,257.7h2.9v2.9h-2.9v-2.9ZM46.9,257.7h2.9v2.9h-2.9v-2.9ZM52.8,257.7h2.9v2.9h-2.9v-2.9ZM61.7,257.7h2.9v2.9h-2.9v-2.9ZM64.7,257.7h2.9v2.9h-2.9v-2.9ZM67.6,257.7h2.9v2.9h-2.9s0-2.9,0-2.9ZM70.6,257.7h2.9v2.9h-2.9v-2.9ZM73.6,257.7h2.9v2.9h-2.9v-2.9ZM76.5,257.7h2.9v2.9h-2.9v-2.9ZM79.4,257.7h2.9v2.9h-2.9v-2.9ZM85.4,257.7h2.9v2.9h-2.9v-2.9ZM88.3,257.7h2.9v2.9h-2.9v-2.9ZM91.4,257.7h2.9v2.9h-2.9v-2.9ZM94.3,257.7h2.9v2.9h-2.9v-2.9ZM100.3,257.7h2.9v2.9h-2.9v-2.9ZM106.2,257.7h2.9v2.9h-2.9v-2.9ZM109.1,257.7h2.9v2.9h-2.9v-2.9ZM112.1,257.7h2.9v2.9h-2.9v-2.9ZM115.1,257.7h2.9v2.9h-2.9v-2.9ZM118,257.7h2.9v2.9h-2.9v-2.9ZM121,257.7h2.9v2.9h-2.9v-2.9ZM124,257.7h2.9v2.9h-2.9v-2.9ZM126.9,257.7h2.9v2.9h-2.9v-2.9ZM129.9,257.7h2.9v2.9h-2.9v-2.9ZM132.9,257.7h2.9v2.9h-2.9v-2.9ZM138.7,257.7h2.9v2.9h-2.9v-2.9ZM141.8,257.7h2.9v2.9h-2.9v-2.9ZM144.7,257.7h2.9v2.9h-2.9v-2.9ZM2.4,260.6h2.9v2.9h-2.9v-2.9ZM8.3,260.6h2.9v2.9h-2.9v-2.9ZM11.3,260.6h2.9v2.9h-2.9v-2.9ZM14.3,260.6h2.9v2.9h-2.9v-2.9ZM20.1,260.6h2.9v2.9h-2.9v-2.9ZM26.1,260.6h2.9v2.9h-2.9v-2.9ZM29.1,260.6h2.9v2.9h-2.9v-2.9ZM32.1,260.6h2.9v2.9h-2.9v-2.9ZM35,260.6h2.9v2.9h-2.9v-2.9ZM38,260.6h2.9v2.9h-2.9v-2.9ZM41,260.6h2.9v2.9h-2.9v-2.9ZM46.9,260.6h2.9v2.9h-2.9v-2.9ZM49.8,260.6h2.9v2.9h-2.9v-2.9ZM52.8,260.6h2.9v2.9h-2.9v-2.9ZM55.8,260.6h2.9v2.9h-2.9v-2.9ZM64.7,260.6h2.9v2.9h-2.9v-2.9ZM73.6,260.6h2.9v2.9h-2.9v-2.9ZM79.4,260.6h2.9v2.9h-2.9v-2.9ZM82.5,260.6h2.9v2.9h-2.9v-2.9ZM88.3,260.6h2.9v2.9h-2.9v-2.9ZM94.3,260.6h2.9v2.9h-2.9v-2.9ZM112.1,260.6h2.9v2.9h-2.9v-2.9ZM124,260.6h2.9v2.9h-2.9v-2.9ZM132.9,260.6h2.9v2.9h-2.9v-2.9ZM135.8,260.6h2.9v2.9h-2.9s0-2.9,0-2.9ZM2.4,263.6h2.9v2.9h-2.9v-2.9ZM8.3,263.6h2.9v2.9h-2.9v-2.9ZM11.3,263.6h2.9v2.9h-2.9v-2.9ZM14.3,263.6h2.9v2.9h-2.9v-2.9ZM20.1,263.6h2.9v2.9h-2.9v-2.9ZM26.1,263.6h2.9v2.9h-2.9v-2.9ZM32.1,263.6h2.9v2.9h-2.9v-2.9ZM38,263.6h2.9v2.9h-2.9v-2.9ZM41,263.6h2.9v2.9h-2.9v-2.9ZM46.9,263.6h2.9v2.9h-2.9v-2.9ZM49.8,263.6h2.9v2.9h-2.9v-2.9ZM58.7,263.6h2.9v2.9h-2.9v-2.9ZM61.7,263.6h2.9v2.9h-2.9v-2.9ZM64.7,263.6h2.9v2.9h-2.9v-2.9ZM67.6,263.6h2.9v2.9h-2.9s0-2.9,0-2.9ZM70.6,263.6h2.9v2.9h-2.9v-2.9ZM79.4,263.6h2.9v2.9h-2.9v-2.9ZM82.5,263.6h2.9v2.9h-2.9v-2.9ZM85.4,263.6h2.9v2.9h-2.9v-2.9ZM97.2,263.6h2.9v2.9h-2.9v-2.9ZM103.2,263.6h2.9v2.9h-2.9v-2.9ZM109.1,263.6h2.9v2.9h-2.9v-2.9ZM115.1,263.6h2.9v2.9h-2.9v-2.9ZM118,263.6h2.9v2.9h-2.9v-2.9ZM129.9,263.6h2.9v2.9h-2.9v-2.9ZM138.7,263.6h2.9v2.9h-2.9v-2.9ZM144.7,263.6h2.9v2.9h-2.9v-2.9ZM2.4,266.6h2.9v2.9h-2.9v-2.9ZM20.1,266.6h2.9v2.9h-2.9v-2.9ZM29.1,266.6h2.9v2.9h-2.9v-2.9ZM32.1,266.6h2.9v2.9h-2.9v-2.9ZM46.9,266.6h2.9v2.9h-2.9v-2.9ZM94.3,266.6h2.9v2.9h-2.9v-2.9ZM97.2,266.6h2.9v2.9h-2.9v-2.9ZM103.2,266.6h2.9v2.9h-2.9v-2.9ZM124,266.6h2.9v2.9h-2.9v-2.9ZM129.9,266.6h2.9v2.9h-2.9v-2.9ZM144.7,266.6h2.9v2.9h-2.9v-2.9ZM2.4,269.5h2.9v2.9h-2.9v-2.9ZM5.4,269.5h2.9v2.9h-2.9v-2.9ZM8.3,269.5h2.9v2.9h-2.9v-2.9ZM11.3,269.5h2.9v2.9h-2.9v-2.9ZM14.3,269.5h2.9v2.9h-2.9v-2.9ZM17.2,269.5h2.9v2.9h-2.9v-2.9ZM20.1,269.5h2.9v2.9h-2.9v-2.9ZM29.1,269.5h2.9v2.9h-2.9v-2.9ZM43.9,269.5h2.9v2.9h-2.9v-2.9ZM46.9,269.5h2.9v2.9h-2.9v-2.9ZM49.8,269.5h2.9v2.9h-2.9v-2.9ZM52.8,269.5h2.9v2.9h-2.9v-2.9ZM55.8,269.5h2.9v2.9h-2.9v-2.9ZM61.7,269.5h2.9v2.9h-2.9v-2.9ZM64.7,269.5h2.9v2.9h-2.9v-2.9ZM67.6,269.5h2.9v2.9h-2.9s0-2.9,0-2.9ZM70.6,269.5h2.9v2.9h-2.9v-2.9ZM73.6,269.5h2.9v2.9h-2.9v-2.9ZM94.3,269.5h2.9v2.9h-2.9v-2.9ZM103.2,269.5h2.9v2.9h-2.9v-2.9ZM106.2,269.5h2.9v2.9h-2.9v-2.9ZM109.1,269.5h2.9v2.9h-2.9v-2.9ZM112.1,269.5h2.9v2.9h-2.9v-2.9ZM118,269.5h2.9v2.9h-2.9v-2.9ZM126.9,269.5h2.9v2.9h-2.9v-2.9ZM135.8,269.5h2.9v2.9h-2.9s0-2.9,0-2.9ZM138.7,269.5h2.9v2.9h-2.9v-2.9ZM141.8,269.5h2.9v2.9h-2.9v-2.9ZM144.7,269.5h2.9v2.9h-2.9v-2.9Z"/>
  </g>
  <g class="st2">
    <text class="st3" transform="translate(94.4 88.7)"><tspan x="0" y="0">Submit</tspan><tspan x="-26.9" y="16.8">features to</tspan><tspan x="-21.5" y="33.6">win prizes</tspan></text>
  </g>
  <text class="st5" transform="translate(2.4 289.8)"><tspan x="0" y="0">Digital Sciences</tspan><tspan x="0" y="7.2">Initiative</tspan></text>
  <g>
    <path d="M64.9,289.8h19.3c-.8,4.6-4.8,8.2-9.6,8.2s-8.9-3.5-9.6-8.2Z"/>
    <g>
      <path d="M84.2,286.6h-19.3c.8-4.6,4.8-8.2,9.6-8.2s8.9,3.5,9.6,8.2Z"/>
      <circle class="st8" cx="74.5" cy="288.2" r="7.1"/>
      <path class="st9" d="M84.3,288.2c0,.5,0,1.1-.1,1.6h-19.3c0-.5-.1-1.1-.1-1.6s0-1.1.1-1.6h19.3c0,.5.1,1.1.1,1.6Z"/>
    </g>
    <text class="st6" transform="translate(67.8 288.7)"><tspan x="0" y="0">TransportLab</tspan></text>
  </g>
  <text class="st5" transform="translate(118.5 289.8)"><tspan x="0" y="0">School of</tspan><tspan x="-24.6" y="7.2">Civil Engineering</tspan></text>
</svg>