<?xml version="1.0" encoding="utf-8"?>
<!-- Generator: Adobe Illustrator 28.2.0, SVG Export Plug-In . SVG Version: 6.00 Build 0)  -->
<svg version="1.1" id="Layer_1" xmlns="http://www.w3.org/2000/svg" xmlns:xlink="http://www.w3.org/1999/xlink" x="0px" y="0px"
	 viewBox="0 0 44.3 47.1" style="enable-background:new 0 0 44.3 47.1;" xml:space="preserve">
<style type="text/css">
	.st0{fill:#FFFFFF;}
</style>
<path class="st0" d="M23.4,30.6h3.5v-0.5h-3.5V30.6z M23.4,32.1h3.5v-0.5h-3.5V32.1z M23.4,29.2h3.5v-0.5h-3.5V29.2z M20.9,30.1
	h-3.5v0.5h3.5V30.1z M20.9,31.5h-3.5V32h3.5V31.5z M20.9,28.7h-3.5v0.5h3.5V28.7z M26.4,19.4c-1.4-0.1-2.9-0.1-4.3-0.1
	c-1.4,0-2.9,0-4.3,0.1v7H4.4c0.6,3.3,1.9,6.5,3.9,9.2C8.5,35.2,9,35,9.5,35h8.4v7.3c1.4,0.4,2.8,0.6,4.3,0.6V43l0,0v-0.1
	c1.5,0,2.9-0.2,4.3-0.6V35h8.4c0.5,0,0.9,0.2,1.2,0.6c2-2.7,3.4-5.8,3.9-9.2H26.4V19.4L26.4,19.4z M19.7,21.6l1.8,0.9l0.6-1.9
	l0.7,1.9l1.8-0.9l-0.9,1.8l1.9,0.6l-1.9,0.7l0.9,1.8l-1.8-0.9l-0.6,1.9l-0.7-1.9l-1.8,0.9l0.9-1.8l-1.9-0.6l1.9-0.7L19.7,21.6z
	 M13.3,33.2l-1.8-0.9l-0.7,1.9l-0.6-1.9l-1.8,0.9l0.9-1.8l-1.9-0.7l1.9-0.6l-0.9-1.8l1.8,0.9l0.7-1.9l0.6,1.9l1.8-0.9l-0.9,1.8
	l1.9,0.7l-1.9,0.6L13.3,33.2z M16.2,33.1h-0.8v-0.6h0.8V33.1L16.2,33.1z M16.2,31.5h-0.8V31h0.8V31.5L16.2,31.5z M16.2,30h-0.8v-0.6
	h0.8V30L16.2,30z M16.2,28.4h-0.8v-0.6h0.8V28.4L16.2,28.4z M16.6,33.1v-5.6h3.5c0.1,0,0.1,0,0.2,0c0.8,0,1.4,0.6,1.4,1.4v4.7
	c-0.3-0.3-0.7-0.5-1.1-0.5C20.6,33.1,17.7,33.1,16.6,33.1z M24.6,40.4l-1.8-0.9l-0.6,1.9l-0.7-1.9l-1.8,0.9l0.9-1.8L18.7,38l1.9-0.7
	l-0.9-1.8l1.8,0.9l0.6-1.9l0.7,1.9l1.8-0.9l-0.9,1.8l1.9,0.6l-1.9,0.7C23.7,38.6,24.6,40.4,24.6,40.4z M31,28.3l1.8,0.9l0.7-1.9
	l0.7,1.9l1.8-0.9l-0.9,1.8l1.9,0.6l-1.9,0.7l0.9,1.8l-1.8-0.9l-0.6,1.9l-0.7-1.9L31,33.2l0.9-1.8L30,30.8l1.9-0.7L31,28.3L31,28.3z
	 M28.1,27.9h0.8v0.6h-0.8V27.9z M28.1,29.4h0.8V30h-0.8V29.4z M28.1,31h0.8v0.6h-0.8V31z M28.1,32.5h0.8v0.6h-0.8V32.5z M27.7,27.5
	v5.6h-4.1c-0.4,0-0.8,0.2-1.1,0.5v-4.7c0-0.8,0.6-1.4,1.4-1.4c0.1,0,0.1,0,0.2,0L27.7,27.5L27.7,27.5L27.7,27.5z M34.6,3.6
	c-3.5-0.7-8.1-1.5-12.5-1.5c-6.6,0-13.7,1.6-16.7,2.5C4.8,4.8,4.3,4.9,4.1,5v15.1c2-0.3,10.2-1.6,18.1-1.6c7.8,0,16.1,1.2,18.1,1.6
	V5C40,4.9,39.6,4.8,39,4.6C37.5,4.3,36.1,3.9,34.6,3.6z M15.8,5.2c0.3-0.1-0.3-0.5,0.1-0.5c0.2,0,1.1,0,1.7,0.3
	c0.1,0,0.2-0.2,0.4-0.3h0.1c0.3,0.1,0.3,0.4,0.5,0.3c0.6-0.3,1.4-0.3,1.7-0.3c0.4,0-0.2,0.4,0.1,0.5c1.4,0.3,2.5,1.5,2.5,3
	c0,0.4-0.1,0.8-0.2,1.2c-0.1,0.2-0.3-0.4-0.4,0C22.2,10,22,10.5,21.7,11c-0.3,0.5-0.8-0.6-0.9-0.3c-0.3,0.6-0.9,0.8-1.4,0.8
	c-0.1,0-0.1,0,0-0.1c0,0,0.1-0.1,0.2-0.3V11c0.3-0.2,0.6-0.5,0.7-0.9s0.2-0.9,0.4-1.2c0.4-0.7-0.1-1.5,0-1.7C21,7,21.1,6.4,20.8,6
	c-0.2-0.3-0.5-0.4-0.8-0.4s-0.5,0.1-0.7,0.3l0,0C19.2,6,19.1,6.1,19,6.2s-0.1,0.3,0.1,0.4c0.7,0.2,1.1,1.6,0.8,2.1
	c-0.1,0.2-0.5,1-0.5,1.2c0,0.3-0.2,0.5-0.5,0.5c-0.2,0-0.4-0.1-0.5-0.4l0,0C18.6,9.9,19,9.7,19,9.4l-0.1-0.8c0.3,0,0.5-0.2,0.5-0.5
	c0,0,0.1,0,0.1-0.1c0.1-0.1,0.2-0.4-0.1-0.3c-0.3,0.1-0.7,0-1.1,0.1l-0.1,0.1c0,0.1,0.2,1,0.3,1.3l0,0c-0.2,0-0.3,0-0.5,0
	c-0.1,0-0.3,0-0.5,0l0,0C17.6,9,17.8,8,17.8,8V7.9c-0.1-0.1-1-0.2-1.1-0.2s-0.1,0-0.1,0.1c-0.1,0.1,0.1,0.3,0.2,0.3
	c0,0.3,0.2,0.5,0.5,0.5l0,0c0,0.1-0.1,0.8-0.1,0.8c0,0.3,0.4,0.5,0.6,0.6l0,0c-0.1,0.2-0.3,0.3-0.5,0.3c-0.3,0-0.5-0.2-0.5-0.5l0,0
	c0-0.2-0.4-1-0.5-1.2c-0.3-0.5,0.1-1.9,0.8-2.1c0.1,0,0.2-0.2,0.1-0.4c-0.3-0.3-0.6-0.6-1-0.6c-0.5,0-1,0.4-1,1l0,0
	c0,0.6,0.5,0.7,0.4,0.9C15.4,8,15.4,8.6,15.7,9c0.2,0.3,0.3,0.8,0.4,1.1c0.1,0.4,0.3,0.7,0.6,0.8c0.1,0.1,0.1,0.2,0.1,0.3
	s0.1,0.1,0.1,0.1c0.1,0,0,0.1,0,0.1c-0.4-0.1-1.1-0.2-1.4-0.9c-0.1-0.3-0.6,0.8-0.9,0.3c-0.3-0.5-0.5-1-0.6-1.6
	c-0.1-0.3-0.3,0.2-0.4,0c-0.2-0.4-0.2-0.8-0.2-1.2C13.3,6.7,14.4,5.6,15.8,5.2z M19.8,6.2C19.8,6.2,19.8,6.1,19.8,6.2
	C19.9,6.1,20,6.1,20,6.1c0.2,0,0.4,0.2,0.4,0.4c0,0.1-0.1,0.3-0.2,0.3h-0.1C20.1,6.6,20,6.4,19.8,6.2L19.8,6.2z M18.8,11.1
	c-0.1,0.3-0.5,0.2-0.7,0.4H18c-0.2-0.2-0.6-0.1-0.7-0.4V11c0.3,0,0.5-0.2,0.7-0.4h0.1c0.2,0.2,0.4,0.3,0.6,0.3
	C18.8,10.9,18.8,11,18.8,11.1z M15.9,6.8L15.9,6.8c-0.2-0.1-0.2-0.2-0.3-0.3c0-0.2,0.2-0.4,0.4-0.4c0.1,0,0.2,0,0.3,0.1v0.1
	C16.2,6.4,16,6.6,15.9,6.8L15.9,6.8z M12.1,12.3c-0.3,0-0.4,0.1-0.6,0.2c-0.1,0.1-0.2-0.2,0-0.7c0.1-0.4-0.7-0.6-0.9-0.5
	c-0.3,0.2-1,0.6-1.7-0.1c-0.1-0.1,0.3-0.1,0.3-0.2c0-0.2,0.2-0.3,0.3-0.4c0-0.1,0-0.1,0-0.2C9.3,10.4,9,10.2,9,9.7
	c0-0.1-0.4-0.1-0.2-0.2c0.7-0.6,1.4-0.2,1.7,0c0,0,0.1,0,0.2-0.1c0-0.2-0.1-0.3,0.3-0.6c0.1-0.1-0.2-0.3,0-0.3c1.4,0.3,0.7,1.7,1,2
	c0.5,0.5,1.8,0.8,2.9,1.1c0.1,0,0.5,0.1,0.5,0.2c1,0.5,1.5,0.4,2,0.2c0.2-0.1,0.2,0.1,0.1,0.2c-1.9,1.8-3.3,1.3-3.8,1
	c-0.4-0.2-1.1-0.2-1.4,0.2c-0.1,0.1-0.2,0.1-0.2-0.1c-0.1-0.3,0-0.6,0.1-0.8C12.3,12.4,12.2,12.3,12.1,12.3L12.1,12.3z M30.1,14
	c-0.3,0.2-0.7,0.5-1.4,0.4c-0.3,0-0.5,0.1-0.5,0.2c0,0.1-0.1,0.1-0.1,0.1c0,0.1,0,0.3,0.1,0.4c0.1,0.1,0,0.2-0.1,0.2s-0.3,0-0.6-0.1
	c-0.1-0.1-0.2,0-0.2,0.1c-0.1,0.1,0,0.3,0.2,0.5c0.1,0.1,0.1,0.2-0.1,0.2c-0.3,0.1-0.5,0-0.9-0.2c-0.2-0.1-0.4-0.1-0.6,0
	C26,15.9,26,16,26,16.1c0.2,0.1,0.2,0.5-0.1,0.9c-0.1,0.2-0.3-0.3-0.4-0.2c-0.5,0.2-1-0.1-1.1-0.3c0,0-0.1-0.1-0.2,0
	c-0.3,0.2-0.8,0.5-1,0c0-0.1-0.3,0.1-0.3,0c0-0.8,0.7-1,1.1-1c0.1,0,0.1-0.1,0.1-0.1c-0.1-0.2-0.3-0.4-0.2-0.6
	c0.1-0.2-0.4-0.2-0.2-0.3c1-0.5,1.5,0.4,1.7,0.5c0.3,0.2,1.5-0.2,1.7-0.9c0-0.1-0.3-0.2-0.6-0.3c-0.1,0-0.1-0.1,0-0.2
	c0.8-0.6,1.4-1.3,2.8-1.4c0.1,0,0.2,0.1,0.2,0.2l0,0c0,0.2,0.1,0.4,0.2,0.6c0.2,0.4,0.4,0.7,0.7,0.9C30.2,13.8,30.2,13.9,30.1,14
	L30.1,14z M35.9,13.6c0.1,0.1,0.1,0.1,0,0.2c-0.1,0.1-0.2,0.2-0.6,0.2c-0.1,0-0.1,0.1-0.1,0.2c0,0.2,0.2,0.3,0.4,0.3
	c0.1,0,0.2,0.1,0,0.2c-0.2,0.2-0.5,0.2-0.9,0.2s-0.8,0.5-0.5,0.7c0.2,0.1,0.5,0.5,0.2,1.3c-0.1,0.3-0.3-0.2-0.4-0.2
	c-0.4,0.2-0.7-0.1-0.8-0.2s-0.1-0.1-0.2,0c-0.1,0.2-0.5,0.7-1.3,0.3c-0.2-0.1-0.5,0.2-0.5,0.1c-0.1-0.6,0.2-0.9,0.4-1.1
	c0,0,0.1-0.2,0-0.1c-0.2,0-0.6-0.1-0.6-0.4c0-0.1-0.3,0-0.3-0.1c0.1-0.4,1-0.7,1.7-0.3c0.6,0.4,1.3-0.9,0.8-1.5
	c-0.4-0.4-2.5,0.8-3.2-0.8c-0.3-0.6,0.1-1.1-0.2-1.2c-0.3,0-1.6-0.3-3.1,0.9c-2.5,2-5.2,0.9-5.8,0.5c-0.1,0-0.2,0-0.2,0.1
	c0.1,0.3,0.1,0.5-0.1,0.7c-0.3,0.4-1.2,0.8-1.3,0.8c-1,0.3-0.9,1.1-0.8,1.5c0,0.1,0,0.2-0.1,0.2c-0.3-0.1-1-0.3-1.2-0.9
	c0-0.1-0.1-0.1-0.2,0c-0.4,0.3-0.2,0.7-0.2,0.9c0,0.1,0,0.1-0.1,0.1c-0.4,0-0.6-0.4-0.9-0.3c-0.2,0-0.4,0.2-0.6,0.3
	c-0.1,0-0.1,0.1,0,0.3c0.4,1.2-0.2,1.2-0.3,1.2c0,0,0-0.2-0.2-0.2c-0.6,0-0.8-0.4-0.8-0.7c0-0.1-0.1-0.1-0.1-0.1
	c-0.2,0.2-0.8,0.5-1.2,0c-0.1-0.1-0.2,0-0.3,0s-0.1-0.1-0.1-0.1c0-0.5,0.3-0.9,0.7-1.1c0.1,0,0.1-0.1,0-0.1
	c-0.2-0.1-0.6-0.5-0.4-0.8c0-0.1-0.3-0.2-0.2-0.2c0.7-0.5,1.7,0.3,1.8,0.4c0.1,0.1,0.8,0.1,2.5-0.8c1.1-0.6,1.6-1.1,1.9-1.5
	c0,0,0.1-0.1,0.2-0.1c0.7,0,1.4-0.1,1.9-0.6c0.1-0.1,0.2,0,0.2,0c1,0.7,1.5-0.8,1.7-1.5c0-0.1,0.1-0.2,0.2-0.3
	c3.5,0.2,10.3,0.1,10.3,0.1s0.9,0.1,0.8-0.5c-0.1-0.9-3.7-0.9-6.5-0.5c-1,0.1-2.4,0.2-3.3-0.1c-0.4-0.1-0.6-0.4-0.8-0.6
	c-0.3-0.6-0.2-0.8-0.2-1s0.1-0.3,0.2-0.5c0.7-1.1,2.3-1.2,2.8-1.2c0.1,0,0.2,0,0.2-0.1c0-0.2,0.2-0.8,0.9-0.9c0.2,0,0.4-0.1,0.5-0.1
	s0.1,0,0.1,0.1S27.6,4.9,27.5,5c-0.5,0.4-0.4,0.6-0.4,0.6h0.1c1.4-1.3,2.3-0.4,2.5-0.1c0,0,0.1,0.1,0,0.1c-1,0.2-1.4,1.1-3.4,1
	c-0.2,0-1.9-0.1-2.4,0.6c-0.3,0.4-0.1,0.8,0.8,1c0.7,0.1,2.2-0.1,3-0.1c0.7-0.1,3.9-0.5,5.5,0c0.7,0.2,1.7,0.8,1.5,1.8
	c-0.1,0.7-0.8,0.9-0.8,0.9s-1.8,1.3,1.4,1.3c1,0,0,0.8,0,1.1C35.6,13.3,35.7,13.5,35.9,13.6z M29.9,6.5c-0.1,0-0.3,0.1-0.4,0.2
	c-0.3,0.2-1.5,0.7-1.8,0.1c0,0,0.8,0,1.4-0.5c0,0,0.6-0.2,0.9,0.1C30,6.4,30,6.5,29.9,6.5L29.9,6.5z M22.1,0C11,0,0,2.9,0,2.9v14.7
	c0,13.3,9.5,27.1,22.1,29.5c13.1-2.6,22.2-16.2,22.2-29.5V2.9C44.3,2.9,35,0,22.1,0z M41,23.1c0,10.8-8.2,20.6-18.9,20.6l0,0
	c-10.6,0-18.9-9.8-18.9-20.6V4.4l0.3-0.1c0,0,9.6-3,18.6-3s18.6,3,18.6,3L41,4.4C41,4.4,41,10.4,41,23.1L41,23.1z"/>
</svg>
